G04 Layer_Color=16711935*
%FSLAX45Y45*%
%MOMM*%
%TF.FileFunction,Soldermask,Bot*%
%TF.Part,Single*%
G01*
G75*
%TA.AperFunction,ComponentPad*%
%ADD43C,11.00000*%
%ADD55C,1.62560*%
%TA.AperFunction,WasherPad*%
%ADD56C,2.10000*%
%ADD58C,0.10160*%
%TA.AperFunction,ComponentPad*%
%ADD59C,1.70160*%
%ADD60C,2.00160*%
%TA.AperFunction,ViaPad*%
%ADD61C,0.90160*%
%TA.AperFunction,SMDPad,CuDef*%
%ADD80R,0.90160X0.90160*%
%ADD81R,0.90160X0.90160*%
G04:AMPARAMS|DCode=82|XSize=1.1016mm|YSize=1.1016mm|CornerRadius=0.5508mm|HoleSize=0mm|Usage=FLASHONLY|Rotation=90.000|XOffset=0mm|YOffset=0mm|HoleType=Round|Shape=RoundedRectangle|*
%AMROUNDEDRECTD82*
21,1,1.10160,0.00000,0,0,90.0*
21,1,0.00000,1.10160,0,0,90.0*
1,1,1.10160,0.00000,0.00000*
1,1,1.10160,0.00000,0.00000*
1,1,1.10160,0.00000,0.00000*
1,1,1.10160,0.00000,0.00000*
%
%ADD82ROUNDEDRECTD82*%
%ADD83R,0.75160X1.20160*%
%ADD84R,3.70160X2.70160*%
%ADD85R,1.20160X1.70160*%
%ADD86R,2.20160X3.10160*%
%ADD87R,0.91160X1.70160*%
%ADD88R,1.00160X1.05160*%
%ADD89R,1.00160X1.05161*%
%ADD90R,1.00160X1.10160*%
%ADD91R,1.10160X1.00160*%
%ADD92R,1.30160X1.50160*%
%ADD93R,2.10160X1.75160*%
%ADD94R,1.25160X1.50160*%
%ADD95R,1.10160X2.01160*%
%TA.AperFunction,ComponentPad*%
%ADD96C,11.10160*%
G36*
X2861972Y5179892D02*
X2781972D01*
Y5309892D01*
X2861972D01*
Y5179892D01*
D02*
G37*
G36*
X2671972D02*
X2591972D01*
Y5309892D01*
X2671972D01*
Y5179892D01*
D02*
G37*
G36*
Y5449892D02*
X2591972D01*
Y5579892D01*
X2671972D01*
Y5449892D01*
D02*
G37*
G36*
X2861972D02*
X2781972D01*
Y5579892D01*
X2861972D01*
Y5449892D01*
D02*
G37*
G36*
X2766972D02*
X2686972D01*
Y5579892D01*
X2766972D01*
Y5449892D01*
D02*
G37*
D43*
X3786999Y6500000D02*
D03*
X1199999D02*
D03*
X1539998Y1487001D02*
D03*
D55*
X770000Y4270000D02*
D03*
Y3950000D02*
D03*
Y3630000D02*
D03*
Y3310000D02*
D03*
X270000Y3310000D02*
D03*
Y3630000D02*
D03*
Y3950000D02*
D03*
Y4270000D02*
D03*
X4730000D02*
D03*
Y3950000D02*
D03*
Y3630000D02*
D03*
Y3310000D02*
D03*
X4230000Y3310000D02*
D03*
Y3630000D02*
D03*
Y3950000D02*
D03*
Y4270000D02*
D03*
D56*
X620000Y4859999D02*
D03*
D58*
X4500002Y7499998D02*
D03*
X500000D02*
D03*
X4500002Y500002D02*
D03*
X500000D02*
D03*
D59*
X2492802Y6500572D02*
D03*
D60*
X1987802Y5995572D02*
D03*
Y7005572D02*
D03*
X2997802D02*
D03*
Y5995572D02*
D03*
D61*
X4767072Y5006086D02*
D03*
X4546854Y4608322D02*
D03*
X4469638Y4706112D02*
D03*
X4766564Y4830064D02*
D03*
D80*
X2730246Y5816670D02*
D03*
Y5666670D02*
D03*
X3301072Y5442969D02*
D03*
Y5292967D02*
D03*
X4064702Y5149320D02*
D03*
Y4999318D02*
D03*
D81*
X3356680Y5889244D02*
D03*
X3206680D02*
D03*
X4710589Y5551204D02*
D03*
X4560587D02*
D03*
X3078226Y5732526D02*
D03*
X2928224D02*
D03*
D82*
X180001Y7646998D02*
D03*
X4807000Y340003D02*
D03*
X4807002Y7646998D02*
D03*
D83*
X4654998Y5370000D02*
D03*
X4560002D02*
D03*
X4465001D02*
D03*
Y5130001D02*
D03*
X4560002D02*
D03*
X4654998D02*
D03*
X3852226Y5347968D02*
D03*
X3757225D02*
D03*
X3662224D02*
D03*
Y5107969D02*
D03*
X3757225D02*
D03*
X3852226D02*
D03*
D84*
X1731518Y5161895D02*
D03*
Y2231898D02*
D03*
D85*
X444999Y4859999D02*
D03*
X795001D02*
D03*
D86*
X3324082Y4125282D02*
D03*
X2689082D02*
D03*
D87*
X3069082Y4415282D02*
D03*
X2944082D02*
D03*
D88*
X495002Y5377498D02*
D03*
X590003Y5142503D02*
D03*
D89*
X400000Y5142497D02*
D03*
D90*
X3683598Y5563108D02*
D03*
X3853598D02*
D03*
X4462045Y4938261D02*
D03*
X4632047D02*
D03*
X3846068Y4912868D02*
D03*
X3676066D02*
D03*
D91*
X3491074Y4912968D02*
D03*
Y5082970D02*
D03*
X3491074Y5452968D02*
D03*
Y5282968D02*
D03*
X4281334Y4985002D02*
D03*
Y5154999D02*
D03*
X3004312Y5578676D02*
D03*
Y5408676D02*
D03*
X2458482Y5443084D02*
D03*
Y5613084D02*
D03*
X2458483Y5143082D02*
D03*
Y5313084D02*
D03*
X4064702Y5529411D02*
D03*
Y5359413D02*
D03*
X795001Y5345002D02*
D03*
Y5174999D02*
D03*
X4281334Y5365001D02*
D03*
Y5534999D02*
D03*
X3879999Y2345002D02*
D03*
Y2515000D02*
D03*
D92*
X4650000Y2850000D02*
D03*
X4470000D02*
D03*
D93*
X4620002Y2010002D02*
D03*
X4450000Y2579998D02*
D03*
D94*
X4410000Y1999999D02*
D03*
X4660002Y2590001D02*
D03*
D95*
X1462024Y5766124D02*
D03*
X1716024Y5437124D02*
D03*
X1970024Y5766124D02*
D03*
X2224024Y5437124D02*
D03*
D96*
X3439999Y1487001D02*
D03*
%TF.MD5,e2c9b03cd3948a5a160c8bf53c155fe2*%
M02*
