G04 Layer_Color=255*
%FSLAX45Y45*%
%MOMM*%
%TF.FileFunction,Pads,Bot*%
%TF.Part,Single*%
G01*
G75*
%TA.AperFunction,ComponentPad*%
%ADD12C,1.52400*%
%ADD14C,1.60000*%
%ADD15C,1.90000*%
%TA.AperFunction,SMDPad,CuDef*%
%ADD17R,0.80000X0.80000*%
%ADD18R,0.80000X0.80000*%
G04:AMPARAMS|DCode=19|XSize=1mm|YSize=1mm|CornerRadius=0.5mm|HoleSize=0mm|Usage=FLASHONLY|Rotation=90.000|XOffset=0mm|YOffset=0mm|HoleType=Round|Shape=RoundedRectangle|*
%AMROUNDEDRECTD19*
21,1,1.00000,0.00000,0,0,90.0*
21,1,0.00000,1.00000,0,0,90.0*
1,1,1.00000,0.00000,0.00000*
1,1,1.00000,0.00000,0.00000*
1,1,1.00000,0.00000,0.00000*
1,1,1.00000,0.00000,0.00000*
%
%ADD19ROUNDEDRECTD19*%
%ADD20R,0.65000X1.10000*%
%ADD21R,3.60000X2.60000*%
%ADD22R,1.10000X1.60000*%
%ADD23R,2.10000X3.00000*%
%ADD24R,0.81000X1.60000*%
%ADD25R,0.90000X0.95000*%
%ADD26R,0.90000X0.95001*%
%TA.AperFunction,SMDPad,SMDef*%
%ADD27R,0.60000X1.10000*%
%TA.AperFunction,SMDPad,CuDef*%
%ADD28R,0.90000X1.00000*%
%ADD29R,1.00000X0.90000*%
%ADD30R,1.20000X1.40000*%
%ADD31R,2.00000X1.65000*%
%ADD32R,1.15000X1.40000*%
%ADD33R,1.00000X1.91000*%
%TA.AperFunction,ComponentPad*%
%ADD43C,11.00000*%
D12*
X770000Y4270000D02*
D03*
Y3950000D02*
D03*
Y3630000D02*
D03*
Y3310000D02*
D03*
X270000Y3310000D02*
D03*
Y3630000D02*
D03*
Y3950000D02*
D03*
Y4270000D02*
D03*
X4730000D02*
D03*
Y3950000D02*
D03*
Y3630000D02*
D03*
Y3310000D02*
D03*
X4230000Y3310000D02*
D03*
Y3630000D02*
D03*
Y3950000D02*
D03*
Y4270000D02*
D03*
D14*
X2492802Y6500572D02*
D03*
D15*
X1987802Y5995572D02*
D03*
Y7005572D02*
D03*
X2997802D02*
D03*
Y5995572D02*
D03*
D17*
X2730246Y5816670D02*
D03*
Y5666670D02*
D03*
X3301072Y5442969D02*
D03*
Y5292967D02*
D03*
X4064702Y5149320D02*
D03*
Y4999318D02*
D03*
D18*
X3356680Y5889244D02*
D03*
X3206680D02*
D03*
X4710589Y5551204D02*
D03*
X4560587D02*
D03*
X3078226Y5732526D02*
D03*
X2928224D02*
D03*
D19*
X180001Y7646998D02*
D03*
X4807000Y340003D02*
D03*
X4807002Y7646998D02*
D03*
D20*
X4654998Y5370000D02*
D03*
X4560002D02*
D03*
X4465001D02*
D03*
Y5130001D02*
D03*
X4560002D02*
D03*
X4654998D02*
D03*
X3852226Y5347968D02*
D03*
X3757225D02*
D03*
X3662224D02*
D03*
Y5107969D02*
D03*
X3757225D02*
D03*
X3852226D02*
D03*
D21*
X1731518Y5161895D02*
D03*
Y2231898D02*
D03*
D22*
X444999Y4859999D02*
D03*
X795001D02*
D03*
D23*
X3324082Y4125282D02*
D03*
X2689082D02*
D03*
D24*
X3069082Y4415282D02*
D03*
X2944082D02*
D03*
D25*
X495002Y5377498D02*
D03*
X590003Y5142503D02*
D03*
D26*
X400000Y5142497D02*
D03*
D27*
X2631970Y5244890D02*
D03*
X2821972D02*
D03*
Y5514892D02*
D03*
X2726971D02*
D03*
X2631970D02*
D03*
D28*
X3683598Y5563108D02*
D03*
X3853598D02*
D03*
X4462045Y4938261D02*
D03*
X4632047D02*
D03*
X3846068Y4912868D02*
D03*
X3676066D02*
D03*
D29*
X3491074Y4912968D02*
D03*
Y5082970D02*
D03*
X3491074Y5452968D02*
D03*
Y5282968D02*
D03*
X4281334Y4985002D02*
D03*
Y5154999D02*
D03*
X3004312Y5578676D02*
D03*
Y5408676D02*
D03*
X2458482Y5443084D02*
D03*
Y5613084D02*
D03*
X2458483Y5143082D02*
D03*
Y5313084D02*
D03*
X4064702Y5529411D02*
D03*
Y5359413D02*
D03*
X795001Y5345002D02*
D03*
Y5174999D02*
D03*
X4281334Y5365001D02*
D03*
Y5534999D02*
D03*
X3879999Y2345002D02*
D03*
Y2515000D02*
D03*
D30*
X4650000Y2850000D02*
D03*
X4470000D02*
D03*
D31*
X4620002Y2010002D02*
D03*
X4450000Y2579998D02*
D03*
D32*
X4410000Y1999999D02*
D03*
X4660002Y2590001D02*
D03*
D33*
X1462024Y5766124D02*
D03*
X1716024Y5437124D02*
D03*
X1970024Y5766124D02*
D03*
X2224024Y5437124D02*
D03*
D43*
X3786999Y6500000D02*
D03*
X3439999Y1487001D02*
D03*
X1199999Y6500000D02*
D03*
X1539998Y1487001D02*
D03*
%TF.MD5,687568330a111a97f5dd2defdb801ac8*%
M02*
