M48
;Layer_Color=9474304
;FILE_FORMAT=4:4
METRIC,LZ
;TYPE=PLATED
T1F00S00C0.4000
T2F00S00C1.0000
T3F00S00C1.0500
T4F00S00C1.3500
T5F00S00C4.2000
T6F00S00C6.0000
;TYPE=NON_PLATED
T7F00S00C2.2000
T8F00S00C2.3000
%
T01
X00454685Y00460832
X00446964Y00470611
X00476656Y00483006
X00476707Y00500609
T02
X00423Y00331
Y00363
Y00395
Y00427
X00473
Y00395
Y00363
Y00331
X00077
Y00363
Y00395
Y00427
X00027
Y00395
Y00363
Y00331
T03
X0024928Y00650057
T04
X0019878Y00599557
X0029978
Y00700557
X0019878
T05
X00154Y001487
X00344
T06
X0012Y0065
X003787
T07
X0005Y0005
X0045
X0005Y0075
X0045
T08
X00062Y00486
M30
