%TF.GenerationSoftware,Altium Limited,Altium Designer,19.0.12 (326)*%
G04 Layer_Physical_Order=2*
G04 Layer_Color=16711680*
%FSLAX45Y45*%
%MOMM*%
%TF.FileFunction,Copper,L2,Bot,Signal*%
%TF.Part,Single*%
G01*
G75*
%TA.AperFunction,Conductor*%
%ADD10C,0.38100*%
%ADD11C,3.81000*%
%TA.AperFunction,ComponentPad*%
%ADD12C,1.52400*%
%ADD13C,1.90000*%
%ADD14C,1.60000*%
%TA.AperFunction,ViaPad*%
%ADD16C,0.80000*%
%TA.AperFunction,SMDPad,CuDef*%
%ADD17R,1.00000X1.91000*%
%ADD18R,2.00000X1.65000*%
%ADD19R,1.15000X1.40000*%
%ADD20R,1.00000X0.90000*%
%ADD21R,0.90000X1.00000*%
%ADD22R,1.20000X1.40000*%
%TA.AperFunction,SMDPad,SMDef*%
%ADD23R,0.60000X1.10000*%
%TA.AperFunction,SMDPad,CuDef*%
%ADD24R,0.90000X0.95000*%
%ADD25R,0.90000X0.95001*%
%ADD26R,0.81000X1.60000*%
%ADD27R,2.10000X3.00000*%
%ADD28R,1.10000X1.60000*%
%ADD29R,0.80000X0.80000*%
%ADD30R,3.60000X2.60000*%
%ADD31R,0.65000X1.10000*%
G04:AMPARAMS|DCode=32|XSize=1mm|YSize=1mm|CornerRadius=0.5mm|HoleSize=0mm|Usage=FLASHONLY|Rotation=90.000|XOffset=0mm|YOffset=0mm|HoleType=Round|Shape=RoundedRectangle|*
%AMROUNDEDRECTD32*
21,1,1.00000,0.00000,0,0,90.0*
21,1,0.00000,1.00000,0,0,90.0*
1,1,1.00000,0.00000,0.00000*
1,1,1.00000,0.00000,0.00000*
1,1,1.00000,0.00000,0.00000*
1,1,1.00000,0.00000,0.00000*
%
%ADD32ROUNDEDRECTD32*%
%ADD33R,0.80000X0.80000*%
%TA.AperFunction,Conductor*%
%ADD34C,2.10000*%
%ADD35C,1.27000*%
%ADD36C,3.17500*%
%ADD37C,2.50000*%
%ADD38C,2.54000*%
%ADD39C,0.25400*%
%ADD40C,0.63500*%
%ADD41C,0.20320*%
%ADD42C,0.75000*%
%ADD43C,2.00000*%
%ADD44C,2.03200*%
%ADD45C,0.00000*%
%TA.AperFunction,ComponentPad*%
%ADD46C,11.00000*%
D10*
X3870001Y2515000D02*
X3875000Y2519998D01*
X4105094Y3452874D02*
X4298189D01*
X3879999Y3227785D02*
X4105094Y3452874D01*
X3879999Y2525002D02*
Y3227785D01*
X4298189Y3452874D02*
X4411473Y3566158D01*
X4715000Y3623831D02*
X4729999Y3623831D01*
X4713728Y3623831D02*
X4715000D01*
X4503674Y2893677D02*
Y2911602D01*
X4575302Y2983230D01*
X4721226Y3305427D02*
Y3323726D01*
X4856735Y3459235D02*
Y3808265D01*
X4721226Y3323726D02*
X4856735Y3459235D01*
X4575302Y3485403D02*
X4713728Y3623831D01*
X4575302Y2983230D02*
Y3485403D01*
X4723662Y3941339D02*
X4856735Y3808265D01*
X4852417Y4087417D02*
Y4582667D01*
X4722344Y3957344D02*
X4852417Y4087417D01*
X4717158Y4264658D02*
X4723893D01*
X4565266Y4112766D02*
X4717158Y4264658D01*
X4156965Y4112766D02*
X4565266D01*
X270000Y3950000D02*
X280000D01*
X328677Y3337306D02*
Y3343403D01*
X4765040Y4830064D02*
X4846574Y4911598D01*
X4565590Y5370000D02*
Y5546205D01*
Y5351204D02*
Y5370000D01*
X3351854Y5886958D02*
X3355410Y5890514D01*
X3351854Y5886958D02*
X3548237D01*
X282956Y4609336D02*
X4549138D01*
X249998Y3630001D02*
X249999Y3654999D01*
X249998Y3629999D02*
Y3630001D01*
X100001Y3805001D02*
X249999Y3654999D01*
X100001Y3805001D02*
Y4425875D01*
X3797002Y6287560D02*
Y6509998D01*
X1988501Y7004998D02*
X2998502D01*
X1452626Y5770534D02*
X1610076Y5613084D01*
X832577Y4703316D02*
X4482340D01*
X435002Y5100955D02*
Y5367502D01*
X1723898Y5182723D02*
X1854053Y5052568D01*
X435002Y5100955D02*
X832577Y4703316D01*
X435002Y5367502D02*
Y5367528D01*
X794512Y5250490D02*
X800002Y5244997D01*
X804998Y5239999D01*
X626190Y5725002D02*
X795001D01*
X3664966Y5560712D02*
X3682224Y5577970D01*
X3335138Y5451605D02*
X3495138D01*
X3491381Y4917264D02*
X3526634Y4914746D01*
X3491138Y4915605D02*
X3526634Y4914746D01*
X3301072Y5291836D02*
X3305810D01*
X2489548Y6496050D02*
X2493499Y6500000D01*
X1199999D02*
X2493499D01*
X4463542Y4964684D02*
Y5149115D01*
X4452047Y4948259D02*
X4468473Y4964684D01*
X2224024Y5437124D02*
X2229984Y5443084D01*
X2458482D01*
X1610076Y5613084D02*
X1856740D01*
Y5230876D02*
Y5613084D01*
X2935732Y5052568D02*
X3253994Y5370830D01*
X1854053Y5052568D02*
X2935732D01*
X2821972Y5514892D02*
X2928188Y5408676D01*
X3004312D01*
X2821972Y5244890D02*
Y5514892D01*
X2458483Y5313084D02*
Y5443085D01*
X2530290Y5514892D01*
X2458482Y5443084D02*
X2458483Y5443085D01*
X2530290Y5514892D02*
X2631970D01*
X1199999Y5254903D02*
Y6500000D01*
Y5254903D02*
X1497584Y4957318D01*
X3078226Y5732526D02*
X3127502Y5683250D01*
Y5333238D02*
Y5683250D01*
X2923794Y5129530D02*
X3127502Y5333238D01*
X2749296Y5129530D02*
X2923794D01*
X2633936Y5244890D02*
X2749296Y5129530D01*
X2631970Y5244890D02*
X2633936D01*
X1787489Y5161625D02*
X1856740Y5230876D01*
X3491380Y4917264D02*
X3491381D01*
X3491074Y4917286D02*
X3491380Y4917264D01*
X1497584Y4957318D02*
X3240423D01*
X1856740Y5613084D02*
X2458482D01*
X2214626Y5441534D02*
X2216176Y5443084D01*
X1616202Y5272786D02*
X1619504Y5269484D01*
X2634996Y2515000D02*
X2746140D01*
X4379998Y5106184D02*
Y5190001D01*
X4346956Y5073142D02*
X4379998Y5106184D01*
X3992626Y5073142D02*
X4346956D01*
X2458483Y5143082D02*
X2530161D01*
X4348226Y5736336D02*
X4835652D01*
X282956Y4608830D02*
Y4609336D01*
X100001Y4425875D02*
X282956Y4608830D01*
X3490992Y4915609D02*
X3491138Y4915605D01*
X3852226Y4928870D02*
Y5097018D01*
X3526634Y4914746D02*
X3652785D01*
X4072382Y5363464D02*
X4123182D01*
X4281334Y5521616D01*
X4161334Y5489959D02*
Y5610000D01*
X4118405Y5447030D02*
X4161334Y5489959D01*
X3907605Y5447030D02*
X4118405D01*
X4549138Y4609336D02*
X4552696Y4612894D01*
X414592Y5757498D02*
X495002D01*
X282956Y5625862D02*
X414592Y5757498D01*
X282956Y4609336D02*
Y5624830D01*
X3240423Y4957318D02*
X3301072Y5017966D01*
X4465001Y5370000D02*
Y5484179D01*
X4414181Y5534999D02*
X4465001Y5484179D01*
X4281334Y5534999D02*
X4414181D01*
X4065300Y4998720D02*
X4277106D01*
X4410000Y1999999D02*
X4411472Y2001471D01*
X3548237Y5886958D02*
X3767228Y5667968D01*
X3004312Y5578676D02*
Y5984304D01*
X4644898Y4790186D02*
X4852417Y4582667D01*
X4644898Y4790186D02*
Y4889898D01*
X4479544Y4706112D02*
X4482340Y4703316D01*
X4626102Y4566412D02*
Y4657090D01*
X4577080Y4706112D02*
X4626102Y4657090D01*
X2998502Y5990114D02*
Y5994998D01*
X4479544Y4706112D02*
X4577080D01*
X4765040Y4830064D02*
X4766564D01*
X4546854Y4608322D02*
X4555236D01*
X4556252Y4609338D01*
X4552696Y4612894D02*
X4556252Y4609338D01*
X3490058Y5452205D02*
X3490947Y5453094D01*
X3875000Y2519998D02*
X3879999Y2525002D01*
X4380626Y5659374D02*
X4488796Y5551204D01*
X4210708Y5659374D02*
X4380626D01*
X4161334Y5610000D02*
X4210708Y5659374D01*
X4767072Y5006086D02*
Y5208270D01*
X4725590Y5249752D02*
X4767072Y5208270D01*
X4725590Y5249752D02*
Y5536203D01*
X2458483Y5613083D02*
X2459944Y5611622D01*
X2438477Y5613083D02*
X2458483D01*
X3406075Y4912968D02*
X3491074D01*
X2998502Y7004998D02*
X3495006Y6508494D01*
X3786999Y6131700D02*
Y6500000D01*
Y6131700D02*
X4064000Y5854699D01*
X3797002Y6287560D02*
X4348226Y5736336D01*
X3301072Y5017966D02*
Y5291836D01*
X3852226Y5391651D02*
X3907605Y5447030D01*
X4064000Y5580778D02*
Y5854699D01*
X4064702Y5149320D02*
Y5355095D01*
X3757225Y5347968D02*
X3852226D01*
Y5391651D01*
X3757225Y5107969D02*
Y5227968D01*
X3557226Y5452967D02*
X3662224Y5347968D01*
X3664966Y5350710D02*
Y5560712D01*
X3964686Y5101082D02*
X3992626Y5073142D01*
X3964686Y5101082D02*
Y5156962D01*
X3893680Y5227968D02*
X3964686Y5156962D01*
X3757225Y5227968D02*
X3893680D01*
X3662224Y5347968D02*
X3664966Y5350710D01*
X3301072Y5291836D02*
Y5292967D01*
X3491074Y5452967D02*
X3557226D01*
X4565650Y5628640D02*
X4601464Y5664454D01*
X4488796Y5551204D02*
X4560587D01*
X4565590Y5370000D02*
X4654998D01*
X4560002D02*
X4565590D01*
X4463542Y5149115D02*
X4466779Y5152353D01*
X4463542Y4964684D02*
X4468473D01*
X3491074Y5082970D02*
Y5282970D01*
X3786999Y5987002D02*
X3852164Y5921833D01*
Y5580002D02*
Y5921833D01*
X4565650Y5556267D02*
Y5628640D01*
X4560587Y5551204D02*
X4565650Y5556267D01*
X4560182Y5250180D02*
X4720002D01*
X4061461Y3874768D02*
X4137153Y3799076D01*
X4315207D01*
X4359998Y1770002D02*
X4560698D01*
X435002Y5367502D02*
X590003Y5522503D01*
X3879999Y2250001D02*
Y2345002D01*
X400000Y5522497D02*
Y5550001D01*
X4281334Y5154999D02*
Y5365001D01*
X4560587Y5551204D02*
X4565590Y5546205D01*
X3301072Y5017966D02*
X3406075Y4912968D01*
X4379998Y5190001D02*
X4440003Y5250000D01*
X4560002Y5162042D02*
Y5250000D01*
X4440003D02*
X4560002D01*
X3767228Y5357966D02*
Y5667968D01*
X3786999Y5987002D02*
Y6131700D01*
X2998502Y5994998D02*
X3503499Y6500000D01*
X3786999D02*
X3797002Y6509998D01*
X3537571Y6500000D02*
X3786999D01*
X3529077Y6508494D02*
X3537571Y6500000D01*
X3495006Y6508494D02*
X3529077D01*
X4315207Y3799076D02*
X4411473Y3702810D01*
X3879999Y2250001D02*
X4359998Y1770002D01*
X3626980Y5227968D02*
X3757225D01*
X3590290Y5264658D02*
X3626980Y5227968D01*
X3590290Y5264658D02*
Y5326888D01*
X3546348Y5370830D02*
X3590290Y5326888D01*
X3253994Y5370830D02*
X3546348D01*
X4600210Y4540520D02*
X4626102Y4566412D01*
X2940050Y4476750D02*
X3003820Y4540520D01*
X4600210D01*
X792988Y5727014D02*
X795001Y5725002D01*
X4411473Y3566158D02*
Y3702810D01*
X2530161Y5143082D02*
X2631970Y5244890D01*
X4411472Y2001471D02*
Y2091182D01*
X4924552Y2604262D01*
Y5647436D01*
X4835652Y5736336D02*
X4924552Y5647436D01*
X400000Y5522497D02*
X423685D01*
X626190Y5725002D01*
X794512Y5250490D02*
Y5554510D01*
X795001Y5554999D01*
X4601464Y5664454D02*
X4798060D01*
X4846574Y5615940D01*
Y4911598D02*
Y5615940D01*
X4061461Y3874768D02*
Y4017262D01*
X4156965Y4112766D01*
X3379809Y1489287D02*
X3439999Y1487001D01*
X4318635Y1486281D02*
X4323842Y1491488D01*
X3101657Y5886958D02*
X3180702D01*
X2998502Y5990114D02*
X3004312Y5984304D01*
X3101657Y5886958D01*
X3197422Y5732526D02*
X3351854Y5886958D01*
X3078226Y5732526D02*
X3197422D01*
X2796102D02*
X2928224D01*
X2730246Y5666670D02*
X2796102Y5732526D01*
X2726971Y5514892D02*
Y5663395D01*
X2730246Y5666670D01*
X2458482Y5613084D02*
X2557464D01*
X2611050Y5666670D01*
X2730246D01*
X4560698Y1770002D02*
X4597276D01*
X2983132Y5995572D02*
X2997802D01*
X2893060Y5905500D02*
X2983132Y5995572D01*
X2819076Y5905500D02*
X2893060D01*
X2730246Y5816670D02*
X2819076Y5905500D01*
D11*
X1532890Y1481582D02*
X1717548D01*
X692405Y1138934D02*
Y3230116D01*
X3379809Y1489287D02*
X3433403Y1469306D01*
X3379809Y1489287D02*
X3921929D01*
X3860036Y3628896D02*
X3934715D01*
X2746140Y2515000D02*
X3860036Y3628896D01*
X1000594Y3629404D02*
X1321816Y3308182D01*
X2502916Y2271776D02*
X2746140Y2515000D01*
X2618994Y641858D02*
X3442716Y1465580D01*
X1189481Y641858D02*
X2618994D01*
X3442716Y1465580D02*
Y1465834D01*
X3458379Y1610409D02*
X3466807Y1616652D01*
X1717548Y1481582D02*
X2502916Y2266950D01*
Y2271776D01*
X1321816Y1692656D02*
X1532890Y1481582D01*
X1321816Y1692656D02*
Y3308182D01*
X3433403Y1469306D02*
X3442716Y1465834D01*
X692405Y1138934D02*
X1189481Y641858D01*
X4332351Y1505077D02*
X4597276Y1770002D01*
D12*
X4715000Y4270000D02*
D03*
Y3950000D02*
D03*
Y3630000D02*
D03*
Y3310000D02*
D03*
X4215000Y3310000D02*
D03*
Y3630000D02*
D03*
Y3950000D02*
D03*
Y4270000D02*
D03*
X285000D02*
D03*
Y3950000D02*
D03*
Y3630000D02*
D03*
Y3310000D02*
D03*
X785000Y3310000D02*
D03*
Y3630000D02*
D03*
Y3950000D02*
D03*
Y4270000D02*
D03*
D13*
X2997802Y5995572D02*
D03*
Y7005572D02*
D03*
X1987802D02*
D03*
Y5995572D02*
D03*
D14*
X2492802Y6500572D02*
D03*
D16*
X4766564Y4830064D02*
D03*
X4469638Y4706112D02*
D03*
X4546854Y4608322D02*
D03*
X4767072Y5006086D02*
D03*
D17*
X2224024Y5437124D02*
D03*
X1970024Y5766124D02*
D03*
X1716024Y5437124D02*
D03*
X1462024Y5766124D02*
D03*
D18*
X4450000Y2579998D02*
D03*
X4620002Y2010002D02*
D03*
D19*
X4660002Y2590001D02*
D03*
X4410000Y1999999D02*
D03*
D20*
X3879999Y2515000D02*
D03*
Y2345002D02*
D03*
X4281334Y5534999D02*
D03*
Y5365001D02*
D03*
X795001Y5554999D02*
D03*
Y5725002D02*
D03*
X4064702Y5359413D02*
D03*
Y5529411D02*
D03*
X2458483Y5313084D02*
D03*
Y5143082D02*
D03*
X2458482Y5613084D02*
D03*
Y5443084D02*
D03*
X3004312Y5408676D02*
D03*
Y5578676D02*
D03*
X4281334Y5154999D02*
D03*
Y4985002D02*
D03*
X3491074Y5282968D02*
D03*
Y5452968D02*
D03*
X3491074Y5082970D02*
D03*
Y4912968D02*
D03*
D21*
X3676066Y4912868D02*
D03*
X3846068D02*
D03*
X4632047Y4938261D02*
D03*
X4462045D02*
D03*
X3853598Y5563108D02*
D03*
X3683598D02*
D03*
D22*
X4470000Y2850000D02*
D03*
X4650000D02*
D03*
D23*
X2631970Y5514892D02*
D03*
X2726971D02*
D03*
X2821972D02*
D03*
Y5244890D02*
D03*
X2631970D02*
D03*
D24*
X590003Y5522503D02*
D03*
X495002Y5757498D02*
D03*
D25*
X400000Y5522497D02*
D03*
D26*
X2944082Y4415282D02*
D03*
X3069082D02*
D03*
D27*
X2689082Y4125282D02*
D03*
X3324082D02*
D03*
D28*
X795001Y5239999D02*
D03*
X444999D02*
D03*
D29*
X4064702Y4999318D02*
D03*
Y5149320D02*
D03*
X3301072Y5292967D02*
D03*
Y5442969D02*
D03*
X2730246Y5666670D02*
D03*
Y5816670D02*
D03*
D30*
X1731518Y2231898D02*
D03*
Y5161895D02*
D03*
D31*
X3852226Y5107969D02*
D03*
X3757225D02*
D03*
X3662224D02*
D03*
Y5347968D02*
D03*
X3757225D02*
D03*
X3852226D02*
D03*
X4654998Y5130001D02*
D03*
X4560002D02*
D03*
X4465001D02*
D03*
Y5370000D02*
D03*
X4560002D02*
D03*
X4654998D02*
D03*
D32*
X4807002Y7646998D02*
D03*
X4807000Y340003D02*
D03*
X180001Y7646998D02*
D03*
D33*
X2928224Y5732526D02*
D03*
X3078226D02*
D03*
X4560587Y5551204D02*
D03*
X4710589D02*
D03*
X3206680Y5889244D02*
D03*
X3356680D02*
D03*
D34*
X4123210Y3211336D02*
X4215000Y3303126D01*
D35*
X4123210Y3211336D02*
X4144773Y3189773D01*
X4215000Y3303126D02*
Y3310000D01*
D36*
X4144773Y2685230D02*
Y3189773D01*
Y2685230D02*
X4219998Y2610001D01*
D37*
X692405Y3230116D02*
X770383Y3308094D01*
X785000Y3630000D02*
X999998D01*
X3935819D02*
X4215000D01*
D38*
X999998D02*
X1000594Y3629404D01*
X3934715Y3628896D02*
X3935819Y3630000D01*
D39*
X4722344Y3957344D02*
X4729690Y3949998D01*
X4723662Y3941339D02*
X4729690Y3947367D01*
X4277106Y4892548D02*
Y4998720D01*
X3788918Y4831842D02*
X3950462D01*
X3764280Y4856480D02*
X3788918Y4831842D01*
X3764280Y4856480D02*
Y4956556D01*
X3950462Y4831842D02*
X4061714Y4943094D01*
Y4992624D01*
X4549394Y4890770D02*
Y4987290D01*
X4518914Y4860290D02*
X4549394Y4890770D01*
X4309364Y4860290D02*
X4518914D01*
X4277106Y4892548D02*
X4309364Y4860290D01*
X4650000Y5061734D02*
Y5125002D01*
X4618228Y5029962D02*
X4650000Y5061734D01*
X4592066Y5029962D02*
X4618228D01*
X4729690Y3947367D02*
Y3949998D01*
X4549394Y4987290D02*
X4592066Y5029962D01*
X4644898Y4889898D02*
X4645001Y4890001D01*
X3662224Y5058612D02*
X3764280Y4956556D01*
X4064702Y4999318D02*
X4065300Y4998720D01*
X3662224Y5058612D02*
Y5107969D01*
D40*
X285000Y3961539D02*
X286541D01*
X273461Y3961538D02*
X285000Y3961539D01*
X265961Y3954038D02*
X273461Y3961538D01*
X280000Y3950000D02*
X449326Y3780674D01*
Y3464052D02*
Y3780674D01*
X444998Y4120000D02*
X1257179D01*
X286541Y3961539D02*
X444998Y4120000D01*
X328677Y3343403D02*
X449326Y3464052D01*
X257176Y3309999D02*
X263587Y3316410D01*
X249998Y3309999D02*
X257176D01*
X263587Y3316410D02*
X263588Y3316411D01*
X261921Y3949998D02*
X265961Y3954038D01*
X2746140Y2515000D02*
X3870001D01*
X1724407Y2264918D02*
Y3652772D01*
X249998Y3949998D02*
X261921D01*
X1257179Y4120000D02*
X1455293Y3921887D01*
X1724407Y3652772D01*
X1455293Y3921887D02*
X2910967D01*
X3069082Y4080002D01*
Y4415282D01*
X4470000Y2850000D02*
X4494530Y2874530D01*
X4230000Y3950000D02*
X4354276D01*
X4494530Y3809746D01*
Y2874530D02*
Y3809746D01*
D41*
X4064702Y5355784D02*
X4072382Y5363464D01*
X4064702Y5355784D02*
Y5359413D01*
Y5355095D02*
Y5355784D01*
X4281334Y5521616D02*
Y5534999D01*
X4064702Y5359413D02*
Y5365001D01*
X3757225Y5347968D02*
X3767228Y5357966D01*
X4560002Y5250000D02*
X4560182Y5250180D01*
X4710589Y5551204D02*
X4725590Y5536203D01*
X4650000Y5125002D02*
X4654998Y5130001D01*
D42*
X4660840Y2601095D02*
Y2836096D01*
X4088003Y1486281D02*
X4318635D01*
D43*
X4258890Y2584291D02*
X4448893D01*
D44*
X4560698Y1770002D02*
X4620002Y1829301D01*
Y2010002D01*
D45*
X4085336Y1483614D02*
X4088003Y1486281D01*
D46*
X1539998Y1487001D02*
D03*
X1199999Y6500000D02*
D03*
X3439999Y1487001D02*
D03*
X3786999Y6500000D02*
D03*
%TF.MD5,607f51df04daee7bff52d45f15eeb2d5*%
M02*
