G04 Layer_Color=65535*
%FSLAX45Y45*%
%MOMM*%
%TF.FileFunction,Legend,Top*%
%TF.Part,Single*%
G01*
G75*
%TA.AperFunction,NonConductor*%
%ADD47C,0.20000*%
%ADD49C,0.25400*%
%ADD62C,0.50800*%
%ADD63C,0.38100*%
%ADD64C,0.63500*%
%ADD65R,1.01346X3.42646*%
%ADD66R,0.28956X0.57912*%
%ADD67R,1.20000X3.10002*%
%ADD68R,16.49999X1.50002*%
%ADD69R,16.49999X1.75001*%
%ADD70R,1.71435X3.99999*%
%ADD71R,4.25003X10.25002*%
%ADD72R,10.39998X1.00000*%
%ADD73R,1.49997X9.50001*%
%ADD74R,5.49996X2.25003*%
%ADD75R,1.74996X5.24998*%
%ADD76R,3.99999X2.50002*%
%ADD77R,6.49996X0.74996*%
%ADD78R,1.00000X2.49997*%
%ADD79R,2.05217X4.50002*%
G36*
X1631860Y565053D02*
X1745480D01*
Y517447D01*
X1631860D01*
Y403193D01*
X1583620D01*
Y517447D01*
X1470000D01*
Y565053D01*
X1583620D01*
Y678673D01*
X1631860D01*
Y565053D01*
D02*
G37*
G36*
X3526782Y515045D02*
X3370000D01*
Y566459D01*
X3526782D01*
Y515045D01*
D02*
G37*
G36*
X1175884Y5250514D02*
X1182036Y5248463D01*
X1186137Y5245729D01*
X1186820Y5245045D01*
X1187504Y5244362D01*
X1190238Y5241628D01*
X1192972Y5238210D01*
X1195023Y5231375D01*
X1195706Y5228641D01*
X1196390Y5225907D01*
Y5224540D01*
Y5223856D01*
Y5122696D01*
X1258589D01*
X1262690Y5121329D01*
X1269526Y5118595D01*
X1272943Y5115861D01*
X1274310Y5115178D01*
Y5114494D01*
X1277044Y5111760D01*
X1278411Y5108343D01*
X1281145Y5102191D01*
Y5099457D01*
X1281829Y5097406D01*
Y5096039D01*
Y5095356D01*
Y5091938D01*
X1280462Y5087837D01*
X1278411Y5081686D01*
X1275677Y5077584D01*
X1274994Y5076901D01*
X1274310Y5076217D01*
X1271576Y5073483D01*
X1268159Y5071433D01*
X1261323Y5069382D01*
X1258589Y5068699D01*
X1255855Y5068015D01*
X1196390D01*
Y4838355D01*
Y4833570D01*
X1195023Y4829469D01*
X1192288Y4823317D01*
X1189554Y4819216D01*
X1188871Y4818533D01*
X1188187Y4817849D01*
X1181352Y4813748D01*
X1175201Y4811698D01*
X1171783D01*
X1169732Y4811014D01*
X1167682D01*
X1160163Y4812381D01*
X1154012Y4814432D01*
X1149911Y4816482D01*
X1149227Y4817849D01*
X1148544D01*
X1145809Y4820583D01*
X1143759Y4824001D01*
X1141708Y4830836D01*
X1141025Y4833570D01*
X1140341Y4836304D01*
Y4837671D01*
Y4838355D01*
Y5068015D01*
X1125304D01*
X1120519Y5068699D01*
X1116418Y5069382D01*
X1110267Y5072116D01*
X1106166Y5074167D01*
X1105482Y5075534D01*
X1104799D01*
X1102065Y5078951D01*
X1100698Y5082369D01*
X1097964Y5088521D01*
Y5091255D01*
X1097280Y5093305D01*
Y5094672D01*
Y5095356D01*
X1098647Y5102874D01*
X1100698Y5109026D01*
X1102748Y5113127D01*
X1104115Y5113811D01*
Y5114494D01*
X1107533Y5117228D01*
X1110950Y5119279D01*
X1117785Y5122013D01*
X1120519D01*
X1123254Y5122696D01*
X1140341D01*
Y5223856D01*
X1141025Y5228641D01*
X1141708Y5232742D01*
X1144442Y5238894D01*
X1147177Y5242995D01*
X1148544Y5244362D01*
X1151961Y5247096D01*
X1154695Y5248463D01*
X1161530Y5251197D01*
X1163581D01*
X1165631Y5251881D01*
X1171783D01*
X1175884Y5250514D01*
D02*
G37*
G36*
X2371779Y809240D02*
X2377254Y807952D01*
X2382085Y806019D01*
X2386272Y803765D01*
X2389815Y801510D01*
X2392391Y799578D01*
X2393680Y798289D01*
X2394324Y797645D01*
X2398511Y792814D01*
X2401409Y787983D01*
X2403664Y783152D01*
X2404952Y778643D01*
X2405918Y774456D01*
X2406241Y771235D01*
X2406563Y769947D01*
Y768981D01*
Y768659D01*
Y768337D01*
Y727112D01*
X2405918Y720992D01*
X2404630Y715195D01*
X2402698Y710364D01*
X2400443Y706177D01*
X2398189Y702634D01*
X2396256Y700058D01*
X2394968Y698447D01*
X2394324Y697803D01*
X2389815Y693938D01*
X2384984Y691040D01*
X2380153Y688785D01*
X2375644Y687497D01*
X2371779Y686531D01*
X2368558Y686208D01*
X2367270Y685886D01*
X2363405D01*
X2404952Y619540D01*
X2405918Y617285D01*
X2406241Y615353D01*
X2406563Y614064D01*
Y613420D01*
X2405918Y610844D01*
X2404952Y608589D01*
X2403986Y607301D01*
X2403342Y606657D01*
X2400765Y605046D01*
X2398511Y604080D01*
X2396578Y603758D01*
X2395934D01*
X2394002Y604080D01*
X2392391Y604402D01*
X2389815Y606013D01*
X2388527Y607623D01*
X2387882Y607945D01*
Y608267D01*
X2338928Y685886D01*
X2303822D01*
Y613742D01*
X2303500Y610522D01*
X2302533Y607945D01*
X2301245Y606657D01*
X2300923Y606013D01*
X2298669Y604724D01*
X2296092Y604080D01*
X2294159Y603758D01*
X2293515D01*
X2290617Y604080D01*
X2288362Y605046D01*
X2286752Y606013D01*
X2286108Y606335D01*
X2284175Y608589D01*
X2283209Y611166D01*
X2282887Y613098D01*
Y613420D01*
Y613742D01*
Y799256D01*
X2283209Y802798D01*
X2284497Y805375D01*
X2286108Y807308D01*
X2288362Y808596D01*
X2290295Y809240D01*
X2291905Y809884D01*
X2365659D01*
X2371779Y809240D01*
D02*
G37*
G36*
X2070319D02*
X2072574Y808274D01*
X2074184Y807308D01*
X2074506Y806663D01*
X2076117Y804409D01*
X2076761Y801832D01*
X2077083Y799900D01*
Y799578D01*
Y799256D01*
X2076761Y796679D01*
X2075795Y794425D01*
X2074506Y792814D01*
X2074184Y792170D01*
X2071930Y790238D01*
X2069675Y789271D01*
X2067743Y788949D01*
X2015245D01*
X2012024Y788627D01*
X2009448Y787983D01*
X2006871Y787017D01*
X2004617Y786051D01*
X2003006Y785085D01*
X2001718Y784118D01*
X2001074Y783474D01*
X2000752Y783152D01*
X1998819Y780898D01*
X1997531Y778321D01*
X1996243Y776067D01*
X1995599Y773490D01*
X1995277Y771558D01*
X1994955Y769947D01*
Y768659D01*
Y768337D01*
Y644983D01*
X1995277Y641762D01*
X1995921Y638864D01*
X1996887Y636609D01*
X1997853Y634355D01*
X1998819Y632422D01*
X1999786Y631134D01*
X2000430Y630490D01*
X2000752Y630168D01*
X2003006Y628235D01*
X2005583Y626625D01*
X2007837Y625659D01*
X2010092Y624693D01*
X2012346Y624371D01*
X2013957Y624049D01*
X2066777D01*
X2070319Y623726D01*
X2072574Y622760D01*
X2074184Y621472D01*
X2074506Y621150D01*
X2076117Y618895D01*
X2076761Y616319D01*
X2077083Y614386D01*
Y614064D01*
Y613742D01*
X2076761Y611166D01*
X2075795Y608911D01*
X2074506Y607301D01*
X2074184Y606657D01*
X2071930Y605046D01*
X2069675Y604080D01*
X2067743Y603758D01*
X2015245D01*
X2009126Y604402D01*
X2003651Y605690D01*
X1998497Y607301D01*
X1994310Y609555D01*
X1991090Y611810D01*
X1988513Y613420D01*
X1986903Y614708D01*
X1986259Y615353D01*
X1982072Y620184D01*
X1979173Y625015D01*
X1976919Y629846D01*
X1975630Y634677D01*
X1974664Y638864D01*
X1974342Y642085D01*
X1974020Y643373D01*
Y644339D01*
Y644661D01*
Y644983D01*
Y768337D01*
X1974664Y774456D01*
X1975952Y780253D01*
X1977885Y785407D01*
X1980139Y789594D01*
X1982072Y792814D01*
X1984004Y795391D01*
X1985292Y797001D01*
X1985937Y797645D01*
X1990768Y801832D01*
X1995599Y804731D01*
X2000752Y806985D01*
X2005261Y808274D01*
X2009126Y809240D01*
X2012346Y809562D01*
X2013635Y809884D01*
X2066777D01*
X2070319Y809240D01*
D02*
G37*
G36*
X1261860Y7552053D02*
X1375480D01*
Y7504447D01*
X1261860D01*
Y7390193D01*
X1213620D01*
Y7504447D01*
X1100000D01*
Y7552053D01*
X1213620D01*
Y7665673D01*
X1261860D01*
Y7552053D01*
D02*
G37*
G36*
X3392520Y5121329D02*
X3405507Y5118595D01*
X3416443Y5114494D01*
X3426012Y5109710D01*
X3433531Y5104925D01*
X3438999Y5100824D01*
X3442417Y5098090D01*
X3443784Y5096723D01*
X3452669Y5085787D01*
X3459504Y5074850D01*
X3464289Y5063914D01*
X3467707Y5053661D01*
X3469757Y5044776D01*
X3470441Y5037257D01*
X3471124Y5034523D01*
Y5033156D01*
Y5031789D01*
Y5031106D01*
Y4966855D01*
X3469757Y4957970D01*
X3467023Y4951134D01*
X3462238Y4946350D01*
X3457454Y4942932D01*
X3451986Y4940882D01*
X3447201Y4940198D01*
X3444467Y4939515D01*
X3299562D01*
Y4902605D01*
X3300246Y4897137D01*
X3300929Y4891669D01*
X3302980Y4887568D01*
X3305030Y4883466D01*
X3306397Y4880049D01*
X3308448Y4877998D01*
X3309131Y4876631D01*
X3309815Y4875948D01*
X3313916Y4872530D01*
X3318017Y4869796D01*
X3322802Y4868429D01*
X3326903Y4867062D01*
X3330320Y4866379D01*
X3333054Y4865695D01*
X3447885D01*
X3451986Y4864328D01*
X3458821Y4861594D01*
X3462238Y4858860D01*
X3463605Y4858176D01*
Y4857493D01*
X3466340Y4854075D01*
X3467707Y4851341D01*
X3470441Y4845190D01*
Y4842456D01*
X3471124Y4840405D01*
Y4839038D01*
Y4838355D01*
Y4834937D01*
X3469757Y4830836D01*
X3467707Y4824684D01*
X3464972Y4820583D01*
X3464289Y4819900D01*
X3463605Y4819216D01*
X3460871Y4816482D01*
X3457454Y4814432D01*
X3450619Y4812381D01*
X3447885Y4811698D01*
X3445151Y4811014D01*
X3335788D01*
X3328953Y4811698D01*
X3322118Y4812381D01*
X3309131Y4815799D01*
X3297512Y4820583D01*
X3287942Y4826051D01*
X3279740Y4830836D01*
X3273589Y4835621D01*
X3270171Y4839038D01*
X3269487Y4840405D01*
X3268804D01*
X3260602Y4849974D01*
X3254450Y4860227D01*
X3249666Y4870480D01*
X3246932Y4880049D01*
X3244881Y4888935D01*
X3244197Y4896453D01*
X3243514Y4899187D01*
Y4901238D01*
Y4901921D01*
Y4902605D01*
Y5031106D01*
X3244881Y5044776D01*
X3247615Y5057079D01*
X3251716Y5067332D01*
X3256501Y5076217D01*
X3260602Y5083053D01*
X3264703Y5087837D01*
X3267437Y5091255D01*
X3268804Y5091938D01*
X3274272Y5097406D01*
X3279740Y5102191D01*
X3291360Y5109710D01*
X3302296Y5115178D01*
X3313232Y5118595D01*
X3322118Y5121329D01*
X3329637Y5122013D01*
X3332371Y5122696D01*
X3378166D01*
X3392520Y5121329D01*
D02*
G37*
G36*
X3698734D02*
X3711721Y5118595D01*
X3722657Y5114494D01*
X3732226Y5109710D01*
X3739745Y5104925D01*
X3745213Y5100824D01*
X3748631Y5098090D01*
X3749998Y5096723D01*
X3758884Y5085787D01*
X3765719Y5074850D01*
X3770503Y5063914D01*
X3773921Y5053661D01*
X3775971Y5044776D01*
X3776655Y5037257D01*
X3777338Y5034523D01*
Y5033156D01*
Y5031789D01*
Y5031106D01*
Y4838355D01*
Y4833570D01*
X3775971Y4829469D01*
X3773237Y4823317D01*
X3770503Y4819216D01*
X3769820Y4818533D01*
X3769136Y4817849D01*
X3762301Y4813748D01*
X3756149Y4811698D01*
X3753415D01*
X3751365Y4811014D01*
X3749314D01*
X3741112Y4812381D01*
X3734961Y4814432D01*
X3730859Y4816482D01*
X3730176Y4817849D01*
X3729492D01*
X3726758Y4820583D01*
X3724708Y4824001D01*
X3722657Y4830836D01*
X3721974Y4833570D01*
X3721290Y4836304D01*
Y4837671D01*
Y4838355D01*
Y5031106D01*
X3720607Y5036574D01*
X3719923Y5041358D01*
X3717873Y5046143D01*
X3715822Y5049560D01*
X3713772Y5052978D01*
X3712405Y5055028D01*
X3711038Y5056396D01*
X3710354Y5057079D01*
X3706253Y5060497D01*
X3702152Y5063231D01*
X3697367Y5065281D01*
X3693266Y5066648D01*
X3689849Y5067332D01*
X3687115Y5068015D01*
X3605776D01*
Y4838355D01*
Y4833570D01*
X3604409Y4829469D01*
X3601675Y4823317D01*
X3598941Y4819216D01*
X3598258Y4818533D01*
X3597574Y4817849D01*
X3591423Y4813748D01*
X3584587Y4811698D01*
X3581853D01*
X3579803Y4811014D01*
X3577752D01*
X3570234Y4812381D01*
X3564082Y4814432D01*
X3559297Y4816482D01*
X3558614Y4817849D01*
X3557930D01*
X3555196Y4820583D01*
X3553146Y4824001D01*
X3551095Y4830836D01*
X3550412Y4833570D01*
X3549728Y4836304D01*
Y4837671D01*
Y4838355D01*
Y5095356D01*
X3551095Y5104242D01*
X3553829Y5111077D01*
X3558614Y5115861D01*
X3564082Y5119279D01*
X3568867Y5121329D01*
X3573651Y5122013D01*
X3576385Y5122696D01*
X3684380D01*
X3698734Y5121329D01*
D02*
G37*
G36*
X3934547Y5250514D02*
X3940698Y5248463D01*
X3944799Y5245729D01*
X3945483Y5245045D01*
X3946166Y5244362D01*
X3948900Y5241628D01*
X3951634Y5238210D01*
X3953685Y5231375D01*
X3954369Y5228641D01*
X3955052Y5225907D01*
Y5224540D01*
Y5223856D01*
Y5122696D01*
X4017252D01*
X4021353Y5121329D01*
X4028188Y5118595D01*
X4031606Y5115861D01*
X4032973Y5115178D01*
Y5114494D01*
X4035707Y5111760D01*
X4037074Y5108343D01*
X4039808Y5102191D01*
Y5099457D01*
X4040491Y5097406D01*
Y5096039D01*
Y5095356D01*
Y5091938D01*
X4039124Y5087837D01*
X4037074Y5081686D01*
X4034340Y5077584D01*
X4033656Y5076901D01*
X4032973Y5076217D01*
X4030239Y5073483D01*
X4026821Y5071433D01*
X4019986Y5069382D01*
X4017252Y5068699D01*
X4014518Y5068015D01*
X3955052D01*
Y4838355D01*
Y4833570D01*
X3953685Y4829469D01*
X3950951Y4823317D01*
X3948217Y4819216D01*
X3947533Y4818533D01*
X3946850Y4817849D01*
X3940015Y4813748D01*
X3933863Y4811698D01*
X3930446D01*
X3928395Y4811014D01*
X3926344D01*
X3918826Y4812381D01*
X3912674Y4814432D01*
X3908573Y4816482D01*
X3907890Y4817849D01*
X3907206D01*
X3904472Y4820583D01*
X3902421Y4824001D01*
X3900371Y4830836D01*
X3899687Y4833570D01*
X3899004Y4836304D01*
Y4837671D01*
Y4838355D01*
Y5068015D01*
X3883967D01*
X3879182Y5068699D01*
X3875081Y5069382D01*
X3868929Y5072116D01*
X3864828Y5074167D01*
X3864145Y5075534D01*
X3863461D01*
X3860727Y5078951D01*
X3859360Y5082369D01*
X3856626Y5088521D01*
Y5091255D01*
X3855943Y5093305D01*
Y5094672D01*
Y5095356D01*
X3857310Y5102874D01*
X3859360Y5109026D01*
X3861411Y5113127D01*
X3862778Y5113811D01*
Y5114494D01*
X3866195Y5117228D01*
X3869613Y5119279D01*
X3876448Y5122013D01*
X3879182D01*
X3881916Y5122696D01*
X3899004D01*
Y5223856D01*
X3899687Y5228641D01*
X3900371Y5232742D01*
X3903105Y5238894D01*
X3905839Y5242995D01*
X3907206Y5244362D01*
X3910624Y5247096D01*
X3913358Y5248463D01*
X3920193Y5251197D01*
X3922243D01*
X3924294Y5251881D01*
X3930446D01*
X3934547Y5250514D01*
D02*
G37*
G36*
X1395976Y5121329D02*
X1402127Y5119279D01*
X1406228Y5117228D01*
X1406912Y5115861D01*
X1407595D01*
X1410329Y5113127D01*
X1413063Y5109710D01*
X1415114Y5102874D01*
X1415798Y5100140D01*
X1416481Y5097406D01*
Y5096039D01*
Y5095356D01*
Y4838355D01*
Y4833570D01*
X1415114Y4829469D01*
X1412380Y4823317D01*
X1409646Y4819216D01*
X1408962Y4818533D01*
X1408279Y4817849D01*
X1402127Y4813748D01*
X1395292Y4811698D01*
X1392558D01*
X1390508Y4811014D01*
X1388457D01*
X1380938Y4812381D01*
X1374787Y4814432D01*
X1370002Y4816482D01*
X1369319Y4817849D01*
X1368635D01*
X1365901Y4820583D01*
X1363850Y4824001D01*
X1361800Y4830836D01*
X1361116Y4833570D01*
X1360433Y4836304D01*
Y4837671D01*
Y4838355D01*
Y5095356D01*
X1361116Y5100140D01*
X1361800Y5104242D01*
X1364534Y5110393D01*
X1367268Y5113811D01*
X1368635Y5115178D01*
X1372053Y5117912D01*
X1375470Y5119279D01*
X1381622Y5122013D01*
X1384356D01*
X1386406Y5122696D01*
X1388457D01*
X1395976Y5121329D01*
D02*
G37*
G36*
X1641357D02*
X1654344Y5118595D01*
X1665280Y5114494D01*
X1674849Y5109710D01*
X1682368Y5104925D01*
X1687836Y5100824D01*
X1691254Y5098090D01*
X1692621Y5096723D01*
X1701506Y5085787D01*
X1708342Y5074850D01*
X1713126Y5063914D01*
X1716544Y5053661D01*
X1718594Y5044776D01*
X1719278Y5037257D01*
X1719961Y5034523D01*
Y5033156D01*
Y5031789D01*
Y5031106D01*
Y4838355D01*
Y4833570D01*
X1718594Y4829469D01*
X1715860Y4823317D01*
X1713126Y4819216D01*
X1712443Y4818533D01*
X1711759Y4817849D01*
X1704924Y4813748D01*
X1698772Y4811698D01*
X1696038D01*
X1693988Y4811014D01*
X1691937D01*
X1683735Y4812381D01*
X1677583Y4814432D01*
X1673482Y4816482D01*
X1672799Y4817849D01*
X1672115D01*
X1669381Y4820583D01*
X1667331Y4824001D01*
X1665280Y4830836D01*
X1664597Y4833570D01*
X1663913Y4836304D01*
Y4837671D01*
Y4838355D01*
Y5031106D01*
X1663230Y5036574D01*
X1662546Y5041358D01*
X1660496Y5046143D01*
X1658445Y5049560D01*
X1656394Y5052978D01*
X1655027Y5055028D01*
X1653660Y5056396D01*
X1652977Y5057079D01*
X1648876Y5060497D01*
X1644775Y5063231D01*
X1639990Y5065281D01*
X1635889Y5066648D01*
X1632471Y5067332D01*
X1629737Y5068015D01*
X1548399D01*
Y4838355D01*
Y4833570D01*
X1547032Y4829469D01*
X1544298Y4823317D01*
X1541564Y4819216D01*
X1540881Y4818533D01*
X1540197Y4817849D01*
X1534045Y4813748D01*
X1527210Y4811698D01*
X1524476D01*
X1522426Y4811014D01*
X1520375D01*
X1512857Y4812381D01*
X1506705Y4814432D01*
X1501920Y4816482D01*
X1501237Y4817849D01*
X1500553D01*
X1497819Y4820583D01*
X1495769Y4824001D01*
X1493718Y4830836D01*
X1493035Y4833570D01*
X1492351Y4836304D01*
Y4837671D01*
Y4838355D01*
Y5095356D01*
X1493718Y5104242D01*
X1496452Y5111077D01*
X1501237Y5115861D01*
X1506705Y5119279D01*
X1511489Y5121329D01*
X1516274Y5122013D01*
X1519008Y5122696D01*
X1627003D01*
X1641357Y5121329D01*
D02*
G37*
G36*
X2313251Y5250514D02*
X2320087Y5247779D01*
X2323504Y5245045D01*
X2324871Y5244362D01*
Y5243678D01*
X2327605Y5240261D01*
X2328972Y5236843D01*
X2331706Y5230692D01*
Y5227958D01*
X2332390Y5225907D01*
Y5224540D01*
Y5223856D01*
Y5220439D01*
X2331023Y5216338D01*
X2328972Y5210186D01*
X2326238Y5206085D01*
X2325555Y5205402D01*
X2324871Y5204718D01*
X2322137Y5201984D01*
X2318720Y5199933D01*
X2311884Y5197883D01*
X2309150Y5197199D01*
X2306416Y5196516D01*
X2197054D01*
X2191586Y5195832D01*
X2186801Y5195149D01*
X2182017Y5193098D01*
X2178599Y5191731D01*
X2175182Y5189681D01*
X2173131Y5187630D01*
X2171764Y5186947D01*
X2171080Y5186263D01*
X2167663Y5182162D01*
X2164929Y5178061D01*
X2163562Y5173276D01*
X2162195Y5169175D01*
X2161511Y5165758D01*
X2160828Y5163024D01*
Y5160973D01*
Y5160290D01*
Y4902605D01*
X2161511Y4897137D01*
X2162195Y4891669D01*
X2164245Y4887568D01*
X2166296Y4883466D01*
X2167663Y4880049D01*
X2169713Y4877998D01*
X2170397Y4876631D01*
X2171080Y4875948D01*
X2175182Y4872530D01*
X2179283Y4869796D01*
X2184067Y4868429D01*
X2188168Y4867062D01*
X2191586Y4866379D01*
X2194320Y4865695D01*
X2309150D01*
X2313251Y4864328D01*
X2320087Y4861594D01*
X2323504Y4858860D01*
X2324871Y4858176D01*
Y4857493D01*
X2327605Y4854075D01*
X2328972Y4851341D01*
X2331706Y4845190D01*
Y4842456D01*
X2332390Y4840405D01*
Y4839038D01*
Y4838355D01*
Y4834937D01*
X2331023Y4830836D01*
X2328972Y4824684D01*
X2326238Y4820583D01*
X2325555Y4819900D01*
X2324871Y4819216D01*
X2322137Y4816482D01*
X2318720Y4814432D01*
X2311884Y4812381D01*
X2309150Y4811698D01*
X2306416Y4811014D01*
X2197054D01*
X2190219Y4811698D01*
X2183384Y4812381D01*
X2170397Y4815799D01*
X2158777Y4820583D01*
X2149208Y4826051D01*
X2141006Y4830836D01*
X2134854Y4835621D01*
X2131437Y4839038D01*
X2130753Y4840405D01*
X2130070D01*
X2121867Y4849974D01*
X2115716Y4860227D01*
X2110931Y4870480D01*
X2108197Y4880049D01*
X2106147Y4888935D01*
X2105463Y4896453D01*
X2104780Y4899187D01*
Y4901238D01*
Y4901921D01*
Y4902605D01*
Y5160290D01*
X2106147Y5173960D01*
X2108881Y5186947D01*
X2112982Y5197883D01*
X2118450Y5207452D01*
X2123235Y5214971D01*
X2127336Y5220439D01*
X2130070Y5223856D01*
X2131437Y5225223D01*
X2142373Y5234109D01*
X2153309Y5240944D01*
X2164245Y5245729D01*
X2174498Y5248463D01*
X2183384Y5250514D01*
X2190902Y5251197D01*
X2193636Y5251881D01*
X2309150D01*
X2313251Y5250514D01*
D02*
G37*
G36*
X3995013Y3147071D02*
X2359252D01*
Y3513055D01*
X3995013D01*
Y3147071D01*
D02*
G37*
G36*
X3962549Y3575575D02*
X2359252D01*
Y3983055D01*
X3962549D01*
Y3575575D01*
D02*
G37*
G36*
X976279Y5060784D02*
X350332D01*
Y5200271D01*
X976279D01*
Y5060784D01*
D02*
G37*
G36*
X1424557Y3722071D02*
X1076510D01*
Y3928055D01*
X1424557D01*
Y3722071D01*
D02*
G37*
G36*
X1887115Y3247071D02*
X1076510D01*
Y3453055D01*
X1887115D01*
Y3247071D01*
D02*
G37*
G36*
X3932769Y4092071D02*
X2359252D01*
Y4458055D01*
X3932769D01*
Y4092071D01*
D02*
G37*
G36*
X2709310Y809240D02*
X2711565Y808274D01*
X2713175Y807308D01*
X2713497Y806663D01*
X2715108Y804409D01*
X2715752Y801832D01*
X2716074Y799900D01*
Y799578D01*
Y799256D01*
X2715752Y796679D01*
X2714786Y794425D01*
X2713497Y792814D01*
X2713175Y792170D01*
X2710921Y790238D01*
X2708666Y789271D01*
X2706734Y788949D01*
X2633623D01*
Y727112D01*
X2685155D01*
X2688698Y726790D01*
X2690952Y725823D01*
X2692563Y724535D01*
X2692885Y724213D01*
X2694495Y721958D01*
X2695139Y719382D01*
X2695461Y717449D01*
Y717127D01*
Y716805D01*
X2695139Y713907D01*
X2694173Y711652D01*
X2693207Y710364D01*
X2692885Y709720D01*
X2690630Y708109D01*
X2688054Y707143D01*
X2686121Y706821D01*
X2633623D01*
Y624049D01*
X2705768D01*
X2709310Y623726D01*
X2711565Y622760D01*
X2713175Y621472D01*
X2713497Y621150D01*
X2715108Y618895D01*
X2715752Y616319D01*
X2716074Y614386D01*
Y614064D01*
Y613742D01*
X2715752Y611166D01*
X2714786Y608911D01*
X2713497Y607301D01*
X2713175Y606657D01*
X2710921Y605046D01*
X2708666Y604080D01*
X2706734Y603758D01*
X2623317D01*
X2619774Y604080D01*
X2617198Y605368D01*
X2615265Y606657D01*
X2613977Y608589D01*
X2613333Y610199D01*
X2613011Y611810D01*
X2612689Y612776D01*
Y613098D01*
Y799256D01*
X2613011Y802798D01*
X2614299Y805375D01*
X2615909Y807308D01*
X2618164Y808596D01*
X2620096Y809240D01*
X2621707Y809884D01*
X2705768D01*
X2709310Y809240D01*
D02*
G37*
G36*
X1613422Y4172071D02*
X1001510D01*
Y4378055D01*
X1613422D01*
Y4172071D01*
D02*
G37*
G36*
X2536680Y809240D02*
X2542155Y807952D01*
X2546986Y806019D01*
X2551173Y803765D01*
X2554716Y801510D01*
X2557292Y799578D01*
X2558581Y798289D01*
X2559225Y797645D01*
X2563412Y792814D01*
X2566310Y787983D01*
X2568565Y783152D01*
X2569853Y778643D01*
X2570819Y774456D01*
X2571141Y771235D01*
X2571463Y769947D01*
Y768981D01*
Y768659D01*
Y768337D01*
Y727112D01*
X2570819Y720992D01*
X2569531Y715195D01*
X2567599Y710364D01*
X2565344Y706177D01*
X2563090Y702634D01*
X2561157Y700058D01*
X2559869Y698447D01*
X2559225Y697803D01*
X2554716Y693938D01*
X2549885Y691040D01*
X2545054Y688785D01*
X2540545Y687497D01*
X2536680Y686531D01*
X2533459Y686208D01*
X2532171Y685886D01*
X2528306D01*
X2569853Y619540D01*
X2570819Y617285D01*
X2571141Y615353D01*
X2571463Y614064D01*
Y613420D01*
X2570819Y610844D01*
X2569853Y608589D01*
X2568887Y607301D01*
X2568243Y606657D01*
X2565666Y605046D01*
X2563412Y604080D01*
X2561479Y603758D01*
X2560835D01*
X2558903Y604080D01*
X2557292Y604402D01*
X2554716Y606013D01*
X2553427Y607623D01*
X2552783Y607945D01*
Y608267D01*
X2503828Y685886D01*
X2468723D01*
Y613742D01*
X2468400Y610522D01*
X2467434Y607945D01*
X2466146Y606657D01*
X2465824Y606013D01*
X2463569Y604724D01*
X2460993Y604080D01*
X2459060Y603758D01*
X2458416D01*
X2455518Y604080D01*
X2453263Y605046D01*
X2451653Y606013D01*
X2451009Y606335D01*
X2449076Y608589D01*
X2448110Y611166D01*
X2447788Y613098D01*
Y613420D01*
Y613742D01*
Y799256D01*
X2448110Y802798D01*
X2449398Y805375D01*
X2451009Y807308D01*
X2453263Y808596D01*
X2455195Y809240D01*
X2456806Y809884D01*
X2530560D01*
X2536680Y809240D01*
D02*
G37*
G36*
X2872923Y809562D02*
X2875177Y808596D01*
X2876466Y807308D01*
X2877110Y806985D01*
X2879042Y804731D01*
X2880008Y802154D01*
X2880331Y800222D01*
Y799578D01*
Y799256D01*
Y615031D01*
X2880008Y611488D01*
X2879042Y608911D01*
X2877754Y607301D01*
X2877432Y606657D01*
X2875177Y605046D01*
X2872923Y604080D01*
X2871313Y603758D01*
X2870668D01*
X2868414Y604080D01*
X2866481Y604724D01*
X2863583Y606979D01*
X2861650Y608911D01*
X2861328Y609555D01*
X2861006Y609877D01*
X2777590Y758353D01*
Y613742D01*
X2777267Y610522D01*
X2776301Y607945D01*
X2775013Y606657D01*
X2774691Y606013D01*
X2772436Y604724D01*
X2769860Y604080D01*
X2767927Y603758D01*
X2767283D01*
X2764385Y604080D01*
X2762130Y605046D01*
X2760520Y606013D01*
X2759876Y606335D01*
X2757943Y608589D01*
X2756977Y611166D01*
X2756655Y613098D01*
Y613420D01*
Y613742D01*
Y798289D01*
X2756977Y801832D01*
X2758265Y804409D01*
X2759231Y806019D01*
X2759554Y806663D01*
X2761808Y808596D01*
X2764063Y809562D01*
X2765673Y809884D01*
X2766317D01*
X2768572Y809562D01*
X2770504Y808918D01*
X2773725Y806663D01*
X2774691Y805375D01*
X2775657Y804087D01*
X2775979Y803443D01*
X2776301Y803121D01*
X2859396Y654967D01*
Y799256D01*
X2859718Y802476D01*
X2861006Y805053D01*
X2861972Y806341D01*
X2862295Y806985D01*
X2864871Y808596D01*
X2867448Y809562D01*
X2869380Y809884D01*
X2870024D01*
X2872923Y809562D01*
D02*
G37*
G36*
X2234254D02*
X2236509Y808596D01*
X2237797Y807308D01*
X2238441Y806985D01*
X2240373Y804731D01*
X2241340Y802154D01*
X2241662Y800222D01*
Y799578D01*
Y799256D01*
Y644983D01*
X2241018Y638542D01*
X2239729Y632744D01*
X2237797Y627913D01*
X2235542Y623404D01*
X2233288Y620184D01*
X2231355Y617607D01*
X2230067Y615997D01*
X2229423Y615353D01*
X2224914Y611488D01*
X2220083Y608589D01*
X2215252Y606657D01*
X2210743Y605368D01*
X2206878Y604402D01*
X2203657Y604080D01*
X2202369Y603758D01*
X2159211D01*
X2153092Y604402D01*
X2147617Y605690D01*
X2142464Y607301D01*
X2138277Y609555D01*
X2135056Y611810D01*
X2132479Y613420D01*
X2130869Y614708D01*
X2130225Y615353D01*
X2126038Y620184D01*
X2123139Y625015D01*
X2120885Y629846D01*
X2119596Y634677D01*
X2118630Y638864D01*
X2118308Y642085D01*
X2117986Y643373D01*
Y644339D01*
Y644661D01*
Y644983D01*
Y799256D01*
X2118308Y802476D01*
X2119596Y805053D01*
X2120563Y806341D01*
X2120885Y806985D01*
X2123461Y808596D01*
X2126038Y809562D01*
X2127970Y809884D01*
X2128614D01*
X2131513Y809562D01*
X2133768Y808596D01*
X2135056Y807308D01*
X2135700Y806985D01*
X2137633Y804731D01*
X2138599Y802154D01*
X2138921Y800222D01*
Y799578D01*
Y799256D01*
Y644983D01*
X2139243Y641762D01*
X2139887Y638864D01*
X2140853Y636609D01*
X2141819Y634355D01*
X2142786Y632422D01*
X2143752Y631134D01*
X2144396Y630490D01*
X2144718Y630168D01*
X2146973Y628235D01*
X2149549Y626625D01*
X2151804Y625659D01*
X2154058Y624693D01*
X2156313Y624371D01*
X2157923Y624049D01*
X2200759D01*
X2203657Y624371D01*
X2206556Y625015D01*
X2208810Y625981D01*
X2211065Y627269D01*
X2212675Y628235D01*
X2213964Y629202D01*
X2214608Y629846D01*
X2214930Y630168D01*
X2216862Y632422D01*
X2218473Y634999D01*
X2219439Y637576D01*
X2220405Y639830D01*
X2220727Y641762D01*
X2221049Y643695D01*
Y644661D01*
Y644983D01*
Y799256D01*
X2221371Y802476D01*
X2222660Y805053D01*
X2223626Y806341D01*
X2223948Y806985D01*
X2226524Y808596D01*
X2228779Y809562D01*
X2230711Y809884D01*
X2231355D01*
X2234254Y809562D01*
D02*
G37*
G36*
X3038468Y809240D02*
X3040722Y808274D01*
X3042333Y807308D01*
X3042655Y806663D01*
X3044265Y804409D01*
X3044909Y801832D01*
X3045231Y799900D01*
Y799578D01*
Y799256D01*
X3044909Y796679D01*
X3043943Y794425D01*
X3042977Y792814D01*
X3042655Y792170D01*
X3040400Y790238D01*
X3037824Y789271D01*
X3035891Y788949D01*
X2994022D01*
Y613742D01*
X2993378Y610522D01*
X2992412Y607945D01*
X2991445Y606657D01*
X2990801Y606013D01*
X2988547Y604724D01*
X2985970Y604080D01*
X2984038Y603758D01*
X2983394D01*
X2980817Y604080D01*
X2978562Y605046D01*
X2976952Y606013D01*
X2976308Y606335D01*
X2974376Y608589D01*
X2973409Y611166D01*
X2973087Y613098D01*
Y613420D01*
Y613742D01*
Y788949D01*
X2932184D01*
X2928963Y789271D01*
X2926387Y790560D01*
X2925099Y791526D01*
X2924454Y791848D01*
X2922844Y794425D01*
X2921878Y796679D01*
X2921556Y798612D01*
Y798934D01*
Y799256D01*
X2921878Y802154D01*
X2922844Y804409D01*
X2923810Y806019D01*
X2924132Y806663D01*
X2926709Y808596D01*
X2929285Y809562D01*
X2931218Y809884D01*
X3034925D01*
X3038468Y809240D01*
D02*
G37*
G36*
X2853720Y457958D02*
X2855975Y456992D01*
X2857585Y456026D01*
X2857907Y455381D01*
X2859518Y453127D01*
X2860162Y450550D01*
X2860484Y448618D01*
Y448296D01*
Y447974D01*
X2860162Y445397D01*
X2859196Y443143D01*
X2858229Y441532D01*
X2857907Y440888D01*
X2855653Y438956D01*
X2853076Y437989D01*
X2851144Y437667D01*
X2809275D01*
Y262460D01*
X2808630Y259240D01*
X2807664Y256663D01*
X2806698Y255375D01*
X2806054Y254731D01*
X2803799Y253442D01*
X2801223Y252798D01*
X2799290Y252476D01*
X2798646D01*
X2796070Y252798D01*
X2793815Y253764D01*
X2792205Y254731D01*
X2791561Y255053D01*
X2789628Y257307D01*
X2788662Y259884D01*
X2788340Y261816D01*
Y262138D01*
Y262460D01*
Y437667D01*
X2747437D01*
X2744216Y437989D01*
X2741639Y439278D01*
X2740351Y440244D01*
X2739707Y440566D01*
X2738097Y443143D01*
X2737130Y445397D01*
X2736808Y447330D01*
Y447652D01*
Y447974D01*
X2737130Y450872D01*
X2738097Y453127D01*
X2739063Y454737D01*
X2739385Y455381D01*
X2741961Y457314D01*
X2744538Y458280D01*
X2746471Y458602D01*
X2850178D01*
X2853720Y457958D01*
D02*
G37*
G36*
X2125804Y7509252D02*
X2131279Y7507964D01*
X2136111Y7506031D01*
X2140297Y7503777D01*
X2143840Y7501522D01*
X2146417Y7499590D01*
X2147705Y7498301D01*
X2148349Y7497657D01*
X2152536Y7492826D01*
X2155435Y7487995D01*
X2157689Y7483164D01*
X2158978Y7478655D01*
X2159944Y7474468D01*
X2160266Y7471247D01*
X2160588Y7469959D01*
Y7468993D01*
Y7468671D01*
Y7468349D01*
Y7344995D01*
X2159944Y7338554D01*
X2158656Y7332756D01*
X2156723Y7327925D01*
X2154469Y7323416D01*
X2152214Y7320196D01*
X2150282Y7317619D01*
X2148993Y7316009D01*
X2148349Y7315365D01*
X2143840Y7311500D01*
X2139009Y7308601D01*
X2134178Y7306669D01*
X2129669Y7305380D01*
X2125804Y7304414D01*
X2122584Y7304092D01*
X2121295Y7303770D01*
X2078138D01*
X2072018Y7304414D01*
X2066543Y7305702D01*
X2061390Y7307313D01*
X2057203Y7309567D01*
X2053982Y7311822D01*
X2051406Y7313432D01*
X2049795Y7314720D01*
X2049151Y7315365D01*
X2044964Y7320196D01*
X2042066Y7325027D01*
X2039811Y7329858D01*
X2038523Y7334689D01*
X2037557Y7338876D01*
X2037234Y7342097D01*
X2036912Y7343385D01*
Y7344351D01*
Y7344673D01*
Y7344995D01*
Y7468349D01*
X2037557Y7474468D01*
X2038845Y7480265D01*
X2040777Y7485419D01*
X2043032Y7489606D01*
X2044964Y7492826D01*
X2046897Y7495403D01*
X2048185Y7497013D01*
X2048829Y7497657D01*
X2053660Y7501844D01*
X2058491Y7504743D01*
X2063644Y7506997D01*
X2068153Y7508286D01*
X2072018Y7509252D01*
X2075239Y7509574D01*
X2076527Y7509896D01*
X2119685D01*
X2125804Y7509252D01*
D02*
G37*
G36*
X2483626D02*
X2485881Y7508286D01*
X2487491Y7507320D01*
X2487813Y7506675D01*
X2489424Y7504421D01*
X2490068Y7501844D01*
X2490390Y7499912D01*
Y7499590D01*
Y7499268D01*
X2490068Y7496691D01*
X2489101Y7494437D01*
X2488135Y7492826D01*
X2487813Y7492182D01*
X2485559Y7490250D01*
X2482982Y7489283D01*
X2481050Y7488961D01*
X2439180D01*
Y7313754D01*
X2438536Y7310534D01*
X2437570Y7307957D01*
X2436604Y7306669D01*
X2435960Y7306025D01*
X2433705Y7304736D01*
X2431128Y7304092D01*
X2429196Y7303770D01*
X2428552D01*
X2425975Y7304092D01*
X2423721Y7305058D01*
X2422110Y7306025D01*
X2421466Y7306347D01*
X2419534Y7308601D01*
X2418568Y7311178D01*
X2418246Y7313110D01*
Y7313432D01*
Y7313754D01*
Y7488961D01*
X2377342D01*
X2374122Y7489283D01*
X2371545Y7490572D01*
X2370257Y7491538D01*
X2369613Y7491860D01*
X2368002Y7494437D01*
X2367036Y7496691D01*
X2366714Y7498624D01*
Y7498946D01*
Y7499268D01*
X2367036Y7502166D01*
X2368002Y7504421D01*
X2368969Y7506031D01*
X2369291Y7506675D01*
X2371867Y7508608D01*
X2374444Y7509574D01*
X2376376Y7509896D01*
X2480083D01*
X2483626Y7509252D01*
D02*
G37*
G36*
X3060779Y7860534D02*
X3063034Y7859568D01*
X3064644Y7858602D01*
X3064966Y7857957D01*
X3066577Y7855703D01*
X3067221Y7853126D01*
X3067543Y7851194D01*
Y7850872D01*
Y7850550D01*
X3067221Y7847973D01*
X3066254Y7845719D01*
X3064966Y7844108D01*
X3064644Y7843464D01*
X3062390Y7841532D01*
X3060135Y7840565D01*
X3058203Y7840243D01*
X2985092D01*
Y7778406D01*
X3036624D01*
X3040167Y7778084D01*
X3042421Y7777117D01*
X3044032Y7775829D01*
X3044354Y7775507D01*
X3045964Y7773252D01*
X3046608Y7770676D01*
X3046930Y7768743D01*
Y7768421D01*
Y7768099D01*
X3046608Y7765201D01*
X3045642Y7762946D01*
X3044676Y7761658D01*
X3044354Y7761014D01*
X3042099Y7759403D01*
X3039522Y7758437D01*
X3037590Y7758115D01*
X2985092D01*
Y7675343D01*
X3057236D01*
X3060779Y7675020D01*
X3063034Y7674054D01*
X3064644Y7672766D01*
X3064966Y7672444D01*
X3066577Y7670189D01*
X3067221Y7667613D01*
X3067543Y7665680D01*
Y7665358D01*
Y7665036D01*
X3067221Y7662460D01*
X3066254Y7660205D01*
X3064966Y7658595D01*
X3064644Y7657951D01*
X3062390Y7656340D01*
X3060135Y7655374D01*
X3058203Y7655052D01*
X2974786D01*
X2971243Y7655374D01*
X2968667Y7656662D01*
X2966734Y7657951D01*
X2965446Y7659883D01*
X2964802Y7661493D01*
X2964480Y7663104D01*
X2964158Y7664070D01*
Y7664392D01*
Y7850550D01*
X2964480Y7854092D01*
X2965768Y7856669D01*
X2967378Y7858602D01*
X2969633Y7859890D01*
X2971565Y7860534D01*
X2973176Y7861178D01*
X3057236D01*
X3060779Y7860534D01*
D02*
G37*
G36*
X2688175Y458280D02*
X2690430Y457314D01*
X2691718Y456026D01*
X2692362Y455703D01*
X2694295Y453449D01*
X2695261Y450872D01*
X2695583Y448940D01*
Y448296D01*
Y447974D01*
Y293701D01*
X2694939Y287260D01*
X2693651Y281462D01*
X2691718Y276631D01*
X2689464Y272122D01*
X2687209Y268902D01*
X2685277Y266325D01*
X2683989Y264715D01*
X2683344Y264071D01*
X2678835Y260206D01*
X2674004Y257307D01*
X2669173Y255375D01*
X2664664Y254086D01*
X2660799Y253120D01*
X2657579Y252798D01*
X2656290Y252476D01*
X2613133D01*
X2607013Y253120D01*
X2601538Y254408D01*
X2596385Y256019D01*
X2592198Y258273D01*
X2588977Y260528D01*
X2586401Y262138D01*
X2584790Y263426D01*
X2584146Y264071D01*
X2579959Y268902D01*
X2577061Y273733D01*
X2574806Y278564D01*
X2573518Y283395D01*
X2572552Y287582D01*
X2572230Y290803D01*
X2571907Y292091D01*
Y293057D01*
Y293379D01*
Y293701D01*
Y447974D01*
X2572230Y451194D01*
X2573518Y453771D01*
X2574484Y455059D01*
X2574806Y455703D01*
X2577383Y457314D01*
X2579959Y458280D01*
X2581892Y458602D01*
X2582536D01*
X2585435Y458280D01*
X2587689Y457314D01*
X2588977Y456026D01*
X2589621Y455703D01*
X2591554Y453449D01*
X2592520Y450872D01*
X2592842Y448940D01*
Y448296D01*
Y447974D01*
Y293701D01*
X2593164Y290480D01*
X2593808Y287582D01*
X2594775Y285327D01*
X2595741Y283073D01*
X2596707Y281140D01*
X2597673Y279852D01*
X2598317Y279208D01*
X2598639Y278886D01*
X2600894Y276953D01*
X2603471Y275343D01*
X2605725Y274377D01*
X2607980Y273411D01*
X2610234Y273089D01*
X2611844Y272767D01*
X2654680D01*
X2657579Y273089D01*
X2660477Y273733D01*
X2662732Y274699D01*
X2664986Y275987D01*
X2666597Y276953D01*
X2667885Y277920D01*
X2668529Y278564D01*
X2668851Y278886D01*
X2670784Y281140D01*
X2672394Y283717D01*
X2673360Y286294D01*
X2674326Y288548D01*
X2674648Y290480D01*
X2674971Y292413D01*
Y293379D01*
Y293701D01*
Y447974D01*
X2675293Y451194D01*
X2676581Y453771D01*
X2677547Y455059D01*
X2677869Y455703D01*
X2680446Y457314D01*
X2682700Y458280D01*
X2684633Y458602D01*
X2685277D01*
X2688175Y458280D01*
D02*
G37*
G36*
X2091343Y7860856D02*
X2093597Y7859890D01*
X2094885Y7858602D01*
X2095529Y7858279D01*
X2097462Y7856025D01*
X2098428Y7853770D01*
X2098750Y7851838D01*
Y7851516D01*
Y7851194D01*
Y7849906D01*
Y7849583D01*
Y7849261D01*
Y7847973D01*
X2098428Y7847651D01*
Y7847329D01*
X2036590Y7664070D01*
X2035302Y7661171D01*
X2033692Y7658917D01*
X2032081Y7657307D01*
X2030471Y7656340D01*
X2029183Y7655696D01*
X2027894Y7655052D01*
X2026928D01*
X2024674Y7655374D01*
X2022419Y7656340D01*
X2020809Y7657951D01*
X2019520Y7659561D01*
X2018232Y7661171D01*
X2017588Y7662782D01*
X2017266Y7663748D01*
X2016944Y7664070D01*
X1955106Y7847329D01*
X1954784Y7848617D01*
X1954462Y7849261D01*
Y7850550D01*
Y7851194D01*
X1955106Y7854092D01*
X1956072Y7856347D01*
X1957039Y7857635D01*
X1957683Y7858279D01*
X1960259Y7859890D01*
X1962836Y7860856D01*
X1964446Y7861178D01*
X1966701D01*
X1967989Y7860856D01*
X1969277Y7860534D01*
X1969599Y7860212D01*
X1972176Y7858279D01*
X1973786Y7856347D01*
X1974430Y7854415D01*
X1974752Y7854092D01*
Y7853770D01*
X2026928Y7699498D01*
X2079104Y7853770D01*
X2080070Y7856025D01*
X2081358Y7857957D01*
X2082325Y7858924D01*
X2082647Y7859246D01*
X2084579Y7860534D01*
X2086511Y7860856D01*
X2087800Y7861178D01*
X2088444D01*
X2091343Y7860856D01*
D02*
G37*
G36*
X2318081Y7509574D02*
X2320336Y7508608D01*
X2321624Y7507320D01*
X2322268Y7506997D01*
X2324201Y7504743D01*
X2325167Y7502166D01*
X2325489Y7500234D01*
Y7499590D01*
Y7499268D01*
Y7344995D01*
X2324845Y7338554D01*
X2323556Y7332756D01*
X2321624Y7327925D01*
X2319370Y7323416D01*
X2317115Y7320196D01*
X2315183Y7317619D01*
X2313894Y7316009D01*
X2313250Y7315365D01*
X2308741Y7311500D01*
X2303910Y7308601D01*
X2299079Y7306669D01*
X2294570Y7305380D01*
X2290705Y7304414D01*
X2287484Y7304092D01*
X2286196Y7303770D01*
X2243038D01*
X2236919Y7304414D01*
X2231444Y7305702D01*
X2226291Y7307313D01*
X2222104Y7309567D01*
X2218883Y7311822D01*
X2216306Y7313432D01*
X2214696Y7314720D01*
X2214052Y7315365D01*
X2209865Y7320196D01*
X2206966Y7325027D01*
X2204712Y7329858D01*
X2203424Y7334689D01*
X2202457Y7338876D01*
X2202135Y7342097D01*
X2201813Y7343385D01*
Y7344351D01*
Y7344673D01*
Y7344995D01*
Y7499268D01*
X2202135Y7502488D01*
X2203424Y7505065D01*
X2204390Y7506353D01*
X2204712Y7506997D01*
X2207288Y7508608D01*
X2209865Y7509574D01*
X2211797Y7509896D01*
X2212442D01*
X2215340Y7509574D01*
X2217595Y7508608D01*
X2218883Y7507320D01*
X2219527Y7506997D01*
X2221460Y7504743D01*
X2222426Y7502166D01*
X2222748Y7500234D01*
Y7499590D01*
Y7499268D01*
Y7344995D01*
X2223070Y7341774D01*
X2223714Y7338876D01*
X2224680Y7336621D01*
X2225647Y7334367D01*
X2226613Y7332434D01*
X2227579Y7331146D01*
X2228223Y7330502D01*
X2228545Y7330180D01*
X2230800Y7328247D01*
X2233376Y7326637D01*
X2235631Y7325671D01*
X2237885Y7324705D01*
X2240140Y7324383D01*
X2241750Y7324061D01*
X2284586D01*
X2287484Y7324383D01*
X2290383Y7325027D01*
X2292638Y7325993D01*
X2294892Y7327281D01*
X2296502Y7328247D01*
X2297791Y7329214D01*
X2298435Y7329858D01*
X2298757Y7330180D01*
X2300689Y7332434D01*
X2302300Y7335011D01*
X2303266Y7337588D01*
X2304232Y7339842D01*
X2304554Y7341774D01*
X2304876Y7343707D01*
Y7344673D01*
Y7344995D01*
Y7499268D01*
X2305198Y7502488D01*
X2306487Y7505065D01*
X2307453Y7506353D01*
X2307775Y7506997D01*
X2310351Y7508608D01*
X2312606Y7509574D01*
X2314538Y7509896D01*
X2315183D01*
X2318081Y7509574D01*
D02*
G37*
G36*
X2812784D02*
X2815038Y7508608D01*
X2816327Y7507320D01*
X2816971Y7506997D01*
X2818903Y7504743D01*
X2819869Y7502166D01*
X2820191Y7500234D01*
Y7499590D01*
Y7499268D01*
Y7344995D01*
X2819547Y7338554D01*
X2818259Y7332756D01*
X2816327Y7327925D01*
X2814072Y7323416D01*
X2811818Y7320196D01*
X2809885Y7317619D01*
X2808597Y7316009D01*
X2807953Y7315365D01*
X2803444Y7311500D01*
X2798613Y7308601D01*
X2793782Y7306669D01*
X2789273Y7305380D01*
X2785408Y7304414D01*
X2782187Y7304092D01*
X2780899Y7303770D01*
X2737741D01*
X2731622Y7304414D01*
X2726146Y7305702D01*
X2720993Y7307313D01*
X2716806Y7309567D01*
X2713586Y7311822D01*
X2711009Y7313432D01*
X2709399Y7314720D01*
X2708755Y7315365D01*
X2704568Y7320196D01*
X2701669Y7325027D01*
X2699414Y7329858D01*
X2698126Y7334689D01*
X2697160Y7338876D01*
X2696838Y7342097D01*
X2696516Y7343385D01*
Y7344351D01*
Y7344673D01*
Y7344995D01*
Y7499268D01*
X2696838Y7502488D01*
X2698126Y7505065D01*
X2699092Y7506353D01*
X2699414Y7506997D01*
X2701991Y7508608D01*
X2704568Y7509574D01*
X2706500Y7509896D01*
X2707144D01*
X2710043Y7509574D01*
X2712297Y7508608D01*
X2713586Y7507320D01*
X2714230Y7506997D01*
X2716162Y7504743D01*
X2717128Y7502166D01*
X2717450Y7500234D01*
Y7499590D01*
Y7499268D01*
Y7344995D01*
X2717773Y7341774D01*
X2718417Y7338876D01*
X2719383Y7336621D01*
X2720349Y7334367D01*
X2721315Y7332434D01*
X2722282Y7331146D01*
X2722926Y7330502D01*
X2723248Y7330180D01*
X2725502Y7328247D01*
X2728079Y7326637D01*
X2730333Y7325671D01*
X2732588Y7324705D01*
X2734842Y7324383D01*
X2736453Y7324061D01*
X2779288D01*
X2782187Y7324383D01*
X2785086Y7325027D01*
X2787340Y7325993D01*
X2789595Y7327281D01*
X2791205Y7328247D01*
X2792493Y7329214D01*
X2793137Y7329858D01*
X2793459Y7330180D01*
X2795392Y7332434D01*
X2797002Y7335011D01*
X2797968Y7337588D01*
X2798935Y7339842D01*
X2799257Y7341774D01*
X2799579Y7343707D01*
Y7344673D01*
Y7344995D01*
Y7499268D01*
X2799901Y7502488D01*
X2801189Y7505065D01*
X2802155Y7506353D01*
X2802478Y7506997D01*
X2805054Y7508608D01*
X2807309Y7509574D01*
X2809241Y7509896D01*
X2809885D01*
X2812784Y7509574D01*
D02*
G37*
G36*
X2193795Y458280D02*
X2196049Y457314D01*
X2197338Y456026D01*
X2197982Y455703D01*
X2199914Y453449D01*
X2200881Y450872D01*
X2201203Y448940D01*
Y448296D01*
Y447974D01*
Y262460D01*
X2200881Y259240D01*
X2199914Y256663D01*
X2198626Y255375D01*
X2198304Y254731D01*
X2196049Y253442D01*
X2193473Y252798D01*
X2191540Y252476D01*
X2190896D01*
X2187998Y252798D01*
X2185743Y253764D01*
X2184133Y254731D01*
X2183489Y255053D01*
X2181556Y257307D01*
X2180590Y259884D01*
X2180268Y261816D01*
Y262138D01*
Y262460D01*
Y447974D01*
X2180590Y451194D01*
X2181878Y453771D01*
X2182845Y455059D01*
X2183167Y455703D01*
X2185743Y457314D01*
X2188320Y458280D01*
X2190252Y458602D01*
X2190896D01*
X2193795Y458280D01*
D02*
G37*
G36*
X2620507Y7509252D02*
X2625982Y7507964D01*
X2630813Y7506031D01*
X2635000Y7503777D01*
X2638543Y7501522D01*
X2641119Y7499590D01*
X2642408Y7498301D01*
X2643052Y7497657D01*
X2647239Y7492826D01*
X2650137Y7487995D01*
X2652392Y7483164D01*
X2653680Y7478655D01*
X2654646Y7474468D01*
X2654969Y7471247D01*
X2655291Y7469959D01*
Y7468993D01*
Y7468671D01*
Y7468349D01*
Y7427124D01*
X2654646Y7421004D01*
X2653358Y7415207D01*
X2651426Y7410376D01*
X2649171Y7406189D01*
X2646917Y7402646D01*
X2644984Y7400070D01*
X2643696Y7398459D01*
X2643052Y7397815D01*
X2638543Y7393950D01*
X2633712Y7391052D01*
X2628881Y7388797D01*
X2624372Y7387509D01*
X2620507Y7386543D01*
X2617286Y7386220D01*
X2615998Y7385898D01*
X2552550D01*
Y7313754D01*
X2552228Y7310534D01*
X2551261Y7307957D01*
X2549973Y7306669D01*
X2549651Y7306025D01*
X2547396Y7304736D01*
X2544820Y7304092D01*
X2542887Y7303770D01*
X2542243D01*
X2539345Y7304092D01*
X2537090Y7305058D01*
X2535480Y7306025D01*
X2534836Y7306347D01*
X2532903Y7308601D01*
X2531937Y7311178D01*
X2531615Y7313110D01*
Y7313432D01*
Y7313754D01*
Y7499268D01*
X2531937Y7502810D01*
X2533225Y7505387D01*
X2534836Y7507320D01*
X2537090Y7508608D01*
X2539023Y7509252D01*
X2540633Y7509896D01*
X2614387D01*
X2620507Y7509252D01*
D02*
G37*
G36*
X2978329D02*
X2980583Y7508286D01*
X2982194Y7507320D01*
X2982516Y7506675D01*
X2984126Y7504421D01*
X2984770Y7501844D01*
X2985092Y7499912D01*
Y7499590D01*
Y7499268D01*
X2984770Y7496691D01*
X2983804Y7494437D01*
X2982838Y7492826D01*
X2982516Y7492182D01*
X2980261Y7490250D01*
X2977685Y7489283D01*
X2975752Y7488961D01*
X2933883D01*
Y7313754D01*
X2933239Y7310534D01*
X2932273Y7307957D01*
X2931306Y7306669D01*
X2930662Y7306025D01*
X2928408Y7304736D01*
X2925831Y7304092D01*
X2923899Y7303770D01*
X2923255D01*
X2920678Y7304092D01*
X2918423Y7305058D01*
X2916813Y7306025D01*
X2916169Y7306347D01*
X2914236Y7308601D01*
X2913270Y7311178D01*
X2912948Y7313110D01*
Y7313432D01*
Y7313754D01*
Y7488961D01*
X2872045D01*
X2868824Y7489283D01*
X2866248Y7490572D01*
X2864959Y7491538D01*
X2864315Y7491860D01*
X2862705Y7494437D01*
X2861739Y7496691D01*
X2861417Y7498624D01*
Y7498946D01*
Y7499268D01*
X2861739Y7502166D01*
X2862705Y7504421D01*
X2863671Y7506031D01*
X2863993Y7506675D01*
X2866570Y7508608D01*
X2869146Y7509574D01*
X2871079Y7509896D01*
X2974786D01*
X2978329Y7509252D01*
D02*
G37*
G36*
X2495898Y457958D02*
X2501374Y456670D01*
X2506205Y454737D01*
X2510392Y452483D01*
X2513935Y450228D01*
X2516511Y448296D01*
X2517799Y447007D01*
X2518444Y446363D01*
X2522630Y441532D01*
X2525529Y436701D01*
X2527784Y431870D01*
X2529072Y427361D01*
X2530038Y423174D01*
X2530360Y419953D01*
X2530682Y418665D01*
Y417699D01*
Y417377D01*
Y417055D01*
Y375830D01*
X2530038Y369710D01*
X2528750Y363913D01*
X2526817Y359082D01*
X2524563Y354895D01*
X2522308Y351352D01*
X2520376Y348776D01*
X2519088Y347165D01*
X2518444Y346521D01*
X2513935Y342656D01*
X2509103Y339758D01*
X2504272Y337503D01*
X2499763Y336215D01*
X2495898Y335249D01*
X2492678Y334926D01*
X2491389Y334604D01*
X2427941D01*
Y262460D01*
X2427619Y259240D01*
X2426653Y256663D01*
X2425365Y255375D01*
X2425043Y254731D01*
X2422788Y253442D01*
X2420212Y252798D01*
X2418279Y252476D01*
X2417635D01*
X2414736Y252798D01*
X2412482Y253764D01*
X2410871Y254731D01*
X2410227Y255053D01*
X2408295Y257307D01*
X2407329Y259884D01*
X2407007Y261816D01*
Y262138D01*
Y262460D01*
Y447974D01*
X2407329Y451516D01*
X2408617Y454093D01*
X2410227Y456026D01*
X2412482Y457314D01*
X2414414Y457958D01*
X2416025Y458602D01*
X2489779D01*
X2495898Y457958D01*
D02*
G37*
G36*
X2916169Y7860534D02*
X2918423Y7859568D01*
X2920034Y7858602D01*
X2920356Y7857957D01*
X2921966Y7855703D01*
X2922610Y7853126D01*
X2922932Y7851194D01*
Y7850872D01*
Y7850550D01*
X2922610Y7847973D01*
X2921644Y7845719D01*
X2920678Y7844108D01*
X2920356Y7843464D01*
X2918101Y7841532D01*
X2915525Y7840565D01*
X2913592Y7840243D01*
X2840482D01*
X2837261Y7839921D01*
X2834685Y7839277D01*
X2832108Y7838311D01*
X2829854Y7837345D01*
X2828243Y7836379D01*
X2826955Y7835412D01*
X2826311Y7834768D01*
X2825989Y7834446D01*
X2824056Y7832192D01*
X2822768Y7829615D01*
X2821480Y7827361D01*
X2820836Y7824784D01*
X2820514Y7822852D01*
X2820191Y7821241D01*
Y7819953D01*
Y7819631D01*
Y7696277D01*
X2820514Y7693056D01*
X2821158Y7690158D01*
X2822124Y7687903D01*
X2823090Y7685649D01*
X2824056Y7683716D01*
X2825023Y7682428D01*
X2825667Y7681784D01*
X2825989Y7681462D01*
X2828243Y7679529D01*
X2830820Y7677919D01*
X2833074Y7676953D01*
X2835329Y7675987D01*
X2837583Y7675665D01*
X2839194Y7675343D01*
X2902320D01*
Y7758115D01*
X2892014D01*
X2888793Y7758437D01*
X2886538Y7759725D01*
X2885250Y7760692D01*
X2884606Y7761014D01*
X2882996Y7763268D01*
X2882351Y7765523D01*
X2882029Y7767455D01*
Y7767777D01*
Y7768099D01*
X2882351Y7771320D01*
X2883318Y7773574D01*
X2884284Y7774863D01*
X2884606Y7775507D01*
X2886860Y7777117D01*
X2889437Y7778084D01*
X2891369Y7778406D01*
X2912626D01*
X2916169Y7778084D01*
X2918745Y7776795D01*
X2920356Y7775185D01*
X2921644Y7773252D01*
X2922288Y7771320D01*
X2922932Y7769710D01*
Y7768421D01*
Y7768099D01*
Y7665036D01*
X2922610Y7661816D01*
X2921322Y7659239D01*
X2919712Y7657629D01*
X2917779Y7656340D01*
X2915847Y7655696D01*
X2914236Y7655374D01*
X2912948Y7655052D01*
X2840482D01*
X2834363Y7655696D01*
X2828887Y7656984D01*
X2823734Y7658595D01*
X2819547Y7660849D01*
X2816327Y7663104D01*
X2813750Y7664714D01*
X2812140Y7666002D01*
X2811496Y7666647D01*
X2807309Y7671478D01*
X2804410Y7676309D01*
X2802155Y7681140D01*
X2800867Y7685971D01*
X2799901Y7690158D01*
X2799579Y7693379D01*
X2799257Y7694667D01*
Y7695633D01*
Y7695955D01*
Y7696277D01*
Y7819631D01*
X2799901Y7825750D01*
X2801189Y7831547D01*
X2803122Y7836701D01*
X2805376Y7840888D01*
X2807309Y7844108D01*
X2809241Y7846685D01*
X2810529Y7848295D01*
X2811173Y7848939D01*
X2816005Y7853126D01*
X2820836Y7856025D01*
X2825989Y7858279D01*
X2830498Y7859568D01*
X2834363Y7860534D01*
X2837583Y7860856D01*
X2838872Y7861178D01*
X2912626D01*
X2916169Y7860534D01*
D02*
G37*
G36*
X2618099Y5121329D02*
X2624250Y5119279D01*
X2628351Y5116545D01*
X2629035Y5115861D01*
X2629718Y5115178D01*
X2632452Y5112444D01*
X2635187Y5109026D01*
X2637237Y5102874D01*
X2637921Y5100140D01*
X2638604Y5097406D01*
Y5096039D01*
Y5095356D01*
Y4838355D01*
X2637237Y4829469D01*
X2634503Y4822634D01*
X2629718Y4817849D01*
X2624934Y4814432D01*
X2619466Y4812381D01*
X2614681Y4811698D01*
X2611947Y4811014D01*
X2503268D01*
X2496433Y4811698D01*
X2489598Y4812381D01*
X2476611Y4815799D01*
X2464992Y4820583D01*
X2455422Y4826051D01*
X2447220Y4830836D01*
X2441069Y4835621D01*
X2437651Y4839038D01*
X2436967Y4840405D01*
X2436284D01*
X2428082Y4849974D01*
X2421930Y4860227D01*
X2417146Y4870480D01*
X2414411Y4880049D01*
X2412361Y4888935D01*
X2411677Y4896453D01*
X2410994Y4899187D01*
Y4901238D01*
Y4901921D01*
Y4902605D01*
Y5095356D01*
X2411677Y5100140D01*
X2412361Y5104242D01*
X2415095Y5110393D01*
X2417829Y5113811D01*
X2419196Y5115178D01*
X2422614Y5117912D01*
X2426031Y5119279D01*
X2432183Y5122013D01*
X2434917D01*
X2436967Y5122696D01*
X2439018D01*
X2446537Y5121329D01*
X2452688Y5119279D01*
X2456789Y5117228D01*
X2457473Y5115861D01*
X2458156D01*
X2460890Y5113127D01*
X2463624Y5109710D01*
X2465675Y5102874D01*
X2466359Y5100140D01*
X2467042Y5097406D01*
Y5096039D01*
Y5095356D01*
Y4902605D01*
X2467726Y4897137D01*
X2468409Y4891669D01*
X2470460Y4887568D01*
X2472510Y4883466D01*
X2473877Y4880049D01*
X2475928Y4877998D01*
X2476611Y4876631D01*
X2477295Y4875948D01*
X2481396Y4872530D01*
X2485497Y4869796D01*
X2490282Y4868429D01*
X2494383Y4867062D01*
X2497800Y4866379D01*
X2500534Y4865695D01*
X2582556D01*
Y5095356D01*
X2583239Y5100140D01*
X2583923Y5104242D01*
X2586657Y5110393D01*
X2589391Y5113811D01*
X2590758Y5115178D01*
X2594176Y5117912D01*
X2597593Y5119279D01*
X2603745Y5122013D01*
X2606479D01*
X2608529Y5122696D01*
X2614681D01*
X2618099Y5121329D01*
D02*
G37*
G36*
X2840924Y5122013D02*
X2849810Y5119962D01*
X2853227Y5119279D01*
X2855962Y5117912D01*
X2857329Y5117228D01*
X2858012D01*
X2867581Y5112444D01*
X2875100Y5107659D01*
X2877834Y5105609D01*
X2879885Y5103558D01*
X2880568Y5102874D01*
X2881252Y5102191D01*
X2887403Y5094672D01*
X2892188Y5087154D01*
X2894238Y5084420D01*
X2895605Y5081686D01*
X2896289Y5080319D01*
Y5079635D01*
X2899706Y5070066D01*
X2901073Y5061180D01*
X2901757Y5057763D01*
Y5055028D01*
Y5053661D01*
Y5052978D01*
Y5048193D01*
X2900390Y5044092D01*
X2897656Y5037257D01*
X2894922Y5033156D01*
X2894238Y5032473D01*
X2893555Y5031789D01*
X2887403Y5027688D01*
X2880568Y5025637D01*
X2877834D01*
X2875783Y5024954D01*
X2873733D01*
X2869632Y5025637D01*
X2866214Y5026321D01*
X2860063Y5029055D01*
X2855278Y5031106D01*
X2854594Y5032473D01*
X2853911D01*
X2851177Y5035207D01*
X2849126Y5038624D01*
X2847076Y5045459D01*
X2846392Y5048193D01*
X2845709Y5050927D01*
Y5052294D01*
Y5052978D01*
X2845025Y5057079D01*
X2843658Y5060497D01*
X2842291Y5062547D01*
X2841608Y5063231D01*
X2838190Y5065965D01*
X2834773Y5067332D01*
X2832039Y5068015D01*
X2773256D01*
Y4838355D01*
Y4833570D01*
X2771889Y4829469D01*
X2769155Y4823317D01*
X2766421Y4819216D01*
X2765738Y4818533D01*
X2765054Y4817849D01*
X2758903Y4813748D01*
X2752067Y4811698D01*
X2749333D01*
X2747283Y4811014D01*
X2745232D01*
X2737714Y4812381D01*
X2731562Y4814432D01*
X2726777Y4816482D01*
X2726094Y4817849D01*
X2725410D01*
X2722676Y4820583D01*
X2720626Y4824001D01*
X2718575Y4830836D01*
X2717892Y4833570D01*
X2717208Y4836304D01*
Y4837671D01*
Y4838355D01*
Y5095356D01*
X2718575Y5104242D01*
X2721309Y5111077D01*
X2726094Y5115861D01*
X2731562Y5119279D01*
X2736347Y5121329D01*
X2741131Y5122013D01*
X2743865Y5122696D01*
X2830672D01*
X2840924Y5122013D01*
D02*
G37*
G36*
X1396659Y5250514D02*
X1402811Y5247779D01*
X1406912Y5245045D01*
X1407595Y5244362D01*
X1408279Y5243678D01*
X1411013Y5240261D01*
X1413063Y5236843D01*
X1415798Y5230692D01*
Y5227958D01*
X1416481Y5225907D01*
Y5224540D01*
Y5223856D01*
Y5219755D01*
X1415114Y5216338D01*
X1412380Y5210186D01*
X1409646Y5206085D01*
X1408962Y5205402D01*
X1408279Y5204718D01*
X1404861Y5201984D01*
X1401444Y5199933D01*
X1395292Y5197883D01*
X1392558Y5197199D01*
X1390508Y5196516D01*
X1388457D01*
X1384356Y5197199D01*
X1380255Y5197883D01*
X1373420Y5200617D01*
X1369319Y5203351D01*
X1368635Y5204718D01*
X1367952D01*
X1365217Y5208136D01*
X1363850Y5210870D01*
X1361116Y5217705D01*
Y5219755D01*
X1360433Y5221806D01*
Y5223173D01*
Y5223856D01*
X1361116Y5227958D01*
X1361800Y5232059D01*
X1364534Y5238210D01*
X1366585Y5242311D01*
X1367952Y5243678D01*
X1371369Y5246412D01*
X1374787Y5248463D01*
X1381622Y5251197D01*
X1384356D01*
X1386406Y5251881D01*
X1392558D01*
X1396659Y5250514D01*
D02*
G37*
G36*
X3104077Y5122013D02*
X3112963Y5119962D01*
X3116380Y5119279D01*
X3119114Y5117912D01*
X3120481Y5117228D01*
X3121165D01*
X3130734Y5112444D01*
X3138253Y5107659D01*
X3140987Y5105609D01*
X3143037Y5103558D01*
X3143721Y5102874D01*
X3144404Y5102191D01*
X3150556Y5094672D01*
X3155341Y5087154D01*
X3157391Y5084420D01*
X3158758Y5081686D01*
X3159442Y5080319D01*
Y5079635D01*
X3162859Y5070066D01*
X3164226Y5061180D01*
X3164910Y5057763D01*
Y5055028D01*
Y5053661D01*
Y5052978D01*
Y5048193D01*
X3163543Y5044092D01*
X3160809Y5037257D01*
X3158075Y5033156D01*
X3157391Y5032473D01*
X3156708Y5031789D01*
X3150556Y5027688D01*
X3143721Y5025637D01*
X3140987D01*
X3138936Y5024954D01*
X3136886D01*
X3132785Y5025637D01*
X3129367Y5026321D01*
X3123215Y5029055D01*
X3118431Y5031106D01*
X3117747Y5032473D01*
X3117064D01*
X3114330Y5035207D01*
X3112279Y5038624D01*
X3110229Y5045459D01*
X3109545Y5048193D01*
X3108862Y5050927D01*
Y5052294D01*
Y5052978D01*
X3108178Y5057079D01*
X3106811Y5060497D01*
X3105444Y5062547D01*
X3104761Y5063231D01*
X3101343Y5065965D01*
X3097925Y5067332D01*
X3095191Y5068015D01*
X3036409D01*
Y4838355D01*
Y4833570D01*
X3035042Y4829469D01*
X3032308Y4823317D01*
X3029574Y4819216D01*
X3028891Y4818533D01*
X3028207Y4817849D01*
X3022055Y4813748D01*
X3015220Y4811698D01*
X3012486D01*
X3010436Y4811014D01*
X3008385D01*
X3000866Y4812381D01*
X2994715Y4814432D01*
X2989930Y4816482D01*
X2989247Y4817849D01*
X2988563D01*
X2985829Y4820583D01*
X2983779Y4824001D01*
X2981728Y4830836D01*
X2981045Y4833570D01*
X2980361Y4836304D01*
Y4837671D01*
Y4838355D01*
Y5095356D01*
X2981728Y5104242D01*
X2984462Y5111077D01*
X2989247Y5115861D01*
X2994715Y5119279D01*
X2999499Y5121329D01*
X3004284Y5122013D01*
X3007018Y5122696D01*
X3093824D01*
X3104077Y5122013D01*
D02*
G37*
G36*
X2000886D02*
X2007721Y5119962D01*
X2011822Y5117228D01*
X2012505Y5116545D01*
X2013189Y5115861D01*
X2015923Y5113127D01*
X2018657Y5109710D01*
X2020707Y5103558D01*
X2021391Y5100824D01*
X2022074Y5098773D01*
Y5097406D01*
Y5096723D01*
Y5093989D01*
X2021391Y5090571D01*
X2020707Y5088521D01*
Y5087154D01*
X1909295Y4732410D01*
X1906561Y4724891D01*
X1903143Y4717373D01*
X1899042Y4711904D01*
X1895624Y4706436D01*
X1891523Y4702335D01*
X1888106Y4699601D01*
X1886055Y4697551D01*
X1885372Y4696867D01*
X1878537Y4692083D01*
X1871701Y4688665D01*
X1864183Y4685931D01*
X1858031Y4684564D01*
X1851879Y4683197D01*
X1847778Y4682513D01*
X1822488D01*
X1817704Y4683197D01*
X1813603Y4683880D01*
X1807451Y4686614D01*
X1803350Y4689349D01*
X1802666Y4690716D01*
X1801983D01*
X1799249Y4694133D01*
X1797882Y4697551D01*
X1795148Y4703702D01*
Y4706436D01*
X1794464Y4708487D01*
Y4709854D01*
Y4710537D01*
X1795831Y4718056D01*
X1797882Y4724208D01*
X1799932Y4728309D01*
X1801299Y4728992D01*
Y4729676D01*
X1804717Y4732410D01*
X1808135Y4734460D01*
X1814970Y4737194D01*
X1817704D01*
X1820438Y4737878D01*
X1842994D01*
X1846411Y4738562D01*
X1849145Y4739245D01*
X1852563Y4742663D01*
X1854614Y4746080D01*
X1855297Y4746764D01*
Y4747447D01*
X1878537Y4818533D01*
X1795148Y5087837D01*
X1794464Y5091255D01*
Y5094672D01*
Y5096039D01*
Y5096723D01*
X1795148Y5100824D01*
X1795831Y5104925D01*
X1798565Y5111077D01*
X1801299Y5114494D01*
X1802666Y5115861D01*
X1806084Y5118595D01*
X1809502Y5119962D01*
X1815653Y5122696D01*
X1818387D01*
X1820438Y5123380D01*
X1822488D01*
X1829323Y5122696D01*
X1835475Y5119962D01*
X1839576Y5117228D01*
X1843677Y5113127D01*
X1846411Y5109710D01*
X1848462Y5106292D01*
X1849829Y5103558D01*
Y5102874D01*
X1907244Y4897820D01*
X1967393Y5106976D01*
X1970127Y5112444D01*
X1973545Y5116545D01*
X1977646Y5119279D01*
X1982431Y5121329D01*
X1985848Y5122696D01*
X1989266Y5123380D01*
X1996784D01*
X2000886Y5122013D01*
D02*
G37*
G36*
X3846782Y7502045D02*
X3690000D01*
Y7553459D01*
X3846782D01*
Y7502045D01*
D02*
G37*
G36*
X2358374Y458280D02*
X2360628Y457314D01*
X2361917Y456026D01*
X2362561Y455703D01*
X2364493Y453449D01*
X2365459Y450872D01*
X2365781Y448940D01*
Y448296D01*
Y447974D01*
Y263749D01*
X2365459Y260206D01*
X2364493Y257629D01*
X2363205Y256019D01*
X2362883Y255375D01*
X2360628Y253764D01*
X2358374Y252798D01*
X2356763Y252476D01*
X2356119D01*
X2353865Y252798D01*
X2351932Y253442D01*
X2349034Y255697D01*
X2347101Y257629D01*
X2346779Y258273D01*
X2346457Y258595D01*
X2263040Y407071D01*
Y262460D01*
X2262718Y259240D01*
X2261752Y256663D01*
X2260464Y255375D01*
X2260142Y254731D01*
X2257887Y253442D01*
X2255311Y252798D01*
X2253378Y252476D01*
X2252734D01*
X2249835Y252798D01*
X2247581Y253764D01*
X2245971Y254731D01*
X2245326Y255053D01*
X2243394Y257307D01*
X2242428Y259884D01*
X2242106Y261816D01*
Y262138D01*
Y262460D01*
Y447007D01*
X2242428Y450550D01*
X2243716Y453127D01*
X2244682Y454737D01*
X2245004Y455381D01*
X2247259Y457314D01*
X2249513Y458280D01*
X2251124Y458602D01*
X2251768D01*
X2254022Y458280D01*
X2255955Y457636D01*
X2259176Y455381D01*
X2260142Y454093D01*
X2261108Y452805D01*
X2261430Y452161D01*
X2261752Y451839D01*
X2344847Y303685D01*
Y447974D01*
X2345169Y451194D01*
X2346457Y453771D01*
X2347423Y455059D01*
X2347745Y455703D01*
X2350322Y457314D01*
X2352899Y458280D01*
X2354831Y458602D01*
X2355475D01*
X2358374Y458280D01*
D02*
G37*
G36*
X2689752Y7862466D02*
X2691685Y7861500D01*
X2693295Y7859890D01*
X2694583Y7858602D01*
X2695550Y7856991D01*
X2696194Y7855381D01*
X2696838Y7854415D01*
Y7854092D01*
X2758998Y7668901D01*
X2759320Y7667291D01*
X2759642Y7666002D01*
Y7665036D01*
Y7664714D01*
X2758998Y7661816D01*
X2758032Y7659561D01*
X2757065Y7658273D01*
X2756421Y7657629D01*
X2753845Y7656018D01*
X2751590Y7655374D01*
X2749658Y7655052D01*
X2747725D01*
X2746437Y7655374D01*
X2745149Y7655696D01*
X2744505D01*
X2741928Y7657629D01*
X2740640Y7659561D01*
X2739673Y7661493D01*
X2739351Y7661816D01*
Y7662138D01*
X2724858Y7706584D01*
X2649815D01*
X2635322Y7662138D01*
X2634356Y7659883D01*
X2632746Y7657951D01*
X2631135Y7656662D01*
X2629525Y7656018D01*
X2628237Y7655374D01*
X2626948Y7655052D01*
X2625660D01*
X2622761Y7655374D01*
X2620507Y7656340D01*
X2618896Y7657307D01*
X2618252Y7657629D01*
X2616320Y7659883D01*
X2615354Y7662138D01*
X2615032Y7664070D01*
Y7664392D01*
Y7664714D01*
X2615354Y7666325D01*
X2615676Y7667613D01*
X2615998Y7668579D01*
Y7668901D01*
X2677836Y7854092D01*
X2679124Y7856991D01*
X2680734Y7859246D01*
X2682345Y7860534D01*
X2683955Y7861822D01*
X2685243Y7862466D01*
X2686532Y7862788D01*
X2687498D01*
X2689752Y7862466D01*
D02*
G37*
G36*
X2565755Y7860534D02*
X2568009Y7859568D01*
X2569619Y7858602D01*
X2569942Y7857957D01*
X2571552Y7855703D01*
X2572196Y7853126D01*
X2572518Y7851194D01*
Y7850872D01*
Y7850550D01*
X2572196Y7847973D01*
X2571230Y7845719D01*
X2570264Y7844108D01*
X2569942Y7843464D01*
X2567687Y7841532D01*
X2565110Y7840565D01*
X2563178Y7840243D01*
X2521309D01*
Y7665036D01*
X2520665Y7661816D01*
X2519698Y7659239D01*
X2518732Y7657951D01*
X2518088Y7657307D01*
X2515833Y7656018D01*
X2513257Y7655374D01*
X2511324Y7655052D01*
X2510680D01*
X2508104Y7655374D01*
X2505849Y7656340D01*
X2504239Y7657307D01*
X2503595Y7657629D01*
X2501662Y7659883D01*
X2500696Y7662460D01*
X2500374Y7664392D01*
Y7664714D01*
Y7665036D01*
Y7840243D01*
X2459471D01*
X2456250Y7840565D01*
X2453674Y7841854D01*
X2452385Y7842820D01*
X2451741Y7843142D01*
X2450131Y7845719D01*
X2449165Y7847973D01*
X2448842Y7849906D01*
Y7850228D01*
Y7850550D01*
X2449165Y7853448D01*
X2450131Y7855703D01*
X2451097Y7857313D01*
X2451419Y7857957D01*
X2453996Y7859890D01*
X2456572Y7860856D01*
X2458505Y7861178D01*
X2562212D01*
X2565755Y7860534D01*
D02*
G37*
G36*
X2228867D02*
X2234342Y7859246D01*
X2239174Y7857313D01*
X2243361Y7855059D01*
X2246903Y7852804D01*
X2249480Y7850872D01*
X2250768Y7849583D01*
X2251412Y7848939D01*
X2255599Y7844108D01*
X2258498Y7839277D01*
X2260752Y7834446D01*
X2262041Y7829937D01*
X2263007Y7825750D01*
X2263329Y7822529D01*
X2263651Y7821241D01*
Y7820275D01*
Y7819953D01*
Y7819631D01*
Y7696277D01*
X2263007Y7689836D01*
X2261719Y7684038D01*
X2259786Y7679207D01*
X2257532Y7674698D01*
X2255277Y7671478D01*
X2253345Y7668901D01*
X2252056Y7667291D01*
X2251412Y7666647D01*
X2246903Y7662782D01*
X2242072Y7659883D01*
X2237241Y7657951D01*
X2232732Y7656662D01*
X2228867Y7655696D01*
X2225647Y7655374D01*
X2224358Y7655052D01*
X2181201D01*
X2175081Y7655696D01*
X2169606Y7656984D01*
X2164453Y7658595D01*
X2160266Y7660849D01*
X2157045Y7663104D01*
X2154469Y7664714D01*
X2152858Y7666002D01*
X2152214Y7666647D01*
X2148027Y7671478D01*
X2145129Y7676309D01*
X2142874Y7681140D01*
X2141586Y7685971D01*
X2140620Y7690158D01*
X2140297Y7693379D01*
X2139975Y7694667D01*
Y7695633D01*
Y7695955D01*
Y7696277D01*
Y7819631D01*
X2140620Y7825750D01*
X2141908Y7831547D01*
X2143840Y7836701D01*
X2146095Y7840888D01*
X2148027Y7844108D01*
X2149960Y7846685D01*
X2151248Y7848295D01*
X2151892Y7848939D01*
X2156723Y7853126D01*
X2161554Y7856025D01*
X2166707Y7858279D01*
X2171216Y7859568D01*
X2175081Y7860534D01*
X2178302Y7860856D01*
X2179590Y7861178D01*
X2222748D01*
X2228867Y7860534D01*
D02*
G37*
G36*
X2318403Y7860856D02*
X2320658Y7859890D01*
X2321946Y7858602D01*
X2322590Y7858279D01*
X2324523Y7856025D01*
X2325489Y7853448D01*
X2325811Y7851516D01*
Y7850872D01*
Y7850550D01*
Y7675343D01*
X2397633D01*
X2401176Y7675020D01*
X2403430Y7674054D01*
X2405041Y7672766D01*
X2405363Y7672444D01*
X2406973Y7670189D01*
X2407617Y7667613D01*
X2407939Y7665680D01*
Y7665358D01*
Y7665036D01*
X2407617Y7662460D01*
X2406651Y7660205D01*
X2405363Y7658595D01*
X2405041Y7657951D01*
X2402786Y7656340D01*
X2400532Y7655374D01*
X2398599Y7655052D01*
X2315505D01*
X2311962Y7655374D01*
X2309385Y7656662D01*
X2307453Y7658273D01*
X2306165Y7660205D01*
X2305520Y7661816D01*
X2305198Y7663426D01*
X2304876Y7664714D01*
Y7665036D01*
Y7850550D01*
X2305198Y7853770D01*
X2306487Y7856347D01*
X2307453Y7857635D01*
X2307775Y7858279D01*
X2310351Y7859890D01*
X2312928Y7860856D01*
X2314860Y7861178D01*
X2315505D01*
X2318403Y7860856D01*
D02*
G37*
%LPC*%
G36*
X2366948Y788949D02*
X2303822D01*
Y706821D01*
X2365659D01*
X2368558Y707143D01*
X2371457Y707787D01*
X2373711Y708753D01*
X2375966Y709720D01*
X2377576Y710686D01*
X2378864Y711652D01*
X2379509Y712296D01*
X2379831Y712618D01*
X2381763Y714873D01*
X2383373Y717449D01*
X2384340Y719704D01*
X2385306Y721958D01*
X2385628Y724213D01*
X2385950Y725823D01*
Y726790D01*
Y727112D01*
Y768337D01*
X2385628Y771558D01*
X2384984Y774456D01*
X2384018Y777033D01*
X2383051Y779287D01*
X2381763Y780898D01*
X2380797Y782186D01*
X2380153Y782830D01*
X2379831Y783152D01*
X2377576Y785085D01*
X2375322Y786373D01*
X2372745Y787661D01*
X2370491Y788305D01*
X2368558Y788627D01*
X2366948Y788949D01*
D02*
G37*
G36*
X3380900Y5068015D02*
X3335788D01*
X3330320Y5067332D01*
X3324852Y5066648D01*
X3320751Y5064598D01*
X3316650Y5062547D01*
X3313916Y5060497D01*
X3311865Y5059130D01*
X3310498Y5057763D01*
X3309815Y5057079D01*
X3306397Y5052978D01*
X3303663Y5048877D01*
X3302296Y5044092D01*
X3300929Y5039991D01*
X3300246Y5036574D01*
X3299562Y5033840D01*
Y5031789D01*
Y5031106D01*
Y4994196D01*
X3415076D01*
Y5031106D01*
X3414392Y5036574D01*
X3413709Y5041358D01*
X3411658Y5046143D01*
X3409608Y5049560D01*
X3407557Y5052978D01*
X3406190Y5055028D01*
X3404823Y5056396D01*
X3404140Y5057079D01*
X3400039Y5060497D01*
X3395938Y5063231D01*
X3391153Y5065281D01*
X3387052Y5066648D01*
X3383634Y5067332D01*
X3380900Y5068015D01*
D02*
G37*
G36*
X3334085Y3410370D02*
X3299912D01*
X3237668Y3250000D01*
X3271841D01*
X3285022Y3286370D01*
X3349707D01*
X3363376Y3250000D01*
X3398526D01*
X3334085Y3410370D01*
D02*
G37*
G36*
X3549864Y3410858D02*
X3524722D01*
X3522526Y3405488D01*
X3519596Y3400606D01*
X3516423Y3396212D01*
X3513250Y3392551D01*
X3510077Y3389378D01*
X3507636Y3387181D01*
X3506904Y3386449D01*
X3506171Y3385716D01*
X3505683Y3385472D01*
X3505439Y3385228D01*
X3500313Y3381323D01*
X3495431Y3378394D01*
X3491037Y3375709D01*
X3487132Y3373756D01*
X3483959Y3372047D01*
X3481518Y3371071D01*
X3480541Y3370827D01*
X3479809Y3370583D01*
X3479565Y3370338D01*
X3479321D01*
Y3342512D01*
X3487620Y3345685D01*
X3495187Y3349346D01*
X3501778Y3353008D01*
X3504951Y3354961D01*
X3507636Y3356913D01*
X3510321Y3358622D01*
X3512518Y3360331D01*
X3514470Y3361795D01*
X3516179Y3363016D01*
X3517400Y3364236D01*
X3518376Y3364968D01*
X3518864Y3365457D01*
X3519108Y3365701D01*
Y3250000D01*
X3549864D01*
Y3410858D01*
D02*
G37*
G36*
X2529795D02*
X2504654D01*
X2502457Y3405488D01*
X2499528Y3400606D01*
X2496354Y3396212D01*
X2493181Y3392551D01*
X2490008Y3389378D01*
X2487567Y3387181D01*
X2486835Y3386449D01*
X2486102Y3385716D01*
X2485614Y3385472D01*
X2485370Y3385228D01*
X2480244Y3381323D01*
X2475362Y3378394D01*
X2470969Y3375709D01*
X2467063Y3373756D01*
X2463890Y3372047D01*
X2461449Y3371071D01*
X2460473Y3370827D01*
X2459740Y3370583D01*
X2459496Y3370338D01*
X2459252D01*
Y3342512D01*
X2467551Y3345685D01*
X2475118Y3349346D01*
X2481709Y3353008D01*
X2484882Y3354961D01*
X2487567Y3356913D01*
X2490252Y3358622D01*
X2492449Y3360331D01*
X2494402Y3361795D01*
X2496110Y3363016D01*
X2497331Y3364236D01*
X2498307Y3364968D01*
X2498795Y3365457D01*
X2499039Y3365701D01*
Y3250000D01*
X2529795D01*
Y3410858D01*
D02*
G37*
G36*
X3649699D02*
X3647502D01*
X3643352Y3410614D01*
X3639203Y3410126D01*
X3635541Y3409393D01*
X3631880Y3408173D01*
X3628706Y3406953D01*
X3625777Y3405732D01*
X3623092Y3404023D01*
X3620651Y3402559D01*
X3618455Y3401094D01*
X3616502Y3399630D01*
X3614793Y3398165D01*
X3613573Y3396945D01*
X3612596Y3395724D01*
X3611620Y3394992D01*
X3611376Y3394504D01*
X3611132Y3394260D01*
X3608447Y3390354D01*
X3606006Y3385716D01*
X3603809Y3380834D01*
X3602100Y3375709D01*
X3600636Y3370338D01*
X3599415Y3364968D01*
X3597462Y3354228D01*
X3596730Y3349102D01*
X3596242Y3344464D01*
X3595998Y3340315D01*
X3595754Y3336409D01*
X3595510Y3333480D01*
Y3331039D01*
Y3329575D01*
Y3329331D01*
Y3329087D01*
X3595754Y3320787D01*
X3596242Y3312976D01*
X3596730Y3306142D01*
X3597707Y3299551D01*
X3598683Y3293693D01*
X3599903Y3288567D01*
X3601368Y3283929D01*
X3602588Y3279780D01*
X3603809Y3276118D01*
X3605273Y3272945D01*
X3606494Y3270504D01*
X3607470Y3268551D01*
X3608447Y3266843D01*
X3609179Y3265866D01*
X3609423Y3265134D01*
X3609667Y3264890D01*
X3612352Y3261717D01*
X3615525Y3259032D01*
X3618455Y3256591D01*
X3621628Y3254638D01*
X3624801Y3252929D01*
X3627974Y3251465D01*
X3631147Y3250244D01*
X3634077Y3249268D01*
X3636762Y3248536D01*
X3639447Y3248047D01*
X3641643Y3247559D01*
X3643596Y3247315D01*
X3645305D01*
X3646525Y3247071D01*
X3647502D01*
X3651651Y3247315D01*
X3655801Y3247803D01*
X3659462Y3248536D01*
X3662880Y3249756D01*
X3666053Y3250976D01*
X3669226Y3252197D01*
X3671911Y3253662D01*
X3674352Y3255370D01*
X3676549Y3256835D01*
X3678258Y3258299D01*
X3679966Y3259520D01*
X3681187Y3260984D01*
X3682407Y3261961D01*
X3683139Y3262693D01*
X3683384Y3263181D01*
X3683628Y3263425D01*
X3686313Y3267331D01*
X3688754Y3271969D01*
X3690950Y3276850D01*
X3692903Y3281976D01*
X3694368Y3287346D01*
X3695588Y3292717D01*
X3697541Y3303457D01*
X3698273Y3308583D01*
X3698761Y3313465D01*
X3699006Y3317614D01*
X3699250Y3321520D01*
X3699494Y3324449D01*
Y3326890D01*
Y3328354D01*
Y3328598D01*
Y3328842D01*
X3699250Y3337142D01*
X3698761Y3344709D01*
X3698029Y3351787D01*
X3697053Y3358378D01*
X3695832Y3364236D01*
X3694612Y3369606D01*
X3693147Y3374244D01*
X3691683Y3378638D01*
X3690218Y3382299D01*
X3688754Y3385472D01*
X3687533Y3388157D01*
X3686313Y3390354D01*
X3685336Y3391819D01*
X3684604Y3393039D01*
X3684116Y3393771D01*
X3683872Y3394016D01*
X3681187Y3396945D01*
X3678502Y3399630D01*
X3675573Y3401827D01*
X3672643Y3403779D01*
X3669714Y3405488D01*
X3666541Y3406708D01*
X3663612Y3407929D01*
X3660683Y3408661D01*
X3657998Y3409393D01*
X3655557Y3409882D01*
X3653360Y3410370D01*
X3651407Y3410614D01*
X3649699Y3410858D01*
D02*
G37*
G36*
X3038975Y3413055D02*
X3015786D01*
X2976243Y3247315D01*
X2998944D01*
X3038975Y3413055D01*
D02*
G37*
G36*
X2914243Y3410370D02*
X2879582D01*
X2840527Y3291740D01*
X2799763Y3410370D01*
X2764858D01*
X2822220Y3250000D01*
X2857125D01*
X2914243Y3410370D01*
D02*
G37*
G36*
X3859131Y3368630D02*
X3856934D01*
X3853273Y3368386D01*
X3849856Y3367898D01*
X3846438Y3367165D01*
X3843753Y3366433D01*
X3841312Y3365457D01*
X3839360Y3364724D01*
X3838383Y3364236D01*
X3837895Y3363992D01*
X3834722Y3362039D01*
X3831549Y3359842D01*
X3828864Y3357646D01*
X3826423Y3355205D01*
X3824470Y3353252D01*
X3822761Y3351543D01*
X3821785Y3350567D01*
X3821541Y3350079D01*
X3819344Y3353252D01*
X3817147Y3356181D01*
X3814950Y3358622D01*
X3812753Y3360575D01*
X3810801Y3362039D01*
X3809336Y3363016D01*
X3808360Y3363748D01*
X3807871Y3363992D01*
X3804698Y3365457D01*
X3801525Y3366677D01*
X3798352Y3367409D01*
X3795179Y3368142D01*
X3792494Y3368386D01*
X3790541Y3368630D01*
X3788588D01*
X3784683Y3368386D01*
X3781021Y3367898D01*
X3777360Y3366921D01*
X3774187Y3365701D01*
X3767840Y3362772D01*
X3765155Y3361307D01*
X3762714Y3359598D01*
X3760273Y3357890D01*
X3758320Y3356181D01*
X3756612Y3354472D01*
X3755147Y3353252D01*
X3753927Y3352031D01*
X3753194Y3351055D01*
X3752706Y3350567D01*
X3752462Y3350323D01*
Y3366189D01*
X3724147D01*
Y3250000D01*
X3754903D01*
Y3306386D01*
Y3312244D01*
X3755391Y3317126D01*
X3755635Y3321276D01*
X3756124Y3324449D01*
X3756612Y3326890D01*
X3756856Y3328598D01*
X3757344Y3329819D01*
Y3330063D01*
X3758320Y3332748D01*
X3759541Y3334945D01*
X3761005Y3336898D01*
X3762226Y3338362D01*
X3763446Y3339583D01*
X3764423Y3340559D01*
X3765155Y3341047D01*
X3765399Y3341291D01*
X3767596Y3342512D01*
X3769793Y3343488D01*
X3771990Y3344220D01*
X3773942Y3344709D01*
X3775651Y3344953D01*
X3777116Y3345197D01*
X3780533D01*
X3782242Y3344709D01*
X3783950Y3344464D01*
X3785171Y3343976D01*
X3786147Y3343488D01*
X3786879Y3343244D01*
X3787368Y3342756D01*
X3787612D01*
X3789809Y3340559D01*
X3791517Y3338118D01*
X3792005Y3337142D01*
X3792494Y3336165D01*
X3792738Y3335677D01*
Y3335433D01*
X3792982Y3334457D01*
X3793226Y3332992D01*
X3793714Y3330063D01*
X3793958Y3326402D01*
X3794202Y3322740D01*
X3794446Y3319079D01*
Y3316150D01*
Y3315173D01*
Y3314197D01*
Y3313709D01*
Y3313465D01*
Y3250000D01*
X3825202D01*
Y3305654D01*
Y3311268D01*
X3825690Y3316394D01*
X3825934Y3320299D01*
X3826423Y3323716D01*
X3826911Y3326402D01*
X3827155Y3328110D01*
X3827643Y3329331D01*
Y3329575D01*
X3828619Y3332260D01*
X3829840Y3334457D01*
X3831305Y3336653D01*
X3832525Y3338118D01*
X3833745Y3339339D01*
X3834722Y3340315D01*
X3835454Y3340803D01*
X3835698Y3341047D01*
X3837895Y3342512D01*
X3840092Y3343488D01*
X3842045Y3344220D01*
X3843997Y3344709D01*
X3845706Y3344953D01*
X3846927Y3345197D01*
X3847903D01*
X3851076Y3344953D01*
X3853761Y3344220D01*
X3855958Y3343000D01*
X3857911Y3342024D01*
X3859131Y3340803D01*
X3860352Y3339583D01*
X3860840Y3338850D01*
X3861084Y3338606D01*
X3861572Y3337630D01*
X3862060Y3336165D01*
X3863037Y3332992D01*
X3863525Y3329331D01*
X3863769Y3325425D01*
X3864013Y3322008D01*
X3864257Y3318835D01*
Y3317858D01*
Y3316882D01*
Y3316394D01*
Y3316150D01*
Y3250000D01*
X3895013D01*
Y3323961D01*
X3894769Y3329819D01*
X3894525Y3334701D01*
X3894037Y3338850D01*
X3893548Y3342268D01*
X3892816Y3344953D01*
X3892328Y3346661D01*
X3892084Y3347882D01*
X3891840Y3348126D01*
X3890131Y3351543D01*
X3887934Y3354716D01*
X3885737Y3357401D01*
X3883541Y3359354D01*
X3881588Y3361063D01*
X3879879Y3362283D01*
X3878903Y3363016D01*
X3878415Y3363260D01*
X3874997Y3364968D01*
X3871336Y3366433D01*
X3867675Y3367409D01*
X3864501Y3367898D01*
X3861328Y3368386D01*
X3859131Y3368630D01*
D02*
G37*
G36*
X2714574D02*
X2712378D01*
X2708716Y3368386D01*
X2705299Y3367898D01*
X2701882Y3367165D01*
X2699197Y3366433D01*
X2696756Y3365457D01*
X2694803Y3364724D01*
X2693826Y3364236D01*
X2693338Y3363992D01*
X2690165Y3362039D01*
X2686992Y3359842D01*
X2684307Y3357646D01*
X2681866Y3355205D01*
X2679913Y3353252D01*
X2678204Y3351543D01*
X2677228Y3350567D01*
X2676984Y3350079D01*
X2674787Y3353252D01*
X2672590Y3356181D01*
X2670393Y3358622D01*
X2668197Y3360575D01*
X2666244Y3362039D01*
X2664779Y3363016D01*
X2663803Y3363748D01*
X2663315Y3363992D01*
X2660141Y3365457D01*
X2656968Y3366677D01*
X2653795Y3367409D01*
X2650622Y3368142D01*
X2647937Y3368386D01*
X2645984Y3368630D01*
X2644031D01*
X2640126Y3368386D01*
X2636464Y3367898D01*
X2632803Y3366921D01*
X2629630Y3365701D01*
X2623283Y3362772D01*
X2620598Y3361307D01*
X2618157Y3359598D01*
X2615716Y3357890D01*
X2613764Y3356181D01*
X2612055Y3354472D01*
X2610590Y3353252D01*
X2609370Y3352031D01*
X2608638Y3351055D01*
X2608149Y3350567D01*
X2607905Y3350323D01*
Y3366189D01*
X2579590D01*
Y3250000D01*
X2610346D01*
Y3306386D01*
Y3312244D01*
X2610835Y3317126D01*
X2611079Y3321276D01*
X2611567Y3324449D01*
X2612055Y3326890D01*
X2612299Y3328598D01*
X2612787Y3329819D01*
Y3330063D01*
X2613764Y3332748D01*
X2614984Y3334945D01*
X2616449Y3336898D01*
X2617669Y3338362D01*
X2618890Y3339583D01*
X2619866Y3340559D01*
X2620598Y3341047D01*
X2620842Y3341291D01*
X2623039Y3342512D01*
X2625236Y3343488D01*
X2627433Y3344220D01*
X2629386Y3344709D01*
X2631094Y3344953D01*
X2632559Y3345197D01*
X2635976D01*
X2637685Y3344709D01*
X2639394Y3344464D01*
X2640614Y3343976D01*
X2641590Y3343488D01*
X2642323Y3343244D01*
X2642811Y3342756D01*
X2643055D01*
X2645252Y3340559D01*
X2646960Y3338118D01*
X2647449Y3337142D01*
X2647937Y3336165D01*
X2648181Y3335677D01*
Y3335433D01*
X2648425Y3334457D01*
X2648669Y3332992D01*
X2649157Y3330063D01*
X2649401Y3326402D01*
X2649645Y3322740D01*
X2649890Y3319079D01*
Y3316150D01*
Y3315173D01*
Y3314197D01*
Y3313709D01*
Y3313465D01*
Y3250000D01*
X2680645D01*
Y3305654D01*
Y3311268D01*
X2681134Y3316394D01*
X2681378Y3320299D01*
X2681866Y3323716D01*
X2682354Y3326402D01*
X2682598Y3328110D01*
X2683086Y3329331D01*
Y3329575D01*
X2684063Y3332260D01*
X2685283Y3334457D01*
X2686748Y3336653D01*
X2687968Y3338118D01*
X2689189Y3339339D01*
X2690165Y3340315D01*
X2690897Y3340803D01*
X2691141Y3341047D01*
X2693338Y3342512D01*
X2695535Y3343488D01*
X2697488Y3344220D01*
X2699441Y3344709D01*
X2701149Y3344953D01*
X2702370Y3345197D01*
X2703346D01*
X2706519Y3344953D01*
X2709204Y3344220D01*
X2711401Y3343000D01*
X2713354Y3342024D01*
X2714574Y3340803D01*
X2715795Y3339583D01*
X2716283Y3338850D01*
X2716527Y3338606D01*
X2717015Y3337630D01*
X2717504Y3336165D01*
X2718480Y3332992D01*
X2718968Y3329331D01*
X2719212Y3325425D01*
X2719456Y3322008D01*
X2719700Y3318835D01*
Y3317858D01*
Y3316882D01*
Y3316394D01*
Y3316150D01*
Y3250000D01*
X2750456D01*
Y3323961D01*
X2750212Y3329819D01*
X2749968Y3334701D01*
X2749480Y3338850D01*
X2748992Y3342268D01*
X2748259Y3344953D01*
X2747771Y3346661D01*
X2747527Y3347882D01*
X2747283Y3348126D01*
X2745574Y3351543D01*
X2743378Y3354716D01*
X2741181Y3357401D01*
X2738984Y3359354D01*
X2737031Y3361063D01*
X2735322Y3362283D01*
X2734346Y3363016D01*
X2733858Y3363260D01*
X2730441Y3364968D01*
X2726779Y3366433D01*
X2723118Y3367409D01*
X2719945Y3367898D01*
X2716771Y3368386D01*
X2714574Y3368630D01*
D02*
G37*
G36*
X3187385D02*
X3185188D01*
X3181526Y3368386D01*
X3178109Y3367898D01*
X3174692Y3367165D01*
X3172007Y3366433D01*
X3169566Y3365457D01*
X3167613Y3364724D01*
X3166637Y3364236D01*
X3166148Y3363992D01*
X3162975Y3362039D01*
X3159802Y3359842D01*
X3157117Y3357646D01*
X3154676Y3355205D01*
X3152723Y3353252D01*
X3151015Y3351543D01*
X3150038Y3350567D01*
X3149794Y3350079D01*
X3147597Y3353252D01*
X3145400Y3356181D01*
X3143204Y3358622D01*
X3141007Y3360575D01*
X3139054Y3362039D01*
X3137589Y3363016D01*
X3136613Y3363748D01*
X3136125Y3363992D01*
X3132952Y3365457D01*
X3129778Y3366677D01*
X3126605Y3367409D01*
X3123432Y3368142D01*
X3120747Y3368386D01*
X3118794Y3368630D01*
X3116841D01*
X3112936Y3368386D01*
X3109274Y3367898D01*
X3105613Y3366921D01*
X3102440Y3365701D01*
X3096093Y3362772D01*
X3093408Y3361307D01*
X3090967Y3359598D01*
X3088526Y3357890D01*
X3086574Y3356181D01*
X3084865Y3354472D01*
X3083400Y3353252D01*
X3082180Y3352031D01*
X3081448Y3351055D01*
X3080960Y3350567D01*
X3080715Y3350323D01*
Y3366189D01*
X3052401D01*
Y3250000D01*
X3083156D01*
Y3306386D01*
Y3312244D01*
X3083645Y3317126D01*
X3083889Y3321276D01*
X3084377Y3324449D01*
X3084865Y3326890D01*
X3085109Y3328598D01*
X3085597Y3329819D01*
Y3330063D01*
X3086574Y3332748D01*
X3087794Y3334945D01*
X3089259Y3336898D01*
X3090479Y3338362D01*
X3091700Y3339583D01*
X3092676Y3340559D01*
X3093408Y3341047D01*
X3093652Y3341291D01*
X3095849Y3342512D01*
X3098046Y3343488D01*
X3100243Y3344220D01*
X3102196Y3344709D01*
X3103904Y3344953D01*
X3105369Y3345197D01*
X3108786D01*
X3110495Y3344709D01*
X3112204Y3344464D01*
X3113424Y3343976D01*
X3114400Y3343488D01*
X3115133Y3343244D01*
X3115621Y3342756D01*
X3115865D01*
X3118062Y3340559D01*
X3119770Y3338118D01*
X3120259Y3337142D01*
X3120747Y3336165D01*
X3120991Y3335677D01*
Y3335433D01*
X3121235Y3334457D01*
X3121479Y3332992D01*
X3121967Y3330063D01*
X3122211Y3326402D01*
X3122456Y3322740D01*
X3122700Y3319079D01*
Y3316150D01*
Y3315173D01*
Y3314197D01*
Y3313709D01*
Y3313465D01*
Y3250000D01*
X3153455D01*
Y3305654D01*
Y3311268D01*
X3153944Y3316394D01*
X3154188Y3320299D01*
X3154676Y3323716D01*
X3155164Y3326402D01*
X3155408Y3328110D01*
X3155896Y3329331D01*
Y3329575D01*
X3156873Y3332260D01*
X3158093Y3334457D01*
X3159558Y3336653D01*
X3160778Y3338118D01*
X3161999Y3339339D01*
X3162975Y3340315D01*
X3163707Y3340803D01*
X3163952Y3341047D01*
X3166148Y3342512D01*
X3168345Y3343488D01*
X3170298Y3344220D01*
X3172251Y3344709D01*
X3173959Y3344953D01*
X3175180Y3345197D01*
X3176156D01*
X3179329Y3344953D01*
X3182014Y3344220D01*
X3184211Y3343000D01*
X3186164Y3342024D01*
X3187385Y3340803D01*
X3188605Y3339583D01*
X3189093Y3338850D01*
X3189337Y3338606D01*
X3189825Y3337630D01*
X3190314Y3336165D01*
X3191290Y3332992D01*
X3191778Y3329331D01*
X3192022Y3325425D01*
X3192266Y3322008D01*
X3192511Y3318835D01*
Y3317858D01*
Y3316882D01*
Y3316394D01*
Y3316150D01*
Y3250000D01*
X3223266D01*
Y3323961D01*
X3223022Y3329819D01*
X3222778Y3334701D01*
X3222290Y3338850D01*
X3221802Y3342268D01*
X3221070Y3344953D01*
X3220581Y3346661D01*
X3220337Y3347882D01*
X3220093Y3348126D01*
X3218384Y3351543D01*
X3216188Y3354716D01*
X3213991Y3357401D01*
X3211794Y3359354D01*
X3209841Y3361063D01*
X3208133Y3362283D01*
X3207156Y3363016D01*
X3206668Y3363260D01*
X3203251Y3364968D01*
X3199589Y3366433D01*
X3195928Y3367409D01*
X3192755Y3367898D01*
X3189581Y3368386D01*
X3187385Y3368630D01*
D02*
G37*
%LPD*%
G36*
X3339211Y3313465D02*
X3295030D01*
X3316754Y3373023D01*
X3339211Y3313465D01*
D02*
G37*
G36*
X3649454Y3385228D02*
X3651163Y3384984D01*
X3652872Y3384252D01*
X3654336Y3383764D01*
X3655313Y3383031D01*
X3656289Y3382299D01*
X3656777Y3382055D01*
X3657021Y3381811D01*
X3658486Y3380102D01*
X3659951Y3378149D01*
X3662147Y3373268D01*
X3663124Y3371071D01*
X3663612Y3369362D01*
X3664100Y3368142D01*
Y3367898D01*
Y3367653D01*
X3664588Y3365457D01*
X3665076Y3363016D01*
X3665565Y3360086D01*
X3665809Y3357157D01*
X3666297Y3350811D01*
X3666785Y3344220D01*
Y3341291D01*
Y3338362D01*
X3667029Y3335677D01*
Y3333480D01*
Y3331527D01*
Y3330063D01*
Y3329087D01*
Y3328842D01*
Y3323716D01*
X3666785Y3319079D01*
Y3314685D01*
X3666541Y3310535D01*
X3666297Y3306874D01*
X3666053Y3303701D01*
X3665809Y3300772D01*
X3665565Y3298087D01*
X3665076Y3295890D01*
X3664832Y3293937D01*
X3664588Y3292228D01*
X3664344Y3291008D01*
X3664100Y3289787D01*
Y3289055D01*
X3663856Y3288811D01*
Y3288567D01*
X3662880Y3285394D01*
X3661659Y3282709D01*
X3660683Y3280512D01*
X3659462Y3278803D01*
X3658486Y3277583D01*
X3657754Y3276606D01*
X3657265Y3276118D01*
X3657021Y3275874D01*
X3655313Y3274654D01*
X3653848Y3273921D01*
X3650675Y3272945D01*
X3649454Y3272701D01*
X3648478Y3272457D01*
X3647502D01*
X3645549Y3272701D01*
X3643596Y3272945D01*
X3641888Y3273433D01*
X3640423Y3274165D01*
X3639203Y3274898D01*
X3638226Y3275386D01*
X3637738Y3275630D01*
X3637494Y3275874D01*
X3636029Y3277583D01*
X3634565Y3279535D01*
X3633588Y3281732D01*
X3632612Y3284173D01*
X3631636Y3286370D01*
X3631147Y3288079D01*
X3630903Y3289299D01*
X3630659Y3289787D01*
X3630171Y3291984D01*
X3629683Y3294669D01*
X3629439Y3297354D01*
X3629195Y3300528D01*
X3628706Y3306874D01*
X3628218Y3313465D01*
Y3316394D01*
Y3319323D01*
X3627974Y3322008D01*
Y3324205D01*
Y3326157D01*
Y3327622D01*
Y3328598D01*
Y3328842D01*
Y3333968D01*
X3628218Y3338606D01*
Y3343000D01*
X3628462Y3347150D01*
X3628706Y3350811D01*
X3628951Y3353984D01*
X3629195Y3356913D01*
X3629439Y3359598D01*
X3629683Y3361795D01*
X3629927Y3363748D01*
X3630171Y3365457D01*
X3630415Y3366921D01*
X3630659Y3367898D01*
X3630903Y3368630D01*
Y3368874D01*
Y3369118D01*
X3631880Y3372291D01*
X3632856Y3374976D01*
X3634077Y3377173D01*
X3635053Y3378882D01*
X3636029Y3380102D01*
X3636762Y3381079D01*
X3637250Y3381567D01*
X3637494Y3381811D01*
X3639203Y3383031D01*
X3640911Y3384008D01*
X3642620Y3384496D01*
X3644084Y3384984D01*
X3645549Y3385228D01*
X3646525Y3385472D01*
X3647502D01*
X3649454Y3385228D01*
D02*
G37*
%LPC*%
G36*
X3156629Y3836189D02*
X3125629D01*
Y3783221D01*
Y3779803D01*
Y3776386D01*
X3125385Y3773457D01*
X3125141Y3770772D01*
X3124896Y3768331D01*
Y3766134D01*
X3124652Y3764181D01*
X3124408Y3762717D01*
X3123920Y3759788D01*
X3123432Y3758079D01*
X3123188Y3756858D01*
X3122944Y3756614D01*
X3121723Y3754173D01*
X3120503Y3751976D01*
X3119038Y3750268D01*
X3117818Y3748803D01*
X3116597Y3747583D01*
X3115621Y3746606D01*
X3114889Y3746118D01*
X3114645Y3745874D01*
X3112692Y3744654D01*
X3110495Y3743677D01*
X3108542Y3742945D01*
X3106834Y3742457D01*
X3105369Y3742213D01*
X3104148Y3741969D01*
X3103172D01*
X3101219Y3742213D01*
X3099267Y3742457D01*
X3095849Y3743677D01*
X3092920Y3745386D01*
X3090479Y3747339D01*
X3088526Y3749047D01*
X3087306Y3750756D01*
X3086330Y3751976D01*
X3086086Y3752465D01*
X3085353Y3754173D01*
X3084621Y3756126D01*
X3083645Y3760764D01*
X3082668Y3765890D01*
X3082180Y3771016D01*
X3081936Y3775898D01*
Y3777850D01*
X3081692Y3779803D01*
Y3781268D01*
Y3782488D01*
Y3783221D01*
Y3783465D01*
Y3836189D01*
X3050936D01*
Y3675575D01*
X3081692D01*
Y3733914D01*
X3083400Y3730740D01*
X3085109Y3727811D01*
X3086818Y3725614D01*
X3088282Y3723906D01*
X3089259Y3722685D01*
X3090235Y3721953D01*
X3090723Y3721465D01*
X3090967Y3721221D01*
X3093164Y3719756D01*
X3095605Y3718780D01*
X3097802Y3718047D01*
X3099999Y3717559D01*
X3101952Y3717315D01*
X3103416Y3717071D01*
X3104637D01*
X3107810Y3717315D01*
X3110739Y3718292D01*
X3111959Y3718536D01*
X3112936Y3719024D01*
X3113424Y3719268D01*
X3113668D01*
X3116841Y3720977D01*
X3119526Y3722685D01*
X3120259Y3723417D01*
X3120991Y3724150D01*
X3121235Y3724394D01*
X3121479Y3724638D01*
X3122700Y3725858D01*
X3123676Y3727323D01*
X3125873Y3730496D01*
X3126605Y3731717D01*
X3127337Y3732937D01*
X3127582Y3733669D01*
X3127826Y3733914D01*
Y3720000D01*
X3156629D01*
Y3836189D01*
D02*
G37*
G36*
X2914243Y3880370D02*
X2879582D01*
X2840527Y3761740D01*
X2799763Y3880370D01*
X2764858D01*
X2822220Y3720000D01*
X2857125D01*
X2914243Y3880370D01*
D02*
G37*
G36*
X2714574Y3838630D02*
X2712378D01*
X2708716Y3838386D01*
X2705299Y3837898D01*
X2701882Y3837165D01*
X2699197Y3836433D01*
X2696756Y3835457D01*
X2694803Y3834724D01*
X2693826Y3834236D01*
X2693338Y3833992D01*
X2690165Y3832039D01*
X2686992Y3829842D01*
X2684307Y3827646D01*
X2681866Y3825205D01*
X2679913Y3823252D01*
X2678204Y3821543D01*
X2677228Y3820567D01*
X2676984Y3820079D01*
X2674787Y3823252D01*
X2672590Y3826181D01*
X2670393Y3828622D01*
X2668197Y3830575D01*
X2666244Y3832039D01*
X2664779Y3833016D01*
X2663803Y3833748D01*
X2663315Y3833992D01*
X2660141Y3835457D01*
X2656968Y3836677D01*
X2653795Y3837409D01*
X2650622Y3838142D01*
X2647937Y3838386D01*
X2645984Y3838630D01*
X2644031D01*
X2640126Y3838386D01*
X2636464Y3837898D01*
X2632803Y3836921D01*
X2629630Y3835701D01*
X2623283Y3832772D01*
X2620598Y3831307D01*
X2618157Y3829598D01*
X2615716Y3827890D01*
X2613764Y3826181D01*
X2612055Y3824472D01*
X2610590Y3823252D01*
X2609370Y3822031D01*
X2608638Y3821055D01*
X2608149Y3820567D01*
X2607905Y3820323D01*
Y3836189D01*
X2579590D01*
Y3720000D01*
X2610346D01*
Y3776386D01*
Y3782244D01*
X2610835Y3787126D01*
X2611079Y3791276D01*
X2611567Y3794449D01*
X2612055Y3796890D01*
X2612299Y3798598D01*
X2612787Y3799819D01*
Y3800063D01*
X2613764Y3802748D01*
X2614984Y3804945D01*
X2616449Y3806898D01*
X2617669Y3808362D01*
X2618890Y3809583D01*
X2619866Y3810559D01*
X2620598Y3811047D01*
X2620842Y3811291D01*
X2623039Y3812512D01*
X2625236Y3813488D01*
X2627433Y3814220D01*
X2629386Y3814709D01*
X2631094Y3814953D01*
X2632559Y3815197D01*
X2635976D01*
X2637685Y3814709D01*
X2639394Y3814465D01*
X2640614Y3813976D01*
X2641590Y3813488D01*
X2642323Y3813244D01*
X2642811Y3812756D01*
X2643055D01*
X2645252Y3810559D01*
X2646960Y3808118D01*
X2647449Y3807142D01*
X2647937Y3806165D01*
X2648181Y3805677D01*
Y3805433D01*
X2648425Y3804457D01*
X2648669Y3802992D01*
X2649157Y3800063D01*
X2649401Y3796402D01*
X2649645Y3792740D01*
X2649890Y3789079D01*
Y3786150D01*
Y3785173D01*
Y3784197D01*
Y3783709D01*
Y3783465D01*
Y3720000D01*
X2680645D01*
Y3775654D01*
Y3781268D01*
X2681134Y3786394D01*
X2681378Y3790299D01*
X2681866Y3793717D01*
X2682354Y3796402D01*
X2682598Y3798110D01*
X2683086Y3799331D01*
Y3799575D01*
X2684063Y3802260D01*
X2685283Y3804457D01*
X2686748Y3806654D01*
X2687968Y3808118D01*
X2689189Y3809339D01*
X2690165Y3810315D01*
X2690897Y3810803D01*
X2691141Y3811047D01*
X2693338Y3812512D01*
X2695535Y3813488D01*
X2697488Y3814220D01*
X2699441Y3814709D01*
X2701149Y3814953D01*
X2702370Y3815197D01*
X2703346D01*
X2706519Y3814953D01*
X2709204Y3814220D01*
X2711401Y3813000D01*
X2713354Y3812024D01*
X2714574Y3810803D01*
X2715795Y3809583D01*
X2716283Y3808850D01*
X2716527Y3808606D01*
X2717015Y3807630D01*
X2717504Y3806165D01*
X2718480Y3802992D01*
X2718968Y3799331D01*
X2719212Y3795425D01*
X2719456Y3792008D01*
X2719700Y3788835D01*
Y3787858D01*
Y3786882D01*
Y3786394D01*
Y3786150D01*
Y3720000D01*
X2750456D01*
Y3793961D01*
X2750212Y3799819D01*
X2749968Y3804701D01*
X2749480Y3808850D01*
X2748992Y3812268D01*
X2748259Y3814953D01*
X2747771Y3816661D01*
X2747527Y3817882D01*
X2747283Y3818126D01*
X2745574Y3821543D01*
X2743378Y3824717D01*
X2741181Y3827402D01*
X2738984Y3829354D01*
X2737031Y3831063D01*
X2735322Y3832283D01*
X2734346Y3833016D01*
X2733858Y3833260D01*
X2730441Y3834968D01*
X2726779Y3836433D01*
X2723118Y3837409D01*
X2719945Y3837898D01*
X2716771Y3838386D01*
X2714574Y3838630D01*
D02*
G37*
G36*
X3641888Y3880858D02*
X3639691D01*
X3635541Y3880614D01*
X3631392Y3880126D01*
X3627730Y3879394D01*
X3624069Y3878173D01*
X3620895Y3876953D01*
X3617966Y3875732D01*
X3615281Y3874023D01*
X3612840Y3872559D01*
X3610644Y3871094D01*
X3608691Y3869630D01*
X3606982Y3868165D01*
X3605762Y3866945D01*
X3604785Y3865724D01*
X3603809Y3864992D01*
X3603565Y3864504D01*
X3603321Y3864260D01*
X3600636Y3860354D01*
X3598195Y3855716D01*
X3595998Y3850835D01*
X3594289Y3845709D01*
X3592825Y3840339D01*
X3591604Y3834968D01*
X3589651Y3824228D01*
X3588919Y3819102D01*
X3588431Y3814465D01*
X3588187Y3810315D01*
X3587943Y3806409D01*
X3587699Y3803480D01*
Y3801039D01*
Y3799575D01*
Y3799331D01*
Y3799087D01*
X3587943Y3790787D01*
X3588431Y3782976D01*
X3588919Y3776142D01*
X3589896Y3769551D01*
X3590872Y3763693D01*
X3592092Y3758567D01*
X3593557Y3753929D01*
X3594777Y3749780D01*
X3595998Y3746118D01*
X3597462Y3742945D01*
X3598683Y3740504D01*
X3599659Y3738551D01*
X3600636Y3736843D01*
X3601368Y3735866D01*
X3601612Y3735134D01*
X3601856Y3734890D01*
X3604541Y3731717D01*
X3607714Y3729032D01*
X3610644Y3726591D01*
X3613817Y3724638D01*
X3616990Y3722929D01*
X3620163Y3721465D01*
X3623336Y3720244D01*
X3626266Y3719268D01*
X3628951Y3718536D01*
X3631636Y3718047D01*
X3633832Y3717559D01*
X3635785Y3717315D01*
X3637494D01*
X3638714Y3717071D01*
X3639691D01*
X3643840Y3717315D01*
X3647990Y3717803D01*
X3651651Y3718536D01*
X3655069Y3719756D01*
X3658242Y3720977D01*
X3661415Y3722197D01*
X3664100Y3723662D01*
X3666541Y3725370D01*
X3668738Y3726835D01*
X3670447Y3728299D01*
X3672155Y3729520D01*
X3673376Y3730984D01*
X3674596Y3731961D01*
X3675328Y3732693D01*
X3675573Y3733181D01*
X3675817Y3733425D01*
X3678502Y3737331D01*
X3680943Y3741969D01*
X3683139Y3746851D01*
X3685092Y3751976D01*
X3686557Y3757347D01*
X3687777Y3762717D01*
X3689730Y3773457D01*
X3690462Y3778583D01*
X3690950Y3783465D01*
X3691195Y3787614D01*
X3691439Y3791520D01*
X3691683Y3794449D01*
Y3796890D01*
Y3798354D01*
Y3798598D01*
Y3798843D01*
X3691439Y3807142D01*
X3690950Y3814709D01*
X3690218Y3821787D01*
X3689242Y3828378D01*
X3688021Y3834236D01*
X3686801Y3839606D01*
X3685336Y3844244D01*
X3683872Y3848638D01*
X3682407Y3852299D01*
X3680943Y3855472D01*
X3679722Y3858157D01*
X3678502Y3860354D01*
X3677525Y3861819D01*
X3676793Y3863039D01*
X3676305Y3863772D01*
X3676061Y3864016D01*
X3673376Y3866945D01*
X3670691Y3869630D01*
X3667762Y3871827D01*
X3664832Y3873779D01*
X3661903Y3875488D01*
X3658730Y3876709D01*
X3655801Y3877929D01*
X3652872Y3878661D01*
X3650187Y3879394D01*
X3647746Y3879882D01*
X3645549Y3880370D01*
X3643596Y3880614D01*
X3641888Y3880858D01*
D02*
G37*
G36*
X3038975Y3883055D02*
X3015786D01*
X2976243Y3717315D01*
X2998944D01*
X3038975Y3883055D01*
D02*
G37*
G36*
X3790785Y3880370D02*
X3719021D01*
Y3720000D01*
X3751486D01*
Y3786882D01*
X3761738D01*
X3765155Y3786638D01*
X3767840Y3786394D01*
X3770037Y3785906D01*
X3771746Y3785661D01*
X3772966Y3785173D01*
X3773698Y3784929D01*
X3773942D01*
X3775895Y3784197D01*
X3777604Y3783221D01*
X3780777Y3781024D01*
X3781998Y3780047D01*
X3782974Y3779071D01*
X3783462Y3778583D01*
X3783706Y3778339D01*
X3784683Y3777362D01*
X3785659Y3775898D01*
X3788344Y3772480D01*
X3791273Y3768819D01*
X3793958Y3764669D01*
X3796643Y3760764D01*
X3797864Y3759299D01*
X3798840Y3757591D01*
X3799572Y3756370D01*
X3800305Y3755394D01*
X3800549Y3754906D01*
X3800793Y3754662D01*
X3823738Y3720000D01*
X3862549D01*
X3843021Y3751244D01*
X3840824Y3754662D01*
X3838871Y3757591D01*
X3837163Y3760520D01*
X3835210Y3763205D01*
X3832281Y3767599D01*
X3829596Y3771260D01*
X3827399Y3773945D01*
X3825934Y3775654D01*
X3824958Y3776874D01*
X3824714Y3777118D01*
X3822029Y3779803D01*
X3819100Y3782244D01*
X3816171Y3784685D01*
X3813486Y3786638D01*
X3811045Y3788347D01*
X3809092Y3789567D01*
X3807871Y3790299D01*
X3807627Y3790543D01*
X3807383D01*
X3811289Y3791276D01*
X3814706Y3792008D01*
X3818123Y3792984D01*
X3821053Y3794205D01*
X3823982Y3795425D01*
X3826667Y3796646D01*
X3828864Y3797866D01*
X3831060Y3799087D01*
X3832769Y3800307D01*
X3834478Y3801528D01*
X3835698Y3802748D01*
X3836919Y3803480D01*
X3837651Y3804457D01*
X3838383Y3804945D01*
X3838871Y3805189D01*
Y3805433D01*
X3840824Y3807630D01*
X3842533Y3810071D01*
X3844974Y3814953D01*
X3846927Y3820079D01*
X3848391Y3824717D01*
X3849123Y3828866D01*
X3849367Y3830575D01*
Y3832283D01*
X3849612Y3833504D01*
Y3834480D01*
Y3834968D01*
Y3835213D01*
X3849367Y3840339D01*
X3848635Y3845220D01*
X3847415Y3849370D01*
X3846194Y3853031D01*
X3844730Y3856205D01*
X3843753Y3858401D01*
X3842777Y3859866D01*
X3842533Y3860354D01*
X3839604Y3864260D01*
X3836675Y3867433D01*
X3833501Y3870118D01*
X3830572Y3872315D01*
X3827887Y3874023D01*
X3825690Y3875244D01*
X3824226Y3875732D01*
X3823982Y3875976D01*
X3823738D01*
X3821541Y3876709D01*
X3818856Y3877441D01*
X3812997Y3878417D01*
X3806895Y3879394D01*
X3800793Y3879882D01*
X3798108Y3880126D01*
X3792982D01*
X3790785Y3880370D01*
D02*
G37*
G36*
X2529795Y3880858D02*
X2504654D01*
X2502457Y3875488D01*
X2499528Y3870606D01*
X2496354Y3866212D01*
X2493181Y3862551D01*
X2490008Y3859378D01*
X2487567Y3857181D01*
X2486835Y3856449D01*
X2486102Y3855716D01*
X2485614Y3855472D01*
X2485370Y3855228D01*
X2480244Y3851323D01*
X2475362Y3848394D01*
X2470969Y3845709D01*
X2467063Y3843756D01*
X2463890Y3842047D01*
X2461449Y3841071D01*
X2460473Y3840827D01*
X2459740Y3840583D01*
X2459496Y3840339D01*
X2459252D01*
Y3812512D01*
X2467551Y3815685D01*
X2475118Y3819346D01*
X2481709Y3823008D01*
X2484882Y3824961D01*
X2487567Y3826913D01*
X2490252Y3828622D01*
X2492449Y3830331D01*
X2494402Y3831795D01*
X2496110Y3833016D01*
X2497331Y3834236D01*
X2498307Y3834968D01*
X2498795Y3835457D01*
X2499039Y3835701D01*
Y3720000D01*
X2529795D01*
Y3880858D01*
D02*
G37*
G36*
X3264030Y3880370D02*
X3229857D01*
X3167613Y3720000D01*
X3201786D01*
X3214967Y3756370D01*
X3279652D01*
X3293321Y3720000D01*
X3328471D01*
X3264030Y3880370D01*
D02*
G37*
G36*
X3542053Y3880858D02*
X3516911D01*
X3514715Y3875488D01*
X3511785Y3870606D01*
X3508612Y3866212D01*
X3505439Y3862551D01*
X3502266Y3859378D01*
X3499825Y3857181D01*
X3499093Y3856449D01*
X3498360Y3855716D01*
X3497872Y3855472D01*
X3497628Y3855228D01*
X3492502Y3851323D01*
X3487620Y3848394D01*
X3483226Y3845709D01*
X3479321Y3843756D01*
X3476148Y3842047D01*
X3473707Y3841071D01*
X3472730Y3840827D01*
X3471998Y3840583D01*
X3471754Y3840339D01*
X3471510D01*
Y3812512D01*
X3479809Y3815685D01*
X3487376Y3819346D01*
X3493967Y3823008D01*
X3497140Y3824961D01*
X3499825Y3826913D01*
X3502510Y3828622D01*
X3504707Y3830331D01*
X3506659Y3831795D01*
X3508368Y3833016D01*
X3509589Y3834236D01*
X3510565Y3834968D01*
X3511053Y3835457D01*
X3511297Y3835701D01*
Y3720000D01*
X3542053D01*
Y3880858D01*
D02*
G37*
%LPD*%
G36*
X3641643Y3855228D02*
X3643352Y3854984D01*
X3645061Y3854252D01*
X3646525Y3853764D01*
X3647502Y3853031D01*
X3648478Y3852299D01*
X3648966Y3852055D01*
X3649210Y3851811D01*
X3650675Y3850102D01*
X3652140Y3848150D01*
X3654336Y3843268D01*
X3655313Y3841071D01*
X3655801Y3839362D01*
X3656289Y3838142D01*
Y3837898D01*
Y3837653D01*
X3656777Y3835457D01*
X3657265Y3833016D01*
X3657754Y3830087D01*
X3657998Y3827157D01*
X3658486Y3820811D01*
X3658974Y3814220D01*
Y3811291D01*
Y3808362D01*
X3659218Y3805677D01*
Y3803480D01*
Y3801528D01*
Y3800063D01*
Y3799087D01*
Y3798843D01*
Y3793717D01*
X3658974Y3789079D01*
Y3784685D01*
X3658730Y3780535D01*
X3658486Y3776874D01*
X3658242Y3773701D01*
X3657998Y3770772D01*
X3657754Y3768087D01*
X3657265Y3765890D01*
X3657021Y3763937D01*
X3656777Y3762228D01*
X3656533Y3761008D01*
X3656289Y3759788D01*
Y3759055D01*
X3656045Y3758811D01*
Y3758567D01*
X3655069Y3755394D01*
X3653848Y3752709D01*
X3652872Y3750512D01*
X3651651Y3748803D01*
X3650675Y3747583D01*
X3649943Y3746606D01*
X3649454Y3746118D01*
X3649210Y3745874D01*
X3647502Y3744654D01*
X3646037Y3743921D01*
X3642864Y3742945D01*
X3641643Y3742701D01*
X3640667Y3742457D01*
X3639691D01*
X3637738Y3742701D01*
X3635785Y3742945D01*
X3634077Y3743433D01*
X3632612Y3744165D01*
X3631392Y3744898D01*
X3630415Y3745386D01*
X3629927Y3745630D01*
X3629683Y3745874D01*
X3628218Y3747583D01*
X3626754Y3749536D01*
X3625777Y3751732D01*
X3624801Y3754173D01*
X3623825Y3756370D01*
X3623336Y3758079D01*
X3623092Y3759299D01*
X3622848Y3759788D01*
X3622360Y3761984D01*
X3621872Y3764669D01*
X3621628Y3767354D01*
X3621384Y3770528D01*
X3620895Y3776874D01*
X3620407Y3783465D01*
Y3786394D01*
Y3789323D01*
X3620163Y3792008D01*
Y3794205D01*
Y3796158D01*
Y3797622D01*
Y3798598D01*
Y3798843D01*
Y3803969D01*
X3620407Y3808606D01*
Y3813000D01*
X3620651Y3817150D01*
X3620895Y3820811D01*
X3621140Y3823984D01*
X3621384Y3826913D01*
X3621628Y3829598D01*
X3621872Y3831795D01*
X3622116Y3833748D01*
X3622360Y3835457D01*
X3622604Y3836921D01*
X3622848Y3837898D01*
X3623092Y3838630D01*
Y3838874D01*
Y3839118D01*
X3624069Y3842291D01*
X3625045Y3844976D01*
X3626266Y3847173D01*
X3627242Y3848882D01*
X3628218Y3850102D01*
X3628951Y3851079D01*
X3629439Y3851567D01*
X3629683Y3851811D01*
X3631392Y3853031D01*
X3633100Y3854008D01*
X3634809Y3854496D01*
X3636273Y3854984D01*
X3637738Y3855228D01*
X3638714Y3855472D01*
X3639691D01*
X3641643Y3855228D01*
D02*
G37*
G36*
X3790541Y3853031D02*
X3795423D01*
X3797620Y3852787D01*
X3798840D01*
X3799572Y3852543D01*
X3799816D01*
X3802501Y3851811D01*
X3804942Y3851079D01*
X3806895Y3850102D01*
X3808604Y3848882D01*
X3810068Y3847905D01*
X3811045Y3846929D01*
X3811533Y3846441D01*
X3811777Y3846197D01*
X3813242Y3844244D01*
X3814218Y3842047D01*
X3815194Y3839850D01*
X3815682Y3837898D01*
X3815927Y3836189D01*
X3816171Y3834724D01*
Y3833504D01*
Y3833260D01*
X3815927Y3830575D01*
X3815682Y3828378D01*
X3815194Y3826181D01*
X3814462Y3824472D01*
X3813730Y3823008D01*
X3813242Y3822031D01*
X3812997Y3821299D01*
X3812753Y3821055D01*
X3811533Y3819346D01*
X3810068Y3818126D01*
X3807139Y3815929D01*
X3805675Y3815441D01*
X3804698Y3814953D01*
X3803966Y3814465D01*
X3803722D01*
X3802501Y3814220D01*
X3800793Y3813732D01*
X3799084Y3813488D01*
X3796887Y3813244D01*
X3792249Y3813000D01*
X3787368Y3812756D01*
X3782730Y3812512D01*
X3751486D01*
Y3853276D01*
X3788344D01*
X3790541Y3853031D01*
D02*
G37*
G36*
X3269156Y3783465D02*
X3224975D01*
X3246699Y3843024D01*
X3269156Y3783465D01*
D02*
G37*
%LPC*%
G36*
X808512Y5180271D02*
X807635D01*
X803392Y5180125D01*
X799442Y5179686D01*
X795930Y5178954D01*
X792858Y5178369D01*
X791541Y5177930D01*
X790371Y5177638D01*
X789347Y5177199D01*
X788469Y5176906D01*
X787737Y5176760D01*
X787298Y5176467D01*
X787006Y5176321D01*
X786859D01*
X784372Y5175150D01*
X782031Y5173834D01*
X779983Y5172371D01*
X778081Y5170908D01*
X776618Y5169737D01*
X775448Y5168713D01*
X774716Y5167982D01*
X774424Y5167689D01*
X772522Y5165494D01*
X770620Y5163154D01*
X769157Y5160959D01*
X767840Y5158911D01*
X766816Y5157155D01*
X766084Y5155692D01*
X765645Y5154814D01*
X765499Y5154668D01*
Y5154522D01*
X764036Y5150571D01*
X763012Y5146475D01*
X762280Y5142378D01*
X761842Y5138428D01*
X761549Y5136672D01*
Y5135063D01*
X761403Y5133600D01*
X761256Y5132283D01*
Y5131259D01*
Y5130528D01*
Y5129942D01*
Y5129796D01*
X761403Y5125553D01*
X761842Y5121603D01*
X762427Y5117946D01*
X763158Y5114434D01*
X764182Y5111216D01*
X765206Y5108290D01*
X766377Y5105656D01*
X767547Y5103169D01*
X768718Y5100974D01*
X769888Y5099072D01*
X770912Y5097463D01*
X771936Y5096146D01*
X772668Y5095122D01*
X773253Y5094391D01*
X773692Y5093952D01*
X773838Y5093805D01*
X776326Y5091465D01*
X778959Y5089563D01*
X781593Y5087807D01*
X784519Y5086344D01*
X787298Y5085027D01*
X790078Y5084003D01*
X792858Y5083125D01*
X795491Y5082394D01*
X797979Y5081808D01*
X800319Y5081516D01*
X802514Y5081223D01*
X804270Y5080931D01*
X805733D01*
X806903Y5080784D01*
X807781D01*
X811731Y5080931D01*
X815389Y5081370D01*
X818754Y5081955D01*
X821972Y5082833D01*
X825045Y5083857D01*
X827825Y5084881D01*
X830312Y5086051D01*
X832653Y5087368D01*
X834701Y5088538D01*
X836457Y5089709D01*
X838066Y5090733D01*
X839236Y5091757D01*
X840260Y5092635D01*
X840992Y5093220D01*
X841431Y5093659D01*
X841577Y5093805D01*
X843772Y5096439D01*
X845820Y5099219D01*
X847429Y5102145D01*
X848892Y5105071D01*
X850209Y5108143D01*
X851233Y5111216D01*
X852111Y5114142D01*
X852696Y5117068D01*
X853282Y5119701D01*
X853574Y5122335D01*
X853867Y5124529D01*
X854159Y5126578D01*
Y5128187D01*
X854306Y5129357D01*
Y5130089D01*
Y5130381D01*
X854159Y5134624D01*
X853720Y5138721D01*
X853135Y5142525D01*
X852257Y5146036D01*
X851380Y5149255D01*
X850355Y5152181D01*
X849185Y5154960D01*
X848015Y5157448D01*
X846698Y5159642D01*
X845674Y5161544D01*
X844503Y5163154D01*
X843625Y5164470D01*
X842748Y5165641D01*
X842162Y5166372D01*
X841723Y5166811D01*
X841577Y5166957D01*
X839090Y5169298D01*
X836457Y5171347D01*
X833677Y5173102D01*
X830897Y5174712D01*
X828117Y5175882D01*
X825191Y5177052D01*
X822558Y5177930D01*
X819778Y5178662D01*
X817291Y5179101D01*
X814950Y5179540D01*
X812902Y5179832D01*
X811146Y5180125D01*
X809683D01*
X808512Y5180271D01*
D02*
G37*
G36*
X412614Y5178662D02*
X370332D01*
Y5082540D01*
X412029D01*
X414516Y5082686D01*
X418466D01*
X420222Y5082833D01*
X422855D01*
X423879Y5082979D01*
X425342D01*
X425781Y5083125D01*
X426366D01*
X429146Y5083564D01*
X431633Y5084149D01*
X433828Y5084881D01*
X435730Y5085759D01*
X437339Y5086490D01*
X438510Y5087075D01*
X439095Y5087514D01*
X439387Y5087661D01*
X441289Y5089124D01*
X442899Y5090879D01*
X444362Y5092489D01*
X445532Y5094098D01*
X446410Y5095415D01*
X447142Y5096585D01*
X447581Y5097317D01*
X447727Y5097609D01*
X448751Y5099950D01*
X449482Y5102145D01*
X450068Y5104339D01*
X450360Y5106241D01*
X450653Y5107997D01*
X450799Y5109167D01*
Y5110045D01*
Y5110338D01*
X450653Y5113410D01*
X450068Y5116190D01*
X449336Y5118531D01*
X448458Y5120725D01*
X447434Y5122481D01*
X446703Y5123798D01*
X446117Y5124529D01*
X445971Y5124822D01*
X444069Y5127016D01*
X441875Y5128918D01*
X439680Y5130381D01*
X437486Y5131552D01*
X435584Y5132430D01*
X433974Y5133161D01*
X433389Y5133307D01*
X432950Y5133454D01*
X432658Y5133600D01*
X432511D01*
X434706Y5134771D01*
X436754Y5136087D01*
X438363Y5137404D01*
X439826Y5138867D01*
X440997Y5140037D01*
X441728Y5141062D01*
X442314Y5141647D01*
X442460Y5141939D01*
X443630Y5144134D01*
X444508Y5146329D01*
X445240Y5148377D01*
X445679Y5150279D01*
X445971Y5151888D01*
X446117Y5153205D01*
Y5154083D01*
Y5154375D01*
X445971Y5156716D01*
X445679Y5158764D01*
X445093Y5160666D01*
X444654Y5162422D01*
X444069Y5163739D01*
X443484Y5164763D01*
X443191Y5165348D01*
X443045Y5165641D01*
X441875Y5167396D01*
X440704Y5169006D01*
X439387Y5170322D01*
X438363Y5171493D01*
X437339Y5172517D01*
X436461Y5173102D01*
X435876Y5173541D01*
X435730Y5173687D01*
X433974Y5174712D01*
X432365Y5175589D01*
X430609Y5176321D01*
X429000Y5176760D01*
X427683Y5177199D01*
X426659Y5177491D01*
X425928Y5177638D01*
X425635D01*
X423294Y5177930D01*
X420661Y5178223D01*
X417881Y5178369D01*
X415101Y5178515D01*
X412614Y5178662D01*
D02*
G37*
G36*
X515173D02*
X494690D01*
X457383Y5082540D01*
X477865D01*
X485766Y5104339D01*
X524536D01*
X532729Y5082540D01*
X553797D01*
X515173Y5178662D01*
D02*
G37*
G36*
X633240D02*
X557309D01*
Y5162422D01*
X585545D01*
Y5082540D01*
X605004D01*
Y5162422D01*
X633240D01*
Y5178662D01*
D02*
G37*
G36*
X715171D02*
X639239D01*
Y5162422D01*
X667475D01*
Y5082540D01*
X686934D01*
Y5162422D01*
X715171D01*
Y5178662D01*
D02*
G37*
G36*
X954378D02*
X928335D01*
X889272Y5136087D01*
Y5178662D01*
X869814D01*
Y5082540D01*
X889272D01*
Y5111508D01*
X904781Y5127602D01*
X931262Y5082540D01*
X956280D01*
X918240Y5141208D01*
X954378Y5178662D01*
D02*
G37*
%LPD*%
G36*
X809976Y5163592D02*
X812024Y5163446D01*
X815828Y5162422D01*
X819193Y5161105D01*
X821826Y5159642D01*
X822997Y5158911D01*
X824021Y5158179D01*
X824899Y5157448D01*
X825630Y5156862D01*
X826215Y5156277D01*
X826654Y5155838D01*
X826800Y5155692D01*
X826947Y5155546D01*
X828264Y5153936D01*
X829434Y5152181D01*
X830312Y5150279D01*
X831190Y5148230D01*
X832506Y5144134D01*
X833384Y5140184D01*
X833677Y5138282D01*
X833823Y5136526D01*
X834116Y5134917D01*
Y5133600D01*
X834262Y5132430D01*
Y5131552D01*
Y5130967D01*
Y5130820D01*
X834116Y5127748D01*
X833969Y5124968D01*
X833530Y5122188D01*
X833092Y5119848D01*
X832506Y5117507D01*
X831921Y5115458D01*
X831190Y5113556D01*
X830604Y5111947D01*
X829873Y5110484D01*
X829141Y5109167D01*
X828556Y5108143D01*
X827971Y5107265D01*
X827532Y5106534D01*
X827093Y5106095D01*
X826947Y5105802D01*
X826800Y5105656D01*
X825337Y5104193D01*
X823874Y5102876D01*
X822265Y5101852D01*
X820656Y5100828D01*
X819046Y5100096D01*
X817437Y5099365D01*
X814511Y5098341D01*
X811877Y5097756D01*
X810707Y5097609D01*
X809683Y5097463D01*
X808951Y5097317D01*
X807781D01*
X805733Y5097463D01*
X803684Y5097609D01*
X801782Y5098048D01*
X799881Y5098633D01*
X796662Y5099950D01*
X793882Y5101560D01*
X791688Y5103023D01*
X790810Y5103754D01*
X790078Y5104339D01*
X789493Y5104925D01*
X789054Y5105363D01*
X788908Y5105510D01*
X788761Y5105656D01*
X787445Y5107265D01*
X786274Y5109167D01*
X785250Y5111069D01*
X784519Y5113118D01*
X783056Y5117214D01*
X782178Y5121311D01*
X781885Y5123213D01*
X781739Y5124968D01*
X781593Y5126431D01*
X781446Y5127894D01*
X781300Y5128918D01*
Y5129796D01*
Y5130381D01*
Y5130528D01*
X781446Y5133600D01*
X781593Y5136380D01*
X782031Y5139013D01*
X782470Y5141501D01*
X782909Y5143695D01*
X783641Y5145743D01*
X784226Y5147645D01*
X784958Y5149255D01*
X785543Y5150718D01*
X786274Y5151888D01*
X786859Y5153059D01*
X787298Y5153936D01*
X787884Y5154522D01*
X788176Y5154960D01*
X788323Y5155253D01*
X788469Y5155399D01*
X789932Y5156862D01*
X791395Y5158179D01*
X793004Y5159203D01*
X794614Y5160227D01*
X796223Y5161105D01*
X797832Y5161690D01*
X800905Y5162715D01*
X803538Y5163300D01*
X804709Y5163446D01*
X805733Y5163592D01*
X806611Y5163739D01*
X807781D01*
X809976Y5163592D01*
D02*
G37*
G36*
X411882Y5124383D02*
X413638Y5124237D01*
X415247D01*
X416564Y5124090D01*
X417881Y5123944D01*
X418905Y5123798D01*
X419783Y5123651D01*
X420661Y5123505D01*
X421685Y5123359D01*
X422416Y5123066D01*
X422563D01*
X424026Y5122481D01*
X425196Y5121896D01*
X426220Y5121164D01*
X427098Y5120433D01*
X427683Y5119701D01*
X428122Y5119116D01*
X428415Y5118823D01*
X428561Y5118677D01*
X429293Y5117507D01*
X429878Y5116190D01*
X430170Y5115019D01*
X430463Y5113849D01*
X430609Y5112825D01*
X430756Y5112093D01*
Y5111508D01*
Y5111362D01*
X430609Y5109606D01*
X430317Y5107997D01*
X429878Y5106534D01*
X429439Y5105363D01*
X428854Y5104486D01*
X428415Y5103754D01*
X428122Y5103315D01*
X427976Y5103169D01*
X426952Y5102145D01*
X425781Y5101267D01*
X424464Y5100682D01*
X423440Y5100096D01*
X422416Y5099804D01*
X421685Y5099511D01*
X421099Y5099365D01*
X420953D01*
X420368Y5099219D01*
X419636D01*
X417734Y5099072D01*
X415540Y5098926D01*
X413199D01*
X411151Y5098780D01*
X389790D01*
Y5124529D01*
X409834D01*
X411882Y5124383D01*
D02*
G37*
G36*
X410712Y5162568D02*
X414223D01*
X415101Y5162422D01*
X416710D01*
X417296Y5162276D01*
X417442D01*
X419198Y5161983D01*
X420661Y5161544D01*
X421831Y5160959D01*
X422855Y5160374D01*
X423733Y5159789D01*
X424318Y5159350D01*
X424611Y5159057D01*
X424757Y5158911D01*
X425635Y5157740D01*
X426220Y5156570D01*
X426659Y5155399D01*
X426952Y5154229D01*
X427098Y5153351D01*
X427244Y5152473D01*
Y5151888D01*
Y5151742D01*
X427098Y5150132D01*
X426805Y5148523D01*
X426366Y5147353D01*
X425781Y5146182D01*
X425196Y5145304D01*
X424757Y5144719D01*
X424464Y5144280D01*
X424318Y5144134D01*
X423148Y5143256D01*
X421977Y5142378D01*
X420661Y5141793D01*
X419344Y5141354D01*
X418320Y5141062D01*
X417442Y5140915D01*
X416857Y5140769D01*
X415979D01*
X415101Y5140623D01*
X410858D01*
X408371Y5140476D01*
X389790D01*
Y5162715D01*
X409249D01*
X410712Y5162568D01*
D02*
G37*
G36*
X518245Y5120579D02*
X491764D01*
X504785Y5156277D01*
X518245Y5120579D01*
D02*
G37*
%LPC*%
G36*
X1175353Y3908055D02*
X1173888D01*
X1166809Y3907811D01*
X1160219Y3907079D01*
X1154361Y3905858D01*
X1149235Y3904882D01*
X1147038Y3904149D01*
X1145085Y3903661D01*
X1143376Y3902929D01*
X1141912Y3902441D01*
X1140691Y3902197D01*
X1139959Y3901708D01*
X1139471Y3901464D01*
X1139227D01*
X1135077Y3899512D01*
X1131172Y3897315D01*
X1127754Y3894874D01*
X1124581Y3892433D01*
X1122140Y3890480D01*
X1120187Y3888771D01*
X1118967Y3887551D01*
X1118479Y3887063D01*
X1115306Y3883401D01*
X1112132Y3879496D01*
X1109691Y3875835D01*
X1107495Y3872417D01*
X1105786Y3869488D01*
X1104565Y3867047D01*
X1103833Y3865583D01*
X1103589Y3865338D01*
Y3865094D01*
X1101148Y3858504D01*
X1099440Y3851669D01*
X1098219Y3844835D01*
X1097487Y3838244D01*
X1096999Y3835315D01*
Y3832630D01*
X1096754Y3830189D01*
X1096510Y3827992D01*
Y3826283D01*
Y3825063D01*
Y3824087D01*
Y3823842D01*
X1096754Y3816764D01*
X1097487Y3810173D01*
X1098463Y3804071D01*
X1099684Y3798213D01*
X1101392Y3792843D01*
X1103101Y3787961D01*
X1105054Y3783567D01*
X1107006Y3779417D01*
X1108959Y3775756D01*
X1110912Y3772583D01*
X1112621Y3769898D01*
X1114329Y3767701D01*
X1115550Y3765992D01*
X1116526Y3764772D01*
X1117258Y3764039D01*
X1117502Y3763795D01*
X1121652Y3759890D01*
X1126046Y3756717D01*
X1130439Y3753788D01*
X1135321Y3751347D01*
X1139959Y3749150D01*
X1144597Y3747441D01*
X1149235Y3745977D01*
X1153628Y3744756D01*
X1157778Y3743780D01*
X1161683Y3743291D01*
X1165345Y3742803D01*
X1168274Y3742315D01*
X1170715D01*
X1172668Y3742071D01*
X1174132D01*
X1180723Y3742315D01*
X1186825Y3743047D01*
X1192439Y3744024D01*
X1197809Y3745488D01*
X1202935Y3747197D01*
X1207573Y3748906D01*
X1211723Y3750858D01*
X1215628Y3753055D01*
X1219046Y3755008D01*
X1221975Y3756961D01*
X1224660Y3758669D01*
X1226612Y3760378D01*
X1228321Y3761843D01*
X1229542Y3762819D01*
X1230274Y3763551D01*
X1230518Y3763795D01*
X1234179Y3768189D01*
X1237597Y3772827D01*
X1240282Y3777709D01*
X1242723Y3782591D01*
X1244920Y3787717D01*
X1246628Y3792843D01*
X1248093Y3797724D01*
X1249069Y3802606D01*
X1250046Y3807000D01*
X1250534Y3811394D01*
X1251022Y3815055D01*
X1251510Y3818472D01*
Y3821157D01*
X1251754Y3823110D01*
Y3824331D01*
Y3824819D01*
X1251510Y3831898D01*
X1250778Y3838732D01*
X1249801Y3845079D01*
X1248337Y3850937D01*
X1246872Y3856307D01*
X1245164Y3861189D01*
X1243211Y3865827D01*
X1241258Y3869976D01*
X1239061Y3873638D01*
X1237353Y3876811D01*
X1235400Y3879496D01*
X1233935Y3881693D01*
X1232471Y3883646D01*
X1231494Y3884866D01*
X1230762Y3885598D01*
X1230518Y3885842D01*
X1226368Y3889748D01*
X1221975Y3893165D01*
X1217337Y3896094D01*
X1212699Y3898779D01*
X1208061Y3900732D01*
X1203179Y3902685D01*
X1198786Y3904149D01*
X1194148Y3905370D01*
X1189998Y3906102D01*
X1186093Y3906834D01*
X1182676Y3907323D01*
X1179746Y3907811D01*
X1177305D01*
X1175353Y3908055D01*
D02*
G37*
G36*
X1404557Y3905370D02*
X1374533D01*
Y3797724D01*
X1308384Y3905370D01*
X1277140D01*
Y3745000D01*
X1307164D01*
Y3850205D01*
X1372093Y3745000D01*
X1404557D01*
Y3905370D01*
D02*
G37*
%LPD*%
G36*
X1177794Y3880228D02*
X1181211Y3879984D01*
X1187557Y3878275D01*
X1193172Y3876079D01*
X1197565Y3873638D01*
X1199518Y3872417D01*
X1201227Y3871197D01*
X1202691Y3869976D01*
X1203912Y3869000D01*
X1204888Y3868024D01*
X1205620Y3867291D01*
X1205864Y3867047D01*
X1206109Y3866803D01*
X1208305Y3864118D01*
X1210258Y3861189D01*
X1211723Y3858016D01*
X1213187Y3854598D01*
X1215384Y3847764D01*
X1216849Y3841173D01*
X1217337Y3838000D01*
X1217581Y3835071D01*
X1218069Y3832386D01*
Y3830189D01*
X1218313Y3828236D01*
Y3826772D01*
Y3825795D01*
Y3825551D01*
X1218069Y3820425D01*
X1217825Y3815787D01*
X1217093Y3811150D01*
X1216361Y3807244D01*
X1215384Y3803339D01*
X1214408Y3799921D01*
X1213187Y3796748D01*
X1212211Y3794063D01*
X1210990Y3791622D01*
X1209770Y3789425D01*
X1208794Y3787717D01*
X1207817Y3786252D01*
X1207085Y3785032D01*
X1206353Y3784299D01*
X1206109Y3783811D01*
X1205864Y3783567D01*
X1203424Y3781126D01*
X1200983Y3778929D01*
X1198298Y3777221D01*
X1195613Y3775512D01*
X1192928Y3774291D01*
X1190242Y3773071D01*
X1185361Y3771362D01*
X1180967Y3770386D01*
X1179014Y3770142D01*
X1177305Y3769898D01*
X1176085Y3769654D01*
X1174132D01*
X1170715Y3769898D01*
X1167298Y3770142D01*
X1164124Y3770874D01*
X1160951Y3771850D01*
X1155581Y3774047D01*
X1150943Y3776732D01*
X1147282Y3779173D01*
X1145817Y3780394D01*
X1144597Y3781370D01*
X1143621Y3782347D01*
X1142888Y3783079D01*
X1142644Y3783323D01*
X1142400Y3783567D01*
X1140203Y3786252D01*
X1138250Y3789425D01*
X1136542Y3792598D01*
X1135321Y3796016D01*
X1132880Y3802850D01*
X1131416Y3809685D01*
X1130928Y3812858D01*
X1130684Y3815787D01*
X1130439Y3818228D01*
X1130195Y3820669D01*
X1129951Y3822378D01*
Y3823842D01*
Y3824819D01*
Y3825063D01*
X1130195Y3830189D01*
X1130439Y3834827D01*
X1131172Y3839220D01*
X1131904Y3843370D01*
X1132636Y3847031D01*
X1133857Y3850449D01*
X1134833Y3853622D01*
X1136054Y3856307D01*
X1137030Y3858748D01*
X1138250Y3860701D01*
X1139227Y3862653D01*
X1139959Y3864118D01*
X1140935Y3865094D01*
X1141424Y3865827D01*
X1141668Y3866315D01*
X1141912Y3866559D01*
X1144353Y3869000D01*
X1146794Y3871197D01*
X1149479Y3872905D01*
X1152164Y3874614D01*
X1154849Y3876079D01*
X1157534Y3877055D01*
X1162660Y3878764D01*
X1167054Y3879740D01*
X1169006Y3879984D01*
X1170715Y3880228D01*
X1172180Y3880472D01*
X1174132D01*
X1177794Y3880228D01*
D02*
G37*
%LPC*%
G36*
X1382589Y3430370D02*
X1350124D01*
Y3367149D01*
X1286904D01*
Y3430370D01*
X1254439D01*
Y3270000D01*
X1286904D01*
Y3340055D01*
X1350124D01*
Y3270000D01*
X1382589D01*
Y3430370D01*
D02*
G37*
G36*
X1163636Y3433055D02*
X1160707D01*
X1154117Y3432811D01*
X1148014Y3432078D01*
X1142644Y3431346D01*
X1138006Y3430370D01*
X1134345Y3429149D01*
X1132880Y3428661D01*
X1131660Y3428417D01*
X1130684Y3427929D01*
X1129707Y3427685D01*
X1129463Y3427441D01*
X1129219D01*
X1124581Y3425244D01*
X1120676Y3422559D01*
X1117258Y3419874D01*
X1114573Y3417189D01*
X1112376Y3414748D01*
X1110668Y3412795D01*
X1109691Y3411575D01*
X1109447Y3411330D01*
Y3411086D01*
X1107251Y3406937D01*
X1105542Y3403031D01*
X1104321Y3399126D01*
X1103589Y3395708D01*
X1103101Y3392535D01*
X1102613Y3390338D01*
Y3389362D01*
Y3388630D01*
Y3388386D01*
Y3388142D01*
X1102857Y3384724D01*
X1103345Y3381307D01*
X1104077Y3378134D01*
X1104810Y3375205D01*
X1107251Y3369590D01*
X1109936Y3364953D01*
X1111400Y3363000D01*
X1112621Y3361047D01*
X1113841Y3359583D01*
X1115062Y3358362D01*
X1115794Y3357386D01*
X1116526Y3356653D01*
X1117014Y3356165D01*
X1117258Y3355921D01*
X1119455Y3354212D01*
X1121896Y3352504D01*
X1127266Y3349331D01*
X1133369Y3346646D01*
X1139471Y3344449D01*
X1144841Y3342496D01*
X1147282Y3341764D01*
X1149479Y3341276D01*
X1151187Y3340787D01*
X1152408Y3340299D01*
X1153384Y3340055D01*
X1153628D01*
X1157290Y3339079D01*
X1160463Y3338346D01*
X1163392Y3337614D01*
X1166077Y3336882D01*
X1168518Y3336150D01*
X1170471Y3335661D01*
X1172424Y3335173D01*
X1173888Y3334685D01*
X1176329Y3333953D01*
X1178038Y3333465D01*
X1179014Y3332976D01*
X1179258D01*
X1182187Y3331756D01*
X1184628Y3330535D01*
X1186581Y3329559D01*
X1188290Y3328339D01*
X1189510Y3327362D01*
X1190242Y3326630D01*
X1190731Y3326142D01*
X1190975Y3325898D01*
X1192195Y3324433D01*
X1192928Y3322724D01*
X1193904Y3319795D01*
X1194148Y3318331D01*
X1194392Y3317354D01*
Y3316622D01*
Y3316378D01*
X1194148Y3313205D01*
X1193172Y3310276D01*
X1191951Y3307591D01*
X1190487Y3305394D01*
X1188778Y3303441D01*
X1187557Y3302220D01*
X1186581Y3301244D01*
X1186337Y3301000D01*
X1183164Y3298803D01*
X1179502Y3297094D01*
X1175597Y3296118D01*
X1171691Y3295142D01*
X1168274Y3294654D01*
X1165589Y3294409D01*
X1162904D01*
X1157534Y3294654D01*
X1152896Y3295630D01*
X1148991Y3296850D01*
X1145573Y3298071D01*
X1142888Y3299535D01*
X1140935Y3300512D01*
X1139715Y3301488D01*
X1139227Y3301732D01*
X1136298Y3304906D01*
X1133857Y3308567D01*
X1131904Y3312472D01*
X1130439Y3316134D01*
X1129219Y3319795D01*
X1128487Y3322480D01*
X1128243Y3323701D01*
Y3324433D01*
X1127999Y3324921D01*
Y3325165D01*
X1096510Y3321992D01*
X1097243Y3317110D01*
X1098219Y3312472D01*
X1099440Y3308079D01*
X1100660Y3304173D01*
X1102369Y3300512D01*
X1103833Y3297094D01*
X1105542Y3294165D01*
X1107251Y3291236D01*
X1108959Y3289039D01*
X1110424Y3286843D01*
X1111888Y3285134D01*
X1113109Y3283669D01*
X1114329Y3282449D01*
X1115062Y3281717D01*
X1115550Y3281228D01*
X1115794Y3280984D01*
X1118967Y3278543D01*
X1122628Y3276347D01*
X1126290Y3274638D01*
X1129951Y3272929D01*
X1133857Y3271709D01*
X1137762Y3270488D01*
X1145329Y3268780D01*
X1148991Y3268291D01*
X1152164Y3267803D01*
X1155093Y3267559D01*
X1157534Y3267315D01*
X1159731Y3267071D01*
X1162660D01*
X1170227Y3267315D01*
X1176817Y3268047D01*
X1182676Y3268780D01*
X1187802Y3270000D01*
X1189998Y3270488D01*
X1191951Y3270976D01*
X1193416Y3271465D01*
X1194880Y3271709D01*
X1195857Y3272197D01*
X1196589Y3272441D01*
X1197077Y3272685D01*
X1197321D01*
X1202447Y3275126D01*
X1206597Y3278055D01*
X1210502Y3280984D01*
X1213431Y3283913D01*
X1215872Y3286354D01*
X1217581Y3288551D01*
X1218801Y3290016D01*
X1219046Y3290260D01*
Y3290504D01*
X1221731Y3295142D01*
X1223683Y3299780D01*
X1224904Y3304173D01*
X1225880Y3308079D01*
X1226368Y3311496D01*
X1226857Y3314181D01*
Y3315157D01*
Y3315890D01*
Y3316378D01*
Y3316622D01*
X1226612Y3321992D01*
X1225880Y3326874D01*
X1224660Y3331268D01*
X1223683Y3334929D01*
X1222463Y3337858D01*
X1221242Y3340299D01*
X1220510Y3341520D01*
X1220266Y3342008D01*
X1217581Y3345669D01*
X1214896Y3349087D01*
X1211967Y3351772D01*
X1209038Y3354212D01*
X1206597Y3355921D01*
X1204644Y3357386D01*
X1203179Y3358118D01*
X1202935Y3358362D01*
X1202691D01*
X1200494Y3359583D01*
X1198053Y3360559D01*
X1192439Y3362756D01*
X1186825Y3364464D01*
X1180967Y3366417D01*
X1175841Y3367638D01*
X1173644Y3368370D01*
X1171691Y3368858D01*
X1169983Y3369346D01*
X1168762Y3369590D01*
X1168030Y3369835D01*
X1167786D01*
X1163636Y3370811D01*
X1159731Y3372031D01*
X1156313Y3373008D01*
X1153384Y3373984D01*
X1150455Y3374716D01*
X1148258Y3375693D01*
X1146061Y3376425D01*
X1144353Y3377401D01*
X1142644Y3378134D01*
X1141424Y3378622D01*
X1139471Y3379598D01*
X1138495Y3380331D01*
X1138250Y3380575D01*
X1136786Y3382283D01*
X1135565Y3383748D01*
X1134833Y3385457D01*
X1134101Y3386921D01*
X1133857Y3388386D01*
X1133613Y3389362D01*
Y3390094D01*
Y3390338D01*
X1133857Y3392535D01*
X1134345Y3394488D01*
X1135077Y3396197D01*
X1136054Y3397661D01*
X1137030Y3398882D01*
X1137762Y3399614D01*
X1138250Y3400102D01*
X1138495Y3400346D01*
X1141668Y3402299D01*
X1145329Y3403764D01*
X1148991Y3404740D01*
X1152408Y3405472D01*
X1155581Y3405960D01*
X1158266Y3406205D01*
X1160463D01*
X1165345Y3405960D01*
X1169494Y3405228D01*
X1172912Y3404496D01*
X1175841Y3403519D01*
X1178038Y3402299D01*
X1179502Y3401567D01*
X1180479Y3400834D01*
X1180723Y3400590D01*
X1183164Y3398394D01*
X1185117Y3395708D01*
X1186581Y3392779D01*
X1187802Y3389850D01*
X1188778Y3387165D01*
X1189266Y3384968D01*
X1189754Y3383504D01*
Y3383260D01*
Y3383016D01*
X1222219Y3384236D01*
X1221975Y3388142D01*
X1221242Y3392047D01*
X1220266Y3395708D01*
X1219290Y3399126D01*
X1216605Y3404984D01*
X1215384Y3407669D01*
X1213920Y3410110D01*
X1212455Y3412307D01*
X1210990Y3414260D01*
X1209770Y3415968D01*
X1208550Y3417189D01*
X1207573Y3418165D01*
X1206841Y3418897D01*
X1206353Y3419386D01*
X1206109Y3419630D01*
X1203179Y3422071D01*
X1199762Y3424023D01*
X1196345Y3425976D01*
X1192683Y3427441D01*
X1185117Y3429882D01*
X1177794Y3431346D01*
X1174376Y3431834D01*
X1171203Y3432323D01*
X1168274Y3432567D01*
X1165589Y3432811D01*
X1163636Y3433055D01*
D02*
G37*
G36*
X1488281D02*
X1486817D01*
X1479738Y3432811D01*
X1473147Y3432078D01*
X1467289Y3430858D01*
X1462163Y3429882D01*
X1459966Y3429149D01*
X1458014Y3428661D01*
X1456305Y3427929D01*
X1454840Y3427441D01*
X1453620Y3427197D01*
X1452888Y3426708D01*
X1452399Y3426464D01*
X1452155D01*
X1448006Y3424512D01*
X1444100Y3422315D01*
X1440683Y3419874D01*
X1437510Y3417433D01*
X1435069Y3415480D01*
X1433116Y3413771D01*
X1431896Y3412551D01*
X1431407Y3412063D01*
X1428234Y3408401D01*
X1425061Y3404496D01*
X1422620Y3400834D01*
X1420423Y3397417D01*
X1418714Y3394488D01*
X1417494Y3392047D01*
X1416762Y3390583D01*
X1416518Y3390338D01*
Y3390094D01*
X1414077Y3383504D01*
X1412368Y3376669D01*
X1411148Y3369835D01*
X1410415Y3363244D01*
X1409927Y3360315D01*
Y3357630D01*
X1409683Y3355189D01*
X1409439Y3352992D01*
Y3351283D01*
Y3350063D01*
Y3349087D01*
Y3348842D01*
X1409683Y3341764D01*
X1410415Y3335173D01*
X1411392Y3329071D01*
X1412612Y3323213D01*
X1414321Y3317842D01*
X1416029Y3312961D01*
X1417982Y3308567D01*
X1419935Y3304417D01*
X1421888Y3300756D01*
X1423840Y3297583D01*
X1425549Y3294898D01*
X1427258Y3292701D01*
X1428478Y3290992D01*
X1429455Y3289772D01*
X1430187Y3289039D01*
X1430431Y3288795D01*
X1434581Y3284890D01*
X1438974Y3281717D01*
X1443368Y3278787D01*
X1448250Y3276347D01*
X1452888Y3274150D01*
X1457525Y3272441D01*
X1462163Y3270976D01*
X1466557Y3269756D01*
X1470706Y3268780D01*
X1474612Y3268291D01*
X1478273Y3267803D01*
X1481203Y3267315D01*
X1483643D01*
X1485596Y3267071D01*
X1487061D01*
X1493651Y3267315D01*
X1499754Y3268047D01*
X1505368Y3269024D01*
X1510738Y3270488D01*
X1515864Y3272197D01*
X1520502Y3273906D01*
X1524651Y3275858D01*
X1528557Y3278055D01*
X1531974Y3280008D01*
X1534903Y3281961D01*
X1537588Y3283669D01*
X1539541Y3285378D01*
X1541250Y3286843D01*
X1542470Y3287819D01*
X1543202Y3288551D01*
X1543446Y3288795D01*
X1547108Y3293189D01*
X1550525Y3297827D01*
X1553210Y3302709D01*
X1555651Y3307591D01*
X1557848Y3312717D01*
X1559557Y3317842D01*
X1561021Y3322724D01*
X1561998Y3327606D01*
X1562974Y3332000D01*
X1563462Y3336394D01*
X1563950Y3340055D01*
X1564439Y3343472D01*
Y3346157D01*
X1564683Y3348110D01*
Y3349331D01*
Y3349819D01*
X1564439Y3356898D01*
X1563706Y3363732D01*
X1562730Y3370079D01*
X1561265Y3375937D01*
X1559801Y3381307D01*
X1558092Y3386189D01*
X1556139Y3390827D01*
X1554187Y3394976D01*
X1551990Y3398638D01*
X1550281Y3401811D01*
X1548328Y3404496D01*
X1546864Y3406693D01*
X1545399Y3408645D01*
X1544423Y3409866D01*
X1543691Y3410598D01*
X1543446Y3410842D01*
X1539297Y3414748D01*
X1534903Y3418165D01*
X1530265Y3421094D01*
X1525628Y3423779D01*
X1520990Y3425732D01*
X1516108Y3427685D01*
X1511714Y3429149D01*
X1507076Y3430370D01*
X1502927Y3431102D01*
X1499021Y3431834D01*
X1495604Y3432323D01*
X1492675Y3432811D01*
X1490234D01*
X1488281Y3433055D01*
D02*
G37*
G36*
X1661832Y3430370D02*
X1590068D01*
Y3270000D01*
X1622533D01*
Y3336882D01*
X1632785D01*
X1636202Y3336638D01*
X1638887Y3336394D01*
X1641084Y3335905D01*
X1642793Y3335661D01*
X1644013Y3335173D01*
X1644746Y3334929D01*
X1644990D01*
X1646942Y3334197D01*
X1648651Y3333220D01*
X1651824Y3331024D01*
X1653045Y3330047D01*
X1654021Y3329071D01*
X1654509Y3328583D01*
X1654753Y3328339D01*
X1655730Y3327362D01*
X1656706Y3325898D01*
X1659391Y3322480D01*
X1662320Y3318819D01*
X1665005Y3314669D01*
X1667690Y3310764D01*
X1668911Y3309299D01*
X1669887Y3307591D01*
X1670619Y3306370D01*
X1671352Y3305394D01*
X1671596Y3304906D01*
X1671840Y3304661D01*
X1694785Y3270000D01*
X1733596D01*
X1714068Y3301244D01*
X1711871Y3304661D01*
X1709919Y3307591D01*
X1708210Y3310520D01*
X1706257Y3313205D01*
X1703328Y3317598D01*
X1700643Y3321260D01*
X1698446Y3323945D01*
X1696982Y3325653D01*
X1696005Y3326874D01*
X1695761Y3327118D01*
X1693076Y3329803D01*
X1690147Y3332244D01*
X1687218Y3334685D01*
X1684533Y3336638D01*
X1682092Y3338346D01*
X1680139Y3339567D01*
X1678919Y3340299D01*
X1678675Y3340543D01*
X1678430D01*
X1682336Y3341276D01*
X1685753Y3342008D01*
X1689171Y3342984D01*
X1692100Y3344205D01*
X1695029Y3345425D01*
X1697714Y3346646D01*
X1699911Y3347866D01*
X1702108Y3349087D01*
X1703816Y3350307D01*
X1705525Y3351527D01*
X1706745Y3352748D01*
X1707966Y3353480D01*
X1708698Y3354457D01*
X1709430Y3354945D01*
X1709919Y3355189D01*
Y3355433D01*
X1711871Y3357630D01*
X1713580Y3360071D01*
X1716021Y3364953D01*
X1717974Y3370079D01*
X1719438Y3374716D01*
X1720171Y3378866D01*
X1720415Y3380575D01*
Y3382283D01*
X1720659Y3383504D01*
Y3384480D01*
Y3384968D01*
Y3385212D01*
X1720415Y3390338D01*
X1719682Y3395220D01*
X1718462Y3399370D01*
X1717241Y3403031D01*
X1715777Y3406205D01*
X1714800Y3408401D01*
X1713824Y3409866D01*
X1713580Y3410354D01*
X1710651Y3414260D01*
X1707722Y3417433D01*
X1704549Y3420118D01*
X1701619Y3422315D01*
X1698934Y3424023D01*
X1696738Y3425244D01*
X1695273Y3425732D01*
X1695029Y3425976D01*
X1694785D01*
X1692588Y3426708D01*
X1689903Y3427441D01*
X1684045Y3428417D01*
X1677942Y3429393D01*
X1671840Y3429882D01*
X1669155Y3430126D01*
X1664029D01*
X1661832Y3430370D01*
D02*
G37*
G36*
X1867115D02*
X1740430D01*
Y3403275D01*
X1787540D01*
Y3270000D01*
X1820005D01*
Y3403275D01*
X1867115D01*
Y3430370D01*
D02*
G37*
%LPD*%
G36*
X1490722Y3405228D02*
X1494140Y3404984D01*
X1500486Y3403275D01*
X1506100Y3401079D01*
X1510494Y3398638D01*
X1512447Y3397417D01*
X1514155Y3396197D01*
X1515620Y3394976D01*
X1516840Y3394000D01*
X1517817Y3393023D01*
X1518549Y3392291D01*
X1518793Y3392047D01*
X1519037Y3391803D01*
X1521234Y3389118D01*
X1523187Y3386189D01*
X1524651Y3383016D01*
X1526116Y3379598D01*
X1528313Y3372764D01*
X1529777Y3366173D01*
X1530265Y3363000D01*
X1530510Y3360071D01*
X1530998Y3357386D01*
Y3355189D01*
X1531242Y3353236D01*
Y3351772D01*
Y3350795D01*
Y3350551D01*
X1530998Y3345425D01*
X1530754Y3340787D01*
X1530021Y3336150D01*
X1529289Y3332244D01*
X1528313Y3328339D01*
X1527336Y3324921D01*
X1526116Y3321748D01*
X1525139Y3319063D01*
X1523919Y3316622D01*
X1522699Y3314425D01*
X1521722Y3312717D01*
X1520746Y3311252D01*
X1520013Y3310031D01*
X1519281Y3309299D01*
X1519037Y3308811D01*
X1518793Y3308567D01*
X1516352Y3306126D01*
X1513911Y3303929D01*
X1511226Y3302220D01*
X1508541Y3300512D01*
X1505856Y3299291D01*
X1503171Y3298071D01*
X1498289Y3296362D01*
X1493895Y3295386D01*
X1491943Y3295142D01*
X1490234Y3294898D01*
X1489014Y3294654D01*
X1487061D01*
X1483643Y3294898D01*
X1480226Y3295142D01*
X1477053Y3295874D01*
X1473880Y3296850D01*
X1468510Y3299047D01*
X1463872Y3301732D01*
X1460210Y3304173D01*
X1458746Y3305394D01*
X1457525Y3306370D01*
X1456549Y3307346D01*
X1455817Y3308079D01*
X1455573Y3308323D01*
X1455329Y3308567D01*
X1453132Y3311252D01*
X1451179Y3314425D01*
X1449470Y3317598D01*
X1448250Y3321016D01*
X1445809Y3327850D01*
X1444344Y3334685D01*
X1443856Y3337858D01*
X1443612Y3340787D01*
X1443368Y3343228D01*
X1443124Y3345669D01*
X1442880Y3347378D01*
Y3348842D01*
Y3349819D01*
Y3350063D01*
X1443124Y3355189D01*
X1443368Y3359827D01*
X1444100Y3364220D01*
X1444833Y3368370D01*
X1445565Y3372031D01*
X1446785Y3375449D01*
X1447762Y3378622D01*
X1448982Y3381307D01*
X1449958Y3383748D01*
X1451179Y3385701D01*
X1452155Y3387653D01*
X1452888Y3389118D01*
X1453864Y3390094D01*
X1454352Y3390827D01*
X1454596Y3391315D01*
X1454840Y3391559D01*
X1457281Y3394000D01*
X1459722Y3396197D01*
X1462407Y3397905D01*
X1465092Y3399614D01*
X1467777Y3401079D01*
X1470462Y3402055D01*
X1475588Y3403764D01*
X1479982Y3404740D01*
X1481935Y3404984D01*
X1483643Y3405228D01*
X1485108Y3405472D01*
X1487061D01*
X1490722Y3405228D01*
D02*
G37*
G36*
X1661588Y3403031D02*
X1666470D01*
X1668667Y3402787D01*
X1669887D01*
X1670619Y3402543D01*
X1670864D01*
X1673549Y3401811D01*
X1675990Y3401079D01*
X1677942Y3400102D01*
X1679651Y3398882D01*
X1681116Y3397905D01*
X1682092Y3396929D01*
X1682580Y3396441D01*
X1682824Y3396197D01*
X1684289Y3394244D01*
X1685265Y3392047D01*
X1686241Y3389850D01*
X1686730Y3387897D01*
X1686974Y3386189D01*
X1687218Y3384724D01*
Y3383504D01*
Y3383260D01*
X1686974Y3380575D01*
X1686730Y3378378D01*
X1686241Y3376181D01*
X1685509Y3374472D01*
X1684777Y3373008D01*
X1684289Y3372031D01*
X1684045Y3371299D01*
X1683801Y3371055D01*
X1682580Y3369346D01*
X1681116Y3368126D01*
X1678186Y3365929D01*
X1676722Y3365441D01*
X1675745Y3364953D01*
X1675013Y3364464D01*
X1674769D01*
X1673549Y3364220D01*
X1671840Y3363732D01*
X1670131Y3363488D01*
X1667934Y3363244D01*
X1663297Y3363000D01*
X1658415Y3362756D01*
X1653777Y3362512D01*
X1622533D01*
Y3403275D01*
X1659391D01*
X1661588Y3403031D01*
D02*
G37*
%LPC*%
G36*
X2714574Y4313630D02*
X2712378D01*
X2708716Y4313386D01*
X2705299Y4312898D01*
X2701882Y4312165D01*
X2699197Y4311433D01*
X2696756Y4310457D01*
X2694803Y4309724D01*
X2693826Y4309236D01*
X2693338Y4308992D01*
X2690165Y4307039D01*
X2686992Y4304843D01*
X2684307Y4302646D01*
X2681866Y4300205D01*
X2679913Y4298252D01*
X2678204Y4296543D01*
X2677228Y4295567D01*
X2676984Y4295079D01*
X2674787Y4298252D01*
X2672590Y4301181D01*
X2670393Y4303622D01*
X2668197Y4305575D01*
X2666244Y4307039D01*
X2664779Y4308016D01*
X2663803Y4308748D01*
X2663315Y4308992D01*
X2660141Y4310457D01*
X2656968Y4311677D01*
X2653795Y4312409D01*
X2650622Y4313142D01*
X2647937Y4313386D01*
X2645984Y4313630D01*
X2644031D01*
X2640126Y4313386D01*
X2636464Y4312898D01*
X2632803Y4311921D01*
X2629630Y4310701D01*
X2623283Y4307772D01*
X2620598Y4306307D01*
X2618157Y4304598D01*
X2615716Y4302890D01*
X2613764Y4301181D01*
X2612055Y4299472D01*
X2610590Y4298252D01*
X2609370Y4297032D01*
X2608638Y4296055D01*
X2608149Y4295567D01*
X2607905Y4295323D01*
Y4311189D01*
X2579590D01*
Y4195000D01*
X2610346D01*
Y4251386D01*
Y4257244D01*
X2610835Y4262126D01*
X2611079Y4266276D01*
X2611567Y4269449D01*
X2612055Y4271890D01*
X2612299Y4273599D01*
X2612787Y4274819D01*
Y4275063D01*
X2613764Y4277748D01*
X2614984Y4279945D01*
X2616449Y4281898D01*
X2617669Y4283362D01*
X2618890Y4284583D01*
X2619866Y4285559D01*
X2620598Y4286047D01*
X2620842Y4286291D01*
X2623039Y4287512D01*
X2625236Y4288488D01*
X2627433Y4289221D01*
X2629386Y4289709D01*
X2631094Y4289953D01*
X2632559Y4290197D01*
X2635976D01*
X2637685Y4289709D01*
X2639394Y4289465D01*
X2640614Y4288976D01*
X2641590Y4288488D01*
X2642323Y4288244D01*
X2642811Y4287756D01*
X2643055D01*
X2645252Y4285559D01*
X2646960Y4283118D01*
X2647449Y4282142D01*
X2647937Y4281165D01*
X2648181Y4280677D01*
Y4280433D01*
X2648425Y4279457D01*
X2648669Y4277992D01*
X2649157Y4275063D01*
X2649401Y4271402D01*
X2649645Y4267740D01*
X2649890Y4264079D01*
Y4261150D01*
Y4260173D01*
Y4259197D01*
Y4258709D01*
Y4258465D01*
Y4195000D01*
X2680645D01*
Y4250654D01*
Y4256268D01*
X2681134Y4261394D01*
X2681378Y4265299D01*
X2681866Y4268717D01*
X2682354Y4271402D01*
X2682598Y4273110D01*
X2683086Y4274331D01*
Y4274575D01*
X2684063Y4277260D01*
X2685283Y4279457D01*
X2686748Y4281654D01*
X2687968Y4283118D01*
X2689189Y4284339D01*
X2690165Y4285315D01*
X2690897Y4285803D01*
X2691141Y4286047D01*
X2693338Y4287512D01*
X2695535Y4288488D01*
X2697488Y4289221D01*
X2699441Y4289709D01*
X2701149Y4289953D01*
X2702370Y4290197D01*
X2703346D01*
X2706519Y4289953D01*
X2709204Y4289221D01*
X2711401Y4288000D01*
X2713354Y4287024D01*
X2714574Y4285803D01*
X2715795Y4284583D01*
X2716283Y4283850D01*
X2716527Y4283606D01*
X2717015Y4282630D01*
X2717504Y4281165D01*
X2718480Y4277992D01*
X2718968Y4274331D01*
X2719212Y4270425D01*
X2719456Y4267008D01*
X2719700Y4263835D01*
Y4262858D01*
Y4261882D01*
Y4261394D01*
Y4261150D01*
Y4195000D01*
X2750456D01*
Y4268961D01*
X2750212Y4274819D01*
X2749968Y4279701D01*
X2749480Y4283850D01*
X2748992Y4287268D01*
X2748259Y4289953D01*
X2747771Y4291661D01*
X2747527Y4292882D01*
X2747283Y4293126D01*
X2745574Y4296543D01*
X2743378Y4299717D01*
X2741181Y4302402D01*
X2738984Y4304354D01*
X2737031Y4306063D01*
X2735322Y4307283D01*
X2734346Y4308016D01*
X2733858Y4308260D01*
X2730441Y4309969D01*
X2726779Y4311433D01*
X2723118Y4312409D01*
X2719945Y4312898D01*
X2716771Y4313386D01*
X2714574Y4313630D01*
D02*
G37*
G36*
X3122700D02*
X3120991D01*
X3116841Y4313386D01*
X3112692Y4312898D01*
X3109030Y4311921D01*
X3105369Y4310701D01*
X3101952Y4308992D01*
X3098778Y4307528D01*
X3096093Y4305575D01*
X3093408Y4303866D01*
X3090967Y4302158D01*
X3089015Y4300205D01*
X3087062Y4298740D01*
X3085597Y4297276D01*
X3084377Y4295811D01*
X3083645Y4294835D01*
X3083156Y4294347D01*
X3082912Y4294102D01*
Y4311189D01*
X3054353D01*
Y4195000D01*
X3085109D01*
Y4247480D01*
Y4250898D01*
Y4254315D01*
X3085353Y4257244D01*
Y4259929D01*
X3085597Y4262370D01*
X3085841Y4264567D01*
X3086086Y4266520D01*
X3086330Y4268228D01*
X3086574Y4270913D01*
X3087062Y4272622D01*
X3087306Y4273843D01*
Y4274087D01*
X3088282Y4276772D01*
X3089747Y4278969D01*
X3091211Y4280921D01*
X3092432Y4282630D01*
X3093897Y4284095D01*
X3094873Y4285071D01*
X3095605Y4285559D01*
X3095849Y4285803D01*
X3098290Y4287268D01*
X3100731Y4288244D01*
X3103172Y4289221D01*
X3105369Y4289709D01*
X3107322Y4289953D01*
X3108786Y4290197D01*
X3110251D01*
X3112448Y4289953D01*
X3114400Y4289709D01*
X3116353Y4289221D01*
X3117818Y4288732D01*
X3119038Y4288000D01*
X3120015Y4287512D01*
X3120503Y4287268D01*
X3120747Y4287024D01*
X3123676Y4284339D01*
X3125629Y4281410D01*
X3126361Y4280189D01*
X3126849Y4279213D01*
X3127093Y4278480D01*
Y4278236D01*
X3127582Y4277016D01*
X3127826Y4275551D01*
X3128314Y4272134D01*
X3128802Y4268228D01*
X3129046Y4264079D01*
X3129290Y4260417D01*
Y4258709D01*
Y4257000D01*
Y4255780D01*
Y4254803D01*
Y4254315D01*
Y4254071D01*
Y4195000D01*
X3160046D01*
Y4267008D01*
Y4271646D01*
X3159802Y4275795D01*
X3159558Y4279457D01*
X3159314Y4282386D01*
X3158826Y4284583D01*
X3158581Y4286291D01*
X3158337Y4287268D01*
Y4287512D01*
X3157605Y4290197D01*
X3156629Y4292638D01*
X3155652Y4294835D01*
X3154676Y4296787D01*
X3153700Y4298252D01*
X3152967Y4299472D01*
X3152479Y4300205D01*
X3152235Y4300449D01*
X3150526Y4302646D01*
X3148329Y4304354D01*
X3146377Y4306063D01*
X3144180Y4307528D01*
X3142471Y4308504D01*
X3141007Y4309236D01*
X3140030Y4309724D01*
X3139542Y4309969D01*
X3136369Y4311189D01*
X3133196Y4312165D01*
X3130022Y4312654D01*
X3127093Y4313142D01*
X3124652Y4313386D01*
X3122700Y4313630D01*
D02*
G37*
G36*
X3549864Y4355858D02*
X3524722D01*
X3522526Y4350488D01*
X3519596Y4345606D01*
X3516423Y4341213D01*
X3513250Y4337551D01*
X3510077Y4334378D01*
X3507636Y4332181D01*
X3506904Y4331449D01*
X3506171Y4330717D01*
X3505683Y4330472D01*
X3505439Y4330228D01*
X3500313Y4326323D01*
X3495431Y4323394D01*
X3491037Y4320709D01*
X3487132Y4318756D01*
X3483959Y4317047D01*
X3481518Y4316071D01*
X3480541Y4315827D01*
X3479809Y4315583D01*
X3479565Y4315339D01*
X3479321D01*
Y4287512D01*
X3487620Y4290685D01*
X3495187Y4294347D01*
X3501778Y4298008D01*
X3504951Y4299961D01*
X3507636Y4301913D01*
X3510321Y4303622D01*
X3512518Y4305331D01*
X3514470Y4306795D01*
X3516179Y4308016D01*
X3517400Y4309236D01*
X3518376Y4309969D01*
X3518864Y4310457D01*
X3519108Y4310701D01*
Y4195000D01*
X3549864D01*
Y4355858D01*
D02*
G37*
G36*
X3756124Y4355370D02*
X3725368D01*
Y4195000D01*
X3756124D01*
Y4232103D01*
X3770281Y4247236D01*
X3799572Y4195000D01*
X3832769D01*
X3790053Y4268717D01*
X3829840Y4311189D01*
X3792005D01*
X3756124Y4270181D01*
Y4355370D01*
D02*
G37*
G36*
X2914243D02*
X2879582D01*
X2840527Y4236740D01*
X2799763Y4355370D01*
X2764858D01*
X2822220Y4195000D01*
X2857125D01*
X2914243Y4355370D01*
D02*
G37*
G36*
X3271841D02*
X3237668D01*
X3175424Y4195000D01*
X3209597D01*
X3222778Y4231370D01*
X3287463D01*
X3301132Y4195000D01*
X3336282D01*
X3271841Y4355370D01*
D02*
G37*
G36*
X3649699Y4355858D02*
X3647502D01*
X3643352Y4355614D01*
X3639203Y4355126D01*
X3635541Y4354394D01*
X3631880Y4353173D01*
X3628706Y4351953D01*
X3625777Y4350732D01*
X3623092Y4349024D01*
X3620651Y4347559D01*
X3618455Y4346094D01*
X3616502Y4344630D01*
X3614793Y4343165D01*
X3613573Y4341945D01*
X3612596Y4340724D01*
X3611620Y4339992D01*
X3611376Y4339504D01*
X3611132Y4339260D01*
X3608447Y4335354D01*
X3606006Y4330717D01*
X3603809Y4325835D01*
X3602100Y4320709D01*
X3600636Y4315339D01*
X3599415Y4309969D01*
X3597462Y4299228D01*
X3596730Y4294102D01*
X3596242Y4289465D01*
X3595998Y4285315D01*
X3595754Y4281410D01*
X3595510Y4278480D01*
Y4276039D01*
Y4274575D01*
Y4274331D01*
Y4274087D01*
X3595754Y4265788D01*
X3596242Y4257976D01*
X3596730Y4251142D01*
X3597707Y4244551D01*
X3598683Y4238693D01*
X3599903Y4233567D01*
X3601368Y4228929D01*
X3602588Y4224780D01*
X3603809Y4221118D01*
X3605273Y4217945D01*
X3606494Y4215504D01*
X3607470Y4213551D01*
X3608447Y4211843D01*
X3609179Y4210866D01*
X3609423Y4210134D01*
X3609667Y4209890D01*
X3612352Y4206717D01*
X3615525Y4204032D01*
X3618455Y4201591D01*
X3621628Y4199638D01*
X3624801Y4197929D01*
X3627974Y4196465D01*
X3631147Y4195244D01*
X3634077Y4194268D01*
X3636762Y4193536D01*
X3639447Y4193047D01*
X3641643Y4192559D01*
X3643596Y4192315D01*
X3645305D01*
X3646525Y4192071D01*
X3647502D01*
X3651651Y4192315D01*
X3655801Y4192803D01*
X3659462Y4193536D01*
X3662880Y4194756D01*
X3666053Y4195977D01*
X3669226Y4197197D01*
X3671911Y4198662D01*
X3674352Y4200370D01*
X3676549Y4201835D01*
X3678258Y4203299D01*
X3679966Y4204520D01*
X3681187Y4205984D01*
X3682407Y4206961D01*
X3683139Y4207693D01*
X3683384Y4208181D01*
X3683628Y4208425D01*
X3686313Y4212331D01*
X3688754Y4216969D01*
X3690950Y4221851D01*
X3692903Y4226977D01*
X3694368Y4232347D01*
X3695588Y4237717D01*
X3697541Y4248457D01*
X3698273Y4253583D01*
X3698761Y4258465D01*
X3699006Y4262614D01*
X3699250Y4266520D01*
X3699494Y4269449D01*
Y4271890D01*
Y4273354D01*
Y4273599D01*
Y4273843D01*
X3699250Y4282142D01*
X3698761Y4289709D01*
X3698029Y4296787D01*
X3697053Y4303378D01*
X3695832Y4309236D01*
X3694612Y4314606D01*
X3693147Y4319244D01*
X3691683Y4323638D01*
X3690218Y4327299D01*
X3688754Y4330472D01*
X3687533Y4333157D01*
X3686313Y4335354D01*
X3685336Y4336819D01*
X3684604Y4338039D01*
X3684116Y4338772D01*
X3683872Y4339016D01*
X3681187Y4341945D01*
X3678502Y4344630D01*
X3675573Y4346827D01*
X3672643Y4348779D01*
X3669714Y4350488D01*
X3666541Y4351709D01*
X3663612Y4352929D01*
X3660683Y4353661D01*
X3657998Y4354394D01*
X3655557Y4354882D01*
X3653360Y4355370D01*
X3651407Y4355614D01*
X3649699Y4355858D01*
D02*
G37*
G36*
X3038975Y4358055D02*
X3015786D01*
X2976243Y4192315D01*
X2998944D01*
X3038975Y4358055D01*
D02*
G37*
G36*
X2529795Y4355858D02*
X2504654D01*
X2502457Y4350488D01*
X2499528Y4345606D01*
X2496354Y4341213D01*
X2493181Y4337551D01*
X2490008Y4334378D01*
X2487567Y4332181D01*
X2486835Y4331449D01*
X2486102Y4330717D01*
X2485614Y4330472D01*
X2485370Y4330228D01*
X2480244Y4326323D01*
X2475362Y4323394D01*
X2470969Y4320709D01*
X2467063Y4318756D01*
X2463890Y4317047D01*
X2461449Y4316071D01*
X2460473Y4315827D01*
X2459740Y4315583D01*
X2459496Y4315339D01*
X2459252D01*
Y4287512D01*
X2467551Y4290685D01*
X2475118Y4294347D01*
X2481709Y4298008D01*
X2484882Y4299961D01*
X2487567Y4301913D01*
X2490252Y4303622D01*
X2492449Y4305331D01*
X2494402Y4306795D01*
X2496110Y4308016D01*
X2497331Y4309236D01*
X2498307Y4309969D01*
X2498795Y4310457D01*
X2499039Y4310701D01*
Y4195000D01*
X2529795D01*
Y4355858D01*
D02*
G37*
%LPD*%
G36*
X3276967Y4258465D02*
X3232786D01*
X3254510Y4318024D01*
X3276967Y4258465D01*
D02*
G37*
G36*
X3649454Y4330228D02*
X3651163Y4329984D01*
X3652872Y4329252D01*
X3654336Y4328764D01*
X3655313Y4328031D01*
X3656289Y4327299D01*
X3656777Y4327055D01*
X3657021Y4326811D01*
X3658486Y4325102D01*
X3659951Y4323150D01*
X3662147Y4318268D01*
X3663124Y4316071D01*
X3663612Y4314362D01*
X3664100Y4313142D01*
Y4312898D01*
Y4312654D01*
X3664588Y4310457D01*
X3665076Y4308016D01*
X3665565Y4305087D01*
X3665809Y4302158D01*
X3666297Y4295811D01*
X3666785Y4289221D01*
Y4286291D01*
Y4283362D01*
X3667029Y4280677D01*
Y4278480D01*
Y4276528D01*
Y4275063D01*
Y4274087D01*
Y4273843D01*
Y4268717D01*
X3666785Y4264079D01*
Y4259685D01*
X3666541Y4255536D01*
X3666297Y4251874D01*
X3666053Y4248701D01*
X3665809Y4245772D01*
X3665565Y4243087D01*
X3665076Y4240890D01*
X3664832Y4238937D01*
X3664588Y4237229D01*
X3664344Y4236008D01*
X3664100Y4234788D01*
Y4234055D01*
X3663856Y4233811D01*
Y4233567D01*
X3662880Y4230394D01*
X3661659Y4227709D01*
X3660683Y4225512D01*
X3659462Y4223803D01*
X3658486Y4222583D01*
X3657754Y4221606D01*
X3657265Y4221118D01*
X3657021Y4220874D01*
X3655313Y4219654D01*
X3653848Y4218921D01*
X3650675Y4217945D01*
X3649454Y4217701D01*
X3648478Y4217457D01*
X3647502D01*
X3645549Y4217701D01*
X3643596Y4217945D01*
X3641888Y4218433D01*
X3640423Y4219166D01*
X3639203Y4219898D01*
X3638226Y4220386D01*
X3637738Y4220630D01*
X3637494Y4220874D01*
X3636029Y4222583D01*
X3634565Y4224536D01*
X3633588Y4226732D01*
X3632612Y4229173D01*
X3631636Y4231370D01*
X3631147Y4233079D01*
X3630903Y4234299D01*
X3630659Y4234788D01*
X3630171Y4236984D01*
X3629683Y4239669D01*
X3629439Y4242354D01*
X3629195Y4245528D01*
X3628706Y4251874D01*
X3628218Y4258465D01*
Y4261394D01*
Y4264323D01*
X3627974Y4267008D01*
Y4269205D01*
Y4271158D01*
Y4272622D01*
Y4273599D01*
Y4273843D01*
Y4278969D01*
X3628218Y4283606D01*
Y4288000D01*
X3628462Y4292150D01*
X3628706Y4295811D01*
X3628951Y4298984D01*
X3629195Y4301913D01*
X3629439Y4304598D01*
X3629683Y4306795D01*
X3629927Y4308748D01*
X3630171Y4310457D01*
X3630415Y4311921D01*
X3630659Y4312898D01*
X3630903Y4313630D01*
Y4313874D01*
Y4314118D01*
X3631880Y4317291D01*
X3632856Y4319976D01*
X3634077Y4322173D01*
X3635053Y4323882D01*
X3636029Y4325102D01*
X3636762Y4326079D01*
X3637250Y4326567D01*
X3637494Y4326811D01*
X3639203Y4328031D01*
X3640911Y4329008D01*
X3642620Y4329496D01*
X3644084Y4329984D01*
X3645549Y4330228D01*
X3646525Y4330472D01*
X3647502D01*
X3649454Y4330228D01*
D02*
G37*
%LPC*%
G36*
X1172360Y4358055D02*
X1170896D01*
X1163817Y4357811D01*
X1157227Y4357079D01*
X1151368Y4355858D01*
X1146242Y4354882D01*
X1144045Y4354150D01*
X1142093Y4353661D01*
X1140384Y4352929D01*
X1138919Y4352441D01*
X1137699Y4352197D01*
X1136967Y4351709D01*
X1136479Y4351465D01*
X1136234D01*
X1132085Y4349512D01*
X1128179Y4347315D01*
X1124762Y4344874D01*
X1121589Y4342433D01*
X1119148Y4340480D01*
X1117195Y4338772D01*
X1115975Y4337551D01*
X1115486Y4337063D01*
X1112313Y4333402D01*
X1109140Y4329496D01*
X1106699Y4325835D01*
X1104502Y4322417D01*
X1102794Y4319488D01*
X1101573Y4317047D01*
X1100841Y4315583D01*
X1100597Y4315339D01*
Y4315094D01*
X1098156Y4308504D01*
X1096447Y4301669D01*
X1095227Y4294835D01*
X1094494Y4288244D01*
X1094006Y4285315D01*
Y4282630D01*
X1093762Y4280189D01*
X1093518Y4277992D01*
Y4276284D01*
Y4275063D01*
Y4274087D01*
Y4273843D01*
X1093762Y4266764D01*
X1094494Y4260173D01*
X1095471Y4254071D01*
X1096691Y4248213D01*
X1098400Y4242843D01*
X1100109Y4237961D01*
X1102061Y4233567D01*
X1104014Y4229417D01*
X1105967Y4225756D01*
X1107920Y4222583D01*
X1109628Y4219898D01*
X1111337Y4217701D01*
X1112557Y4215992D01*
X1113534Y4214772D01*
X1114266Y4214040D01*
X1114510Y4213795D01*
X1118660Y4209890D01*
X1123053Y4206717D01*
X1127447Y4203788D01*
X1132329Y4201347D01*
X1136967Y4199150D01*
X1141605Y4197441D01*
X1146242Y4195977D01*
X1150636Y4194756D01*
X1154786Y4193780D01*
X1158691Y4193292D01*
X1162353Y4192803D01*
X1165282Y4192315D01*
X1167723D01*
X1169675Y4192071D01*
X1171140D01*
X1177730Y4192315D01*
X1183833Y4193047D01*
X1189447Y4194024D01*
X1194817Y4195488D01*
X1199943Y4197197D01*
X1204581Y4198906D01*
X1208730Y4200859D01*
X1212636Y4203055D01*
X1216053Y4205008D01*
X1218982Y4206961D01*
X1221667Y4208670D01*
X1223620Y4210378D01*
X1225329Y4211843D01*
X1226549Y4212819D01*
X1227282Y4213551D01*
X1227526Y4213795D01*
X1231187Y4218189D01*
X1234604Y4222827D01*
X1237289Y4227709D01*
X1239730Y4232591D01*
X1241927Y4237717D01*
X1243636Y4242843D01*
X1245100Y4247725D01*
X1246077Y4252606D01*
X1247053Y4257000D01*
X1247541Y4261394D01*
X1248030Y4265055D01*
X1248518Y4268473D01*
Y4271158D01*
X1248762Y4273110D01*
Y4274331D01*
Y4274819D01*
X1248518Y4281898D01*
X1247785Y4288732D01*
X1246809Y4295079D01*
X1245344Y4300937D01*
X1243880Y4306307D01*
X1242171Y4311189D01*
X1240218Y4315827D01*
X1238266Y4319976D01*
X1236069Y4323638D01*
X1234360Y4326811D01*
X1232407Y4329496D01*
X1230943Y4331693D01*
X1229478Y4333646D01*
X1228502Y4334866D01*
X1227770Y4335598D01*
X1227526Y4335842D01*
X1223376Y4339748D01*
X1218982Y4343165D01*
X1214345Y4346094D01*
X1209707Y4348779D01*
X1205069Y4350732D01*
X1200187Y4352685D01*
X1195793Y4354150D01*
X1191156Y4355370D01*
X1187006Y4356102D01*
X1183101Y4356835D01*
X1179683Y4357323D01*
X1176754Y4357811D01*
X1174313D01*
X1172360Y4358055D01*
D02*
G37*
G36*
X1383990Y4355370D02*
X1274148D01*
Y4195000D01*
X1306612D01*
Y4263102D01*
X1373494D01*
Y4290197D01*
X1306612D01*
Y4328276D01*
X1383990D01*
Y4355370D01*
D02*
G37*
G36*
X1520683D02*
X1410840D01*
Y4195000D01*
X1443305D01*
Y4263102D01*
X1510186D01*
Y4290197D01*
X1443305D01*
Y4328276D01*
X1520683D01*
Y4355370D01*
D02*
G37*
%LPD*%
G36*
X1174801Y4330228D02*
X1178219Y4329984D01*
X1184565Y4328276D01*
X1190179Y4326079D01*
X1194573Y4323638D01*
X1196526Y4322417D01*
X1198234Y4321197D01*
X1199699Y4319976D01*
X1200919Y4319000D01*
X1201896Y4318024D01*
X1202628Y4317291D01*
X1202872Y4317047D01*
X1203116Y4316803D01*
X1205313Y4314118D01*
X1207266Y4311189D01*
X1208730Y4308016D01*
X1210195Y4304598D01*
X1212392Y4297764D01*
X1213856Y4291173D01*
X1214345Y4288000D01*
X1214589Y4285071D01*
X1215077Y4282386D01*
Y4280189D01*
X1215321Y4278236D01*
Y4276772D01*
Y4275795D01*
Y4275551D01*
X1215077Y4270425D01*
X1214833Y4265788D01*
X1214100Y4261150D01*
X1213368Y4257244D01*
X1212392Y4253339D01*
X1211415Y4249921D01*
X1210195Y4246748D01*
X1209219Y4244063D01*
X1207998Y4241622D01*
X1206778Y4239425D01*
X1205801Y4237717D01*
X1204825Y4236252D01*
X1204093Y4235032D01*
X1203360Y4234299D01*
X1203116Y4233811D01*
X1202872Y4233567D01*
X1200431Y4231126D01*
X1197990Y4228929D01*
X1195305Y4227221D01*
X1192620Y4225512D01*
X1189935Y4224292D01*
X1187250Y4223071D01*
X1182368Y4221362D01*
X1177975Y4220386D01*
X1176022Y4220142D01*
X1174313Y4219898D01*
X1173093Y4219654D01*
X1171140D01*
X1167723Y4219898D01*
X1164305Y4220142D01*
X1161132Y4220874D01*
X1157959Y4221851D01*
X1152589Y4224047D01*
X1147951Y4226732D01*
X1144290Y4229173D01*
X1142825Y4230394D01*
X1141605Y4231370D01*
X1140628Y4232347D01*
X1139896Y4233079D01*
X1139652Y4233323D01*
X1139408Y4233567D01*
X1137211Y4236252D01*
X1135258Y4239425D01*
X1133549Y4242599D01*
X1132329Y4246016D01*
X1129888Y4252851D01*
X1128423Y4259685D01*
X1127935Y4262858D01*
X1127691Y4265788D01*
X1127447Y4268228D01*
X1127203Y4270669D01*
X1126959Y4272378D01*
Y4273843D01*
Y4274819D01*
Y4275063D01*
X1127203Y4280189D01*
X1127447Y4284827D01*
X1128179Y4289221D01*
X1128912Y4293370D01*
X1129644Y4297032D01*
X1130864Y4300449D01*
X1131841Y4303622D01*
X1133061Y4306307D01*
X1134038Y4308748D01*
X1135258Y4310701D01*
X1136234Y4312654D01*
X1136967Y4314118D01*
X1137943Y4315094D01*
X1138431Y4315827D01*
X1138675Y4316315D01*
X1138919Y4316559D01*
X1141360Y4319000D01*
X1143801Y4321197D01*
X1146486Y4322906D01*
X1149171Y4324614D01*
X1151856Y4326079D01*
X1154542Y4327055D01*
X1159667Y4328764D01*
X1164061Y4329740D01*
X1166014Y4329984D01*
X1167723Y4330228D01*
X1169187Y4330472D01*
X1171140D01*
X1174801Y4330228D01*
D02*
G37*
%LPC*%
G36*
X2531849Y788949D02*
X2468723D01*
Y706821D01*
X2530560D01*
X2533459Y707143D01*
X2536358Y707787D01*
X2538612Y708753D01*
X2540867Y709720D01*
X2542477Y710686D01*
X2543765Y711652D01*
X2544409Y712296D01*
X2544732Y712618D01*
X2546664Y714873D01*
X2548274Y717449D01*
X2549241Y719704D01*
X2550207Y721958D01*
X2550529Y724213D01*
X2550851Y725823D01*
Y726790D01*
Y727112D01*
Y768337D01*
X2550529Y771558D01*
X2549885Y774456D01*
X2548918Y777033D01*
X2547952Y779287D01*
X2546664Y780898D01*
X2545698Y782186D01*
X2545054Y782830D01*
X2544732Y783152D01*
X2542477Y785085D01*
X2540223Y786373D01*
X2537646Y787661D01*
X2535391Y788305D01*
X2533459Y788627D01*
X2531849Y788949D01*
D02*
G37*
G36*
X2120973Y7488961D02*
X2078138D01*
X2074917Y7488639D01*
X2072340Y7487995D01*
X2069764Y7487029D01*
X2067509Y7486063D01*
X2065899Y7485097D01*
X2064611Y7484130D01*
X2063966Y7483486D01*
X2063644Y7483164D01*
X2061712Y7480910D01*
X2060424Y7478333D01*
X2059135Y7476079D01*
X2058491Y7473502D01*
X2058169Y7471570D01*
X2057847Y7469959D01*
Y7468671D01*
Y7468349D01*
Y7344995D01*
X2058169Y7341774D01*
X2058813Y7338876D01*
X2059779Y7336621D01*
X2060746Y7334367D01*
X2061712Y7332434D01*
X2062678Y7331146D01*
X2063322Y7330502D01*
X2063644Y7330180D01*
X2065899Y7328247D01*
X2068475Y7326637D01*
X2070730Y7325671D01*
X2072984Y7324705D01*
X2075239Y7324383D01*
X2076849Y7324061D01*
X2119685D01*
X2122584Y7324383D01*
X2125482Y7325027D01*
X2127737Y7325993D01*
X2129991Y7327281D01*
X2131602Y7328247D01*
X2132890Y7329214D01*
X2133534Y7329858D01*
X2133856Y7330180D01*
X2135788Y7332434D01*
X2137399Y7335011D01*
X2138365Y7337588D01*
X2139331Y7339842D01*
X2139653Y7341774D01*
X2139975Y7343707D01*
Y7344673D01*
Y7344995D01*
Y7468349D01*
X2139653Y7471570D01*
X2139009Y7474468D01*
X2138043Y7477045D01*
X2137077Y7479299D01*
X2135788Y7480910D01*
X2134822Y7482198D01*
X2134178Y7482842D01*
X2133856Y7483164D01*
X2131602Y7485097D01*
X2129347Y7486385D01*
X2126770Y7487673D01*
X2124516Y7488317D01*
X2122584Y7488639D01*
X2120973Y7488961D01*
D02*
G37*
G36*
X2615676D02*
X2552550D01*
Y7406833D01*
X2614387D01*
X2617286Y7407155D01*
X2620185Y7407799D01*
X2622439Y7408765D01*
X2624694Y7409732D01*
X2626304Y7410698D01*
X2627592Y7411664D01*
X2628237Y7412308D01*
X2628559Y7412630D01*
X2630491Y7414885D01*
X2632101Y7417461D01*
X2633068Y7419716D01*
X2634034Y7421970D01*
X2634356Y7424225D01*
X2634678Y7425835D01*
Y7426802D01*
Y7427124D01*
Y7468349D01*
X2634356Y7471570D01*
X2633712Y7474468D01*
X2632746Y7477045D01*
X2631779Y7479299D01*
X2630491Y7480910D01*
X2629525Y7482198D01*
X2628881Y7482842D01*
X2628559Y7483164D01*
X2626304Y7485097D01*
X2624050Y7486385D01*
X2621473Y7487673D01*
X2619219Y7488317D01*
X2617286Y7488639D01*
X2615676Y7488961D01*
D02*
G37*
G36*
X2491067Y437667D02*
X2427941D01*
Y355539D01*
X2489779D01*
X2492678Y355861D01*
X2495576Y356505D01*
X2497831Y357471D01*
X2500085Y358438D01*
X2501696Y359404D01*
X2502984Y360370D01*
X2503628Y361014D01*
X2503950Y361336D01*
X2505883Y363591D01*
X2507493Y366167D01*
X2508459Y368422D01*
X2509426Y370676D01*
X2509748Y372931D01*
X2510070Y374541D01*
Y375508D01*
Y375830D01*
Y417055D01*
X2509748Y420276D01*
X2509103Y423174D01*
X2508137Y425751D01*
X2507171Y428005D01*
X2505883Y429616D01*
X2504917Y430904D01*
X2504272Y431548D01*
X2503950Y431870D01*
X2501696Y433803D01*
X2499441Y435091D01*
X2496865Y436379D01*
X2494610Y437023D01*
X2492678Y437345D01*
X2491067Y437667D01*
D02*
G37*
G36*
X2687498Y7818665D02*
X2656901Y7727518D01*
X2717773D01*
X2687498Y7818665D01*
D02*
G37*
G36*
X2224036Y7840243D02*
X2181201D01*
X2177980Y7839921D01*
X2175403Y7839277D01*
X2172827Y7838311D01*
X2170572Y7837345D01*
X2168962Y7836379D01*
X2167674Y7835412D01*
X2167029Y7834768D01*
X2166707Y7834446D01*
X2164775Y7832192D01*
X2163487Y7829615D01*
X2162198Y7827361D01*
X2161554Y7824784D01*
X2161232Y7822852D01*
X2160910Y7821241D01*
Y7819953D01*
Y7819631D01*
Y7696277D01*
X2161232Y7693056D01*
X2161876Y7690158D01*
X2162843Y7687903D01*
X2163809Y7685649D01*
X2164775Y7683716D01*
X2165741Y7682428D01*
X2166385Y7681784D01*
X2166707Y7681462D01*
X2168962Y7679529D01*
X2171538Y7677919D01*
X2173793Y7676953D01*
X2176047Y7675987D01*
X2178302Y7675665D01*
X2179912Y7675343D01*
X2222748D01*
X2225647Y7675665D01*
X2228545Y7676309D01*
X2230800Y7677275D01*
X2233054Y7678563D01*
X2234665Y7679529D01*
X2235953Y7680496D01*
X2236597Y7681140D01*
X2236919Y7681462D01*
X2238852Y7683716D01*
X2240462Y7686293D01*
X2241428Y7688870D01*
X2242394Y7691124D01*
X2242716Y7693056D01*
X2243038Y7694989D01*
Y7695955D01*
Y7696277D01*
Y7819631D01*
X2242716Y7822852D01*
X2242072Y7825750D01*
X2241106Y7828327D01*
X2240140Y7830581D01*
X2238852Y7832192D01*
X2237885Y7833480D01*
X2237241Y7834124D01*
X2236919Y7834446D01*
X2234665Y7836379D01*
X2232410Y7837667D01*
X2229833Y7838955D01*
X2227579Y7839599D01*
X2225647Y7839921D01*
X2224036Y7840243D01*
D02*
G37*
%LPD*%
D47*
X2083802Y7100557D02*
X2901802D01*
X2083802Y5900588D02*
X2901802D01*
X1892818Y6091572D02*
Y6909572D01*
X3092787Y6091572D02*
Y6909572D01*
D49*
X2080452Y6310572D02*
X2232802D01*
Y6386748D01*
X2207410Y6412140D01*
X2182019D01*
X2156627Y6386748D01*
Y6310572D01*
Y6386748D01*
X2131235Y6412140D01*
X2105843D01*
X2080452Y6386748D01*
Y6310572D01*
X2105843Y6564490D02*
X2080452Y6539098D01*
Y6488315D01*
X2105843Y6462923D01*
X2207410D01*
X2232802Y6488315D01*
Y6539098D01*
X2207410Y6564490D01*
X2232802Y6615274D02*
Y6666057D01*
Y6640666D01*
X2080452D01*
X2105843Y6615274D01*
D62*
X2379254Y4470002D02*
X4049253D01*
X2379254Y3145001D02*
Y4470002D01*
Y3145001D02*
X4049253D01*
Y4470002D01*
X2016512Y3145001D02*
Y4470002D01*
X946512D02*
X2016512D01*
X946512Y3145001D02*
Y4470002D01*
Y3145001D02*
X2016512D01*
X1046512Y3944999D02*
X1596508D01*
D63*
X1046512Y4170003D02*
X1596508D01*
X1078501Y3245001D02*
X1896513D01*
D64*
X1021508Y3695002D02*
X1621512D01*
D65*
X4000881Y3330829D02*
D03*
D66*
X3983990Y3449066D02*
D03*
D67*
X1946510Y3305001D02*
D03*
D68*
X3224253Y4020000D02*
D03*
D69*
Y3557499D02*
D03*
D70*
X3963535Y3820001D02*
D03*
D71*
X1784011Y3957501D02*
D03*
D72*
X1466511Y3195001D02*
D03*
D73*
X1021511Y3720001D02*
D03*
D74*
X1321510Y4057501D02*
D03*
D75*
X1509010Y3707499D02*
D03*
D76*
X1271510Y3570001D02*
D03*
D77*
Y4407500D02*
D03*
D78*
X996512Y4295001D02*
D03*
D79*
X3946644Y4245001D02*
D03*
%TF.MD5,4e86f4d474086076221b1ff51c462a5a*%
M02*
