%TF.GenerationSoftware,Altium Limited,Altium Designer,19.0.13 (425)*%
G04 Layer_Color=128*
%FSLAX45Y45*%
%MOMM*%
%TF.FileFunction,Paste,Bot*%
%TF.Part,Single*%
G01*
G75*
%TA.AperFunction,SMDPad,CuDef*%
%ADD17R,1.00000X1.91000*%
%ADD18R,2.00000X1.65000*%
%ADD19R,1.15000X1.40000*%
%ADD20R,1.00000X0.90000*%
%ADD21R,0.90000X1.00000*%
%ADD22R,1.20000X1.40000*%
%ADD24R,0.90000X0.95000*%
%ADD25R,0.90000X0.95001*%
%ADD26R,0.81000X1.60000*%
%ADD27R,2.10000X3.00000*%
%ADD28R,1.10000X1.60000*%
%ADD29R,0.80000X0.80000*%
%ADD30R,3.60000X2.60000*%
%ADD31R,0.65000X1.10000*%
%ADD33R,0.80000X0.80000*%
G36*
X2601972Y5189892D02*
Y5299892D01*
X2661972D01*
Y5189892D01*
X2601972D01*
D02*
G37*
G36*
X2791972D02*
Y5299892D01*
X2851972D01*
Y5189892D01*
X2791972D01*
D02*
G37*
G36*
X2661972Y5569892D02*
Y5459892D01*
X2601972D01*
Y5569892D01*
X2661972D01*
D02*
G37*
G36*
X2756972D02*
Y5459892D01*
X2696972D01*
Y5569892D01*
X2756972D01*
D02*
G37*
G36*
X2851972D02*
Y5459892D01*
X2791972D01*
Y5569892D01*
X2851972D01*
D02*
G37*
D17*
X2224024Y5437124D02*
D03*
X1970024Y5766124D02*
D03*
X1716024Y5437124D02*
D03*
X1462024Y5766124D02*
D03*
D18*
X4450000Y2579998D02*
D03*
X4620002Y2010002D02*
D03*
D19*
X4660002Y2590001D02*
D03*
X4410000Y1999999D02*
D03*
D20*
X3879999Y2515000D02*
D03*
Y2345002D02*
D03*
X4281334Y5534999D02*
D03*
Y5365001D02*
D03*
X795001Y5554999D02*
D03*
Y5725002D02*
D03*
X4064702Y5359413D02*
D03*
Y5529411D02*
D03*
X2458483Y5313084D02*
D03*
Y5143082D02*
D03*
X2458482Y5613084D02*
D03*
Y5443084D02*
D03*
X3004312Y5408676D02*
D03*
Y5578676D02*
D03*
X4281334Y5154999D02*
D03*
Y4985002D02*
D03*
X3491074Y5282968D02*
D03*
Y5452968D02*
D03*
X3491074Y5082970D02*
D03*
Y4912968D02*
D03*
D21*
X3676066Y4912868D02*
D03*
X3846068D02*
D03*
X4632047Y4938261D02*
D03*
X4462045D02*
D03*
X3853598Y5563108D02*
D03*
X3683598D02*
D03*
D22*
X4470000Y2850000D02*
D03*
X4650000D02*
D03*
D24*
X590003Y5522503D02*
D03*
X495002Y5757498D02*
D03*
D25*
X400000Y5522497D02*
D03*
D26*
X2944082Y4415282D02*
D03*
X3069082D02*
D03*
D27*
X2689082Y4125282D02*
D03*
X3324082D02*
D03*
D28*
X795001Y5239999D02*
D03*
X444999D02*
D03*
D29*
X4064702Y4999318D02*
D03*
Y5149320D02*
D03*
X3301072Y5292967D02*
D03*
Y5442969D02*
D03*
X2730246Y5666670D02*
D03*
Y5816670D02*
D03*
D30*
X1731518Y2231898D02*
D03*
Y5161895D02*
D03*
D31*
X3852226Y5107969D02*
D03*
X3757225D02*
D03*
X3662224D02*
D03*
Y5347968D02*
D03*
X3757225D02*
D03*
X3852226D02*
D03*
X4654998Y5130001D02*
D03*
X4560002D02*
D03*
X4465001D02*
D03*
Y5370000D02*
D03*
X4560002D02*
D03*
X4654998D02*
D03*
D33*
X2928224Y5732526D02*
D03*
X3078226D02*
D03*
X4560587Y5551204D02*
D03*
X4710589D02*
D03*
X3206680Y5889244D02*
D03*
X3356680D02*
D03*
%TF.MD5,0c318924226846de5988fff8574281c6*%
M02*
