%TF.GenerationSoftware,Altium Limited,Altium Designer,18.1.9 (240)*%
G04 Layer_Color=8388736*
%FSLAX45Y45*%
%MOMM*%
%TF.FileFunction,Soldermask,Top*%
%TF.Part,Single*%
G01*
G75*
%TA.AperFunction,ComponentPad*%
%ADD14C,11.50000*%
%ADD55C,2.00160*%
%ADD56C,1.70160*%
%TA.AperFunction,WasherPad*%
%ADD57C,0.10160*%
%TA.AperFunction,ComponentPad*%
%ADD58C,11.60160*%
%TA.AperFunction,WasherPad*%
%ADD59C,2.10000*%
%TA.AperFunction,ComponentPad*%
%ADD60C,1.62560*%
D14*
X1539998Y1487001D02*
D03*
X1199999Y6500000D02*
D03*
X3786999D02*
D03*
D55*
X2997802Y5995572D02*
D03*
Y7005572D02*
D03*
X1987802D02*
D03*
Y5995572D02*
D03*
D56*
X2492802Y6500572D02*
D03*
D57*
X500000Y500002D02*
D03*
X4500002D02*
D03*
X500000Y7499998D02*
D03*
X4500002D02*
D03*
D58*
X3439999Y1487001D02*
D03*
D59*
X620000Y5239999D02*
D03*
D60*
X4230000Y4270000D02*
D03*
Y3950000D02*
D03*
Y3630000D02*
D03*
Y3310000D02*
D03*
X4730000Y3310000D02*
D03*
Y3630000D02*
D03*
Y3950000D02*
D03*
Y4270000D02*
D03*
X270000D02*
D03*
Y3950000D02*
D03*
Y3630000D02*
D03*
Y3310000D02*
D03*
X770000Y3310000D02*
D03*
Y3630000D02*
D03*
Y3950000D02*
D03*
Y4270000D02*
D03*
%TF.MD5,fefe063512a93edcf963082820e52ea2*%
M02*
