%TF.GenerationSoftware,Altium Limited,Altium Designer,19.1.5 (86)*%
G04 Layer_Physical_Order=1*
G04 Layer_Color=255*
%FSLAX45Y45*%
%MOMM*%
%TF.FileFunction,Copper,L1,Top,Signal*%
%TF.Part,Single*%
G01*
G75*
%TA.AperFunction,Conductor*%
%ADD10C,0.38100*%
%ADD11C,3.81000*%
%TA.AperFunction,ComponentPad*%
%ADD12C,1.52400*%
%ADD13C,1.90000*%
%ADD14C,1.60000*%
%ADD15C,11.50000*%
%TA.AperFunction,ViaPad*%
%ADD16C,0.80000*%
G36*
X4740713Y7955336D02*
X4775227Y7946088D01*
X4808239Y7932414D01*
X4839183Y7914548D01*
X4867530Y7892796D01*
X4892796Y7867530D01*
X4914548Y7839182D01*
X4932413Y7808237D01*
X4946087Y7775225D01*
X4955334Y7740711D01*
X4959997Y7705286D01*
X4959997Y7687420D01*
X4959997Y7687420D01*
X4959999Y7687418D01*
X4959999Y339231D01*
X4959999Y320274D01*
X4955050Y282684D01*
X4945238Y246061D01*
X4930728Y211033D01*
X4911771Y178198D01*
X4888690Y148118D01*
X4861880Y121309D01*
X4831801Y98228D01*
X4798966Y79270D01*
X4763937Y64761D01*
X4727314Y54948D01*
X4689724Y50000D01*
X4670767Y50000D01*
X4670767Y50000D01*
X4670767Y50000D01*
X319062D01*
X300771Y49999D01*
X264503Y54774D01*
X229168Y64242D01*
X195371Y78241D01*
X163691Y96532D01*
X134669Y118801D01*
X108801Y144668D01*
X86532Y173690D01*
X68241Y205371D01*
X54242Y239167D01*
X44774Y274502D01*
X40000Y310771D01*
X40000Y329062D01*
X40000Y329062D01*
Y7685653D01*
X39999Y7703634D01*
X44694Y7739290D01*
X54002Y7774028D01*
X67764Y7807253D01*
X85746Y7838399D01*
X107639Y7866930D01*
X133069Y7892360D01*
X161600Y7914253D01*
X192745Y7932235D01*
X225971Y7945997D01*
X260709Y7955305D01*
X296364Y7959999D01*
X314346Y7959999D01*
X314346Y7960000D01*
X4687422Y7960000D01*
X4705288D01*
X4740713Y7955336D01*
D02*
G37*
%LPC*%
G36*
X4500002Y7674338D02*
X4465991Y7670988D01*
X4433286Y7661067D01*
X4403145Y7644957D01*
X4376726Y7623275D01*
X4355044Y7596856D01*
X4338934Y7566715D01*
X4329013Y7534010D01*
X4325663Y7499998D01*
X4329013Y7465987D01*
X4338934Y7433282D01*
X4355044Y7403141D01*
X4376726Y7376722D01*
X4403145Y7355040D01*
X4433286Y7338930D01*
X4465991Y7329009D01*
X4500002Y7325659D01*
X4534014Y7329009D01*
X4566719Y7338930D01*
X4596860Y7355040D01*
X4623279Y7376722D01*
X4644960Y7403141D01*
X4661071Y7433282D01*
X4670992Y7465987D01*
X4674342Y7499998D01*
X4670992Y7534010D01*
X4661071Y7566715D01*
X4644960Y7596856D01*
X4623279Y7623275D01*
X4596860Y7644957D01*
X4566719Y7661067D01*
X4534014Y7670988D01*
X4500002Y7674338D01*
D02*
G37*
G36*
X500000D02*
X465988Y7670988D01*
X433283Y7661067D01*
X403142Y7644957D01*
X376724Y7623275D01*
X355042Y7596856D01*
X338932Y7566715D01*
X329011Y7534010D01*
X325661Y7499998D01*
X329011Y7465987D01*
X338932Y7433282D01*
X355042Y7403141D01*
X376724Y7376722D01*
X403142Y7355040D01*
X433283Y7338930D01*
X465988Y7329009D01*
X500000Y7325659D01*
X534012Y7329009D01*
X566717Y7338930D01*
X596858Y7355040D01*
X623277Y7376722D01*
X644958Y7403141D01*
X661069Y7433282D01*
X670990Y7465987D01*
X674340Y7499998D01*
X670990Y7534010D01*
X661069Y7566715D01*
X644958Y7596856D01*
X623277Y7623275D01*
X596858Y7644957D01*
X566717Y7661067D01*
X534012Y7670988D01*
X500000Y7674338D01*
D02*
G37*
G36*
X2492802Y6645310D02*
X2455341Y6640378D01*
X2420433Y6625919D01*
X2390457Y6602917D01*
X2367455Y6572941D01*
X2352996Y6538033D01*
X2348064Y6500572D01*
X2352996Y6463111D01*
X2367455Y6428203D01*
X2390457Y6398227D01*
X2420433Y6375225D01*
X2455341Y6360766D01*
X2492802Y6355834D01*
X2530263Y6360766D01*
X2565171Y6375225D01*
X2595147Y6398227D01*
X2618149Y6428203D01*
X2632608Y6463111D01*
X2637540Y6500572D01*
X2632608Y6538033D01*
X2618149Y6572941D01*
X2595147Y6602917D01*
X2565171Y6625919D01*
X2530263Y6640378D01*
X2492802Y6645310D01*
D02*
G37*
G36*
X1200000Y7157866D02*
X1126342Y7153729D01*
X1053611Y7141372D01*
X982721Y7120948D01*
X914563Y7092716D01*
X849994Y7057031D01*
X789827Y7014340D01*
X734819Y6965181D01*
X685660Y6910172D01*
X642969Y6850006D01*
X607284Y6785437D01*
X579051Y6717279D01*
X558628Y6646389D01*
X546271Y6573657D01*
X542134Y6500000D01*
X546271Y6426342D01*
X558628Y6353611D01*
X579051Y6282721D01*
X607284Y6214563D01*
X642969Y6149994D01*
X685660Y6089828D01*
X734819Y6034819D01*
X789827Y5985660D01*
X849994Y5942969D01*
X914563Y5907284D01*
X982721Y5879051D01*
X1053611Y5858628D01*
X1126342Y5846271D01*
X1200000Y5842134D01*
X1273657Y5846271D01*
X1346389Y5858628D01*
X1417279Y5879051D01*
X1485437Y5907284D01*
X1550006Y5942969D01*
X1610172Y5985660D01*
X1665181Y6034819D01*
X1714340Y6089828D01*
X1757031Y6149994D01*
X1792716Y6214563D01*
X1820948Y6282721D01*
X1841371Y6353611D01*
X1853729Y6426342D01*
X1857865Y6500000D01*
X1853729Y6573657D01*
X1841371Y6646389D01*
X1820948Y6717279D01*
X1792716Y6785437D01*
X1757031Y6850006D01*
X1714340Y6910172D01*
X1665181Y6965181D01*
X1610172Y7014340D01*
X1550006Y7057031D01*
X1485437Y7092716D01*
X1417279Y7120948D01*
X1346389Y7141372D01*
X1273657Y7153729D01*
X1200000Y7157866D01*
D02*
G37*
G36*
X620000Y5419362D02*
X585008Y5415916D01*
X551361Y5405709D01*
X520351Y5389134D01*
X493171Y5366828D01*
X470865Y5339648D01*
X454290Y5308638D01*
X444083Y5274991D01*
X440636Y5239999D01*
X444083Y5205007D01*
X454290Y5171359D01*
X470865Y5140350D01*
X493171Y5113169D01*
X520351Y5090863D01*
X551361Y5074288D01*
X585008Y5064082D01*
X620000Y5060635D01*
X654992Y5064082D01*
X688639Y5074288D01*
X719649Y5090863D01*
X746829Y5113169D01*
X769135Y5140350D01*
X785710Y5171359D01*
X795917Y5205007D01*
X799364Y5239999D01*
X795917Y5274991D01*
X785710Y5308638D01*
X769135Y5339648D01*
X746829Y5366828D01*
X719649Y5389134D01*
X688639Y5405709D01*
X654992Y5415916D01*
X620000Y5419362D01*
D02*
G37*
G36*
X4767072Y5110479D02*
X4740053Y5106922D01*
X4714876Y5096493D01*
X4693255Y5079903D01*
X4676665Y5058282D01*
X4666236Y5033105D01*
X4664704Y5021469D01*
X4451330Y4808095D01*
X4442619Y4806948D01*
X4417442Y4796519D01*
X4395821Y4779929D01*
X4379231Y4758308D01*
X4368802Y4733131D01*
X4365245Y4706112D01*
X4368802Y4679093D01*
X4379231Y4653916D01*
X4395821Y4632295D01*
X4417442Y4615705D01*
X4442619Y4605276D01*
X4442866Y4605244D01*
X4446018Y4581303D01*
X4456447Y4556126D01*
X4473037Y4534505D01*
X4494658Y4517915D01*
X4519835Y4507486D01*
X4546854Y4503929D01*
X4573873Y4507486D01*
X4599050Y4517915D01*
X4620671Y4534505D01*
X4637261Y4556126D01*
X4647690Y4581303D01*
X4649222Y4592940D01*
X4784287Y4728004D01*
X4793583Y4729228D01*
X4818760Y4739657D01*
X4840381Y4756247D01*
X4856971Y4777868D01*
X4867400Y4803045D01*
X4870957Y4830064D01*
X4867400Y4857083D01*
X4856971Y4882260D01*
X4840381Y4903881D01*
X4830412Y4911530D01*
Y4924230D01*
X4840889Y4932269D01*
X4857479Y4953890D01*
X4867908Y4979067D01*
X4871465Y5006086D01*
X4867908Y5033105D01*
X4857479Y5058282D01*
X4840889Y5079903D01*
X4819268Y5096493D01*
X4794091Y5106922D01*
X4767072Y5110479D01*
D02*
G37*
G36*
X4715000Y4410906D02*
X4678531Y4406104D01*
X4644547Y4392028D01*
X4615365Y4369635D01*
X4592973Y4340453D01*
X4578896Y4306469D01*
X4574095Y4270000D01*
X4578896Y4233531D01*
X4592973Y4199547D01*
X4615365Y4170365D01*
X4644547Y4147972D01*
X4678531Y4133896D01*
X4715000Y4129095D01*
X4751469Y4133896D01*
X4785453Y4147972D01*
X4814636Y4170365D01*
X4837028Y4199547D01*
X4851104Y4233531D01*
X4855906Y4270000D01*
X4851104Y4306469D01*
X4837028Y4340453D01*
X4814636Y4369635D01*
X4785453Y4392028D01*
X4751469Y4406104D01*
X4715000Y4410906D01*
D02*
G37*
G36*
X4215000D02*
X4178531Y4406104D01*
X4144547Y4392028D01*
X4115365Y4369635D01*
X4092973Y4340453D01*
X4078896Y4306469D01*
X4074095Y4270000D01*
X4078896Y4233531D01*
X4092973Y4199547D01*
X4115365Y4170365D01*
X4144547Y4147972D01*
X4178531Y4133896D01*
X4215000Y4129095D01*
X4251469Y4133896D01*
X4285453Y4147972D01*
X4314636Y4170365D01*
X4337028Y4199547D01*
X4351104Y4233531D01*
X4355906Y4270000D01*
X4351104Y4306469D01*
X4337028Y4340453D01*
X4314636Y4369635D01*
X4285453Y4392028D01*
X4251469Y4406104D01*
X4215000Y4410906D01*
D02*
G37*
G36*
X785000D02*
X748531Y4406104D01*
X714547Y4392028D01*
X685365Y4369635D01*
X662972Y4340453D01*
X648896Y4306469D01*
X644094Y4270000D01*
X648896Y4233531D01*
X662972Y4199547D01*
X685365Y4170365D01*
X714547Y4147972D01*
X748531Y4133896D01*
X785000Y4129095D01*
X821469Y4133896D01*
X855453Y4147972D01*
X884635Y4170365D01*
X907028Y4199547D01*
X921104Y4233531D01*
X925905Y4270000D01*
X921104Y4306469D01*
X907028Y4340453D01*
X884635Y4369635D01*
X855453Y4392028D01*
X821469Y4406104D01*
X785000Y4410906D01*
D02*
G37*
G36*
X285000D02*
X248531Y4406104D01*
X214547Y4392028D01*
X185365Y4369635D01*
X162972Y4340453D01*
X148896Y4306469D01*
X144094Y4270000D01*
X148896Y4233531D01*
X162972Y4199547D01*
X185365Y4170365D01*
X214547Y4147972D01*
X248531Y4133896D01*
X285000Y4129095D01*
X321469Y4133896D01*
X355453Y4147972D01*
X384635Y4170365D01*
X407028Y4199547D01*
X421104Y4233531D01*
X425905Y4270000D01*
X421104Y4306469D01*
X407028Y4340453D01*
X384635Y4369635D01*
X355453Y4392028D01*
X321469Y4406104D01*
X285000Y4410906D01*
D02*
G37*
G36*
X4715000Y4090905D02*
X4678531Y4086104D01*
X4644547Y4072028D01*
X4615365Y4049635D01*
X4592973Y4020453D01*
X4578896Y3986469D01*
X4574095Y3950000D01*
X4578896Y3913531D01*
X4592973Y3879547D01*
X4615365Y3850365D01*
X4644547Y3827972D01*
X4678531Y3813896D01*
X4715000Y3809094D01*
X4751469Y3813896D01*
X4785453Y3827972D01*
X4814636Y3850365D01*
X4837028Y3879547D01*
X4851104Y3913531D01*
X4855906Y3950000D01*
X4851104Y3986469D01*
X4837028Y4020453D01*
X4814636Y4049635D01*
X4785453Y4072028D01*
X4751469Y4086104D01*
X4715000Y4090905D01*
D02*
G37*
G36*
X4215000D02*
X4178531Y4086104D01*
X4144547Y4072028D01*
X4115365Y4049635D01*
X4092973Y4020453D01*
X4078896Y3986469D01*
X4074095Y3950000D01*
X4078896Y3913531D01*
X4092973Y3879547D01*
X4115365Y3850365D01*
X4144547Y3827972D01*
X4178531Y3813896D01*
X4215000Y3809094D01*
X4251469Y3813896D01*
X4285453Y3827972D01*
X4314636Y3850365D01*
X4337028Y3879547D01*
X4351104Y3913531D01*
X4355906Y3950000D01*
X4351104Y3986469D01*
X4337028Y4020453D01*
X4314636Y4049635D01*
X4285453Y4072028D01*
X4251469Y4086104D01*
X4215000Y4090905D01*
D02*
G37*
G36*
X785000D02*
X748531Y4086104D01*
X714547Y4072028D01*
X685365Y4049635D01*
X662972Y4020453D01*
X648896Y3986469D01*
X644094Y3950000D01*
X648896Y3913531D01*
X662972Y3879547D01*
X685365Y3850365D01*
X714547Y3827972D01*
X748531Y3813896D01*
X785000Y3809094D01*
X821469Y3813896D01*
X855453Y3827972D01*
X884635Y3850365D01*
X907028Y3879547D01*
X921104Y3913531D01*
X925905Y3950000D01*
X921104Y3986469D01*
X907028Y4020453D01*
X884635Y4049635D01*
X855453Y4072028D01*
X821469Y4086104D01*
X785000Y4090905D01*
D02*
G37*
G36*
X285000D02*
X248531Y4086104D01*
X214547Y4072028D01*
X185365Y4049635D01*
X162972Y4020453D01*
X148896Y3986469D01*
X144094Y3950000D01*
X148896Y3913531D01*
X162972Y3879547D01*
X185365Y3850365D01*
X214547Y3827972D01*
X248531Y3813896D01*
X285000Y3809094D01*
X321469Y3813896D01*
X355453Y3827972D01*
X384635Y3850365D01*
X407028Y3879547D01*
X421104Y3913531D01*
X425905Y3950000D01*
X421104Y3986469D01*
X407028Y4020453D01*
X384635Y4049635D01*
X355453Y4072028D01*
X321469Y4086104D01*
X285000Y4090905D01*
D02*
G37*
G36*
X4715000Y3770905D02*
X4678531Y3766104D01*
X4644547Y3752028D01*
X4615365Y3729635D01*
X4592973Y3700453D01*
X4578896Y3666469D01*
X4574095Y3630000D01*
X4578896Y3593531D01*
X4592973Y3559547D01*
X4615365Y3530365D01*
X4644547Y3507972D01*
X4678531Y3493896D01*
X4715000Y3489094D01*
X4751469Y3493896D01*
X4785453Y3507972D01*
X4814636Y3530365D01*
X4837028Y3559547D01*
X4851104Y3593531D01*
X4855906Y3630000D01*
X4851104Y3666469D01*
X4837028Y3700453D01*
X4814636Y3729635D01*
X4785453Y3752028D01*
X4751469Y3766104D01*
X4715000Y3770905D01*
D02*
G37*
G36*
X4215000D02*
X4178531Y3766104D01*
X4144547Y3752028D01*
X4115365Y3729635D01*
X4092973Y3700453D01*
X4078896Y3666469D01*
X4074095Y3630000D01*
X4078896Y3593531D01*
X4092973Y3559547D01*
X4115365Y3530365D01*
X4144547Y3507972D01*
X4178531Y3493896D01*
X4215000Y3489094D01*
X4251469Y3493896D01*
X4285453Y3507972D01*
X4314636Y3530365D01*
X4337028Y3559547D01*
X4351104Y3593531D01*
X4355906Y3630000D01*
X4351104Y3666469D01*
X4337028Y3700453D01*
X4314636Y3729635D01*
X4285453Y3752028D01*
X4251469Y3766104D01*
X4215000Y3770905D01*
D02*
G37*
G36*
X785000D02*
X748531Y3766104D01*
X714547Y3752028D01*
X685365Y3729635D01*
X662972Y3700453D01*
X648896Y3666469D01*
X644094Y3630000D01*
X648896Y3593531D01*
X662972Y3559547D01*
X685365Y3530365D01*
X714547Y3507972D01*
X748531Y3493896D01*
X785000Y3489094D01*
X821469Y3493896D01*
X855453Y3507972D01*
X884635Y3530365D01*
X907028Y3559547D01*
X921104Y3593531D01*
X925905Y3630000D01*
X921104Y3666469D01*
X907028Y3700453D01*
X884635Y3729635D01*
X855453Y3752028D01*
X821469Y3766104D01*
X785000Y3770905D01*
D02*
G37*
G36*
X285000D02*
X248531Y3766104D01*
X214547Y3752028D01*
X185365Y3729635D01*
X162972Y3700453D01*
X148896Y3666469D01*
X144094Y3630000D01*
X148896Y3593531D01*
X162972Y3559547D01*
X185365Y3530365D01*
X214547Y3507972D01*
X248531Y3493896D01*
X285000Y3489094D01*
X321469Y3493896D01*
X355453Y3507972D01*
X384635Y3530365D01*
X407028Y3559547D01*
X421104Y3593531D01*
X425905Y3630000D01*
X421104Y3666469D01*
X407028Y3700453D01*
X384635Y3729635D01*
X355453Y3752028D01*
X321469Y3766104D01*
X285000Y3770905D01*
D02*
G37*
G36*
X4715000Y3450905D02*
X4678531Y3446104D01*
X4644547Y3432028D01*
X4615365Y3409635D01*
X4592973Y3380453D01*
X4578896Y3346469D01*
X4574095Y3310000D01*
X4578896Y3273531D01*
X4592973Y3239547D01*
X4615365Y3210365D01*
X4644547Y3187972D01*
X4678531Y3173896D01*
X4715000Y3169095D01*
X4751469Y3173896D01*
X4785453Y3187972D01*
X4814636Y3210365D01*
X4837028Y3239547D01*
X4851104Y3273531D01*
X4855906Y3310000D01*
X4851104Y3346469D01*
X4837028Y3380453D01*
X4814636Y3409635D01*
X4785453Y3432028D01*
X4751469Y3446104D01*
X4715000Y3450905D01*
D02*
G37*
G36*
X785000D02*
X748531Y3446104D01*
X714547Y3432028D01*
X685365Y3409635D01*
X662972Y3380453D01*
X648896Y3346469D01*
X644094Y3310000D01*
X648896Y3273531D01*
X662972Y3239547D01*
X685365Y3210365D01*
X714547Y3187972D01*
X748531Y3173896D01*
X785000Y3169095D01*
X821469Y3173896D01*
X855453Y3187972D01*
X884635Y3210365D01*
X907028Y3239547D01*
X921104Y3273531D01*
X925905Y3310000D01*
X921104Y3346469D01*
X907028Y3380453D01*
X884635Y3409635D01*
X855453Y3432028D01*
X821469Y3446104D01*
X785000Y3450905D01*
D02*
G37*
G36*
X4215000Y3450905D02*
X4178531Y3446104D01*
X4144547Y3432027D01*
X4115365Y3409635D01*
X4092973Y3380452D01*
X4078896Y3346469D01*
X4074095Y3310000D01*
X4078896Y3273531D01*
X4092973Y3239547D01*
X4115365Y3210364D01*
X4144547Y3187972D01*
X4178531Y3173896D01*
X4215000Y3169094D01*
X4251469Y3173896D01*
X4285453Y3187972D01*
X4314636Y3210364D01*
X4337028Y3239547D01*
X4351104Y3273531D01*
X4355906Y3310000D01*
X4351104Y3346469D01*
X4337028Y3380452D01*
X4314636Y3409635D01*
X4285453Y3432027D01*
X4251469Y3446104D01*
X4215000Y3450905D01*
D02*
G37*
G36*
X285000D02*
X248531Y3446104D01*
X214547Y3432027D01*
X185365Y3409635D01*
X162972Y3380452D01*
X148896Y3346469D01*
X144094Y3310000D01*
X148896Y3273531D01*
X162972Y3239547D01*
X185365Y3210364D01*
X214547Y3187972D01*
X248531Y3173896D01*
X285000Y3169094D01*
X321469Y3173896D01*
X355453Y3187972D01*
X384635Y3210364D01*
X407028Y3239547D01*
X421104Y3273531D01*
X425905Y3310000D01*
X421104Y3346469D01*
X407028Y3380452D01*
X384635Y3409635D01*
X355453Y3432027D01*
X321469Y3446104D01*
X285000Y3450905D01*
D02*
G37*
G36*
X3440000Y2144866D02*
X3366343Y2140729D01*
X3293611Y2128372D01*
X3222721Y2107949D01*
X3154563Y2079716D01*
X3089994Y2044031D01*
X3029828Y2001340D01*
X2974819Y1952181D01*
X2925660Y1897172D01*
X2882969Y1837006D01*
X2847284Y1772437D01*
X2819052Y1704279D01*
X2798628Y1633389D01*
X2786271Y1560658D01*
X2782134Y1487000D01*
X2786271Y1413343D01*
X2798628Y1340611D01*
X2819052Y1269721D01*
X2847284Y1201563D01*
X2882969Y1136994D01*
X2925660Y1076828D01*
X2974819Y1021819D01*
X3029828Y972660D01*
X3089994Y929969D01*
X3154563Y894284D01*
X3222721Y866052D01*
X3293611Y845628D01*
X3366343Y833271D01*
X3440000Y829134D01*
X3513657Y833271D01*
X3586389Y845628D01*
X3657279Y866052D01*
X3725437Y894284D01*
X3790006Y929969D01*
X3850172Y972660D01*
X3905181Y1021819D01*
X3954340Y1076828D01*
X3997031Y1136994D01*
X4032716Y1201563D01*
X4060948Y1269721D01*
X4081372Y1340611D01*
X4093729Y1413343D01*
X4097866Y1487000D01*
X4093729Y1560658D01*
X4081372Y1633389D01*
X4060948Y1704279D01*
X4032716Y1772437D01*
X3997031Y1837006D01*
X3954340Y1897172D01*
X3905181Y1952181D01*
X3850172Y2001340D01*
X3790006Y2044031D01*
X3725437Y2079716D01*
X3657279Y2107949D01*
X3586389Y2128372D01*
X3513657Y2140729D01*
X3440000Y2144866D01*
D02*
G37*
G36*
X1540000D02*
X1466343Y2140729D01*
X1393611Y2128372D01*
X1322721Y2107949D01*
X1254563Y2079716D01*
X1189994Y2044031D01*
X1129828Y2001340D01*
X1074819Y1952181D01*
X1025660Y1897172D01*
X982969Y1837006D01*
X947284Y1772437D01*
X919052Y1704279D01*
X898628Y1633389D01*
X886271Y1560658D01*
X882134Y1487000D01*
X886271Y1413343D01*
X898628Y1340611D01*
X919052Y1269721D01*
X947284Y1201563D01*
X982969Y1136994D01*
X1025660Y1076828D01*
X1074819Y1021819D01*
X1129828Y972660D01*
X1189994Y929969D01*
X1254563Y894284D01*
X1322721Y866052D01*
X1393611Y845628D01*
X1466343Y833271D01*
X1540000Y829134D01*
X1613657Y833271D01*
X1686389Y845628D01*
X1757279Y866052D01*
X1825437Y894284D01*
X1890006Y929969D01*
X1950172Y972660D01*
X2005181Y1021819D01*
X2054340Y1076828D01*
X2097031Y1136994D01*
X2132716Y1201563D01*
X2160948Y1269721D01*
X2181372Y1340611D01*
X2193729Y1413343D01*
X2197866Y1487000D01*
X2193729Y1560658D01*
X2181372Y1633389D01*
X2160948Y1704279D01*
X2132716Y1772437D01*
X2097031Y1837006D01*
X2054340Y1897172D01*
X2005181Y1952181D01*
X1950172Y2001340D01*
X1890006Y2044031D01*
X1825437Y2079716D01*
X1757279Y2107949D01*
X1686389Y2128372D01*
X1613657Y2140729D01*
X1540000Y2144866D01*
D02*
G37*
G36*
X4500002Y674342D02*
X4465991Y670992D01*
X4433286Y661071D01*
X4403145Y644960D01*
X4376726Y623279D01*
X4355044Y596860D01*
X4338934Y566719D01*
X4329013Y534014D01*
X4325663Y500002D01*
X4329013Y465990D01*
X4338934Y433285D01*
X4355044Y403144D01*
X4376726Y376726D01*
X4403145Y355044D01*
X4433286Y338934D01*
X4465991Y329013D01*
X4500002Y325663D01*
X4534014Y329013D01*
X4566719Y338934D01*
X4596860Y355044D01*
X4623279Y376726D01*
X4644960Y403144D01*
X4661071Y433285D01*
X4670992Y465990D01*
X4674342Y500002D01*
X4670992Y534014D01*
X4661071Y566719D01*
X4644960Y596860D01*
X4623279Y623279D01*
X4596860Y644960D01*
X4566719Y661071D01*
X4534014Y670992D01*
X4500002Y674342D01*
D02*
G37*
G36*
X500000D02*
X465988Y670992D01*
X433283Y661071D01*
X403142Y644960D01*
X376724Y623279D01*
X355042Y596860D01*
X338932Y566719D01*
X329011Y534014D01*
X325661Y500002D01*
X329011Y465990D01*
X338932Y433285D01*
X355042Y403144D01*
X376724Y376726D01*
X403142Y355044D01*
X433283Y338934D01*
X465988Y329013D01*
X500000Y325663D01*
X534012Y329013D01*
X566717Y338934D01*
X596858Y355044D01*
X623277Y376726D01*
X644958Y403144D01*
X661069Y433285D01*
X670990Y465990D01*
X674340Y500002D01*
X670990Y534014D01*
X661069Y566719D01*
X644958Y596860D01*
X623277Y623279D01*
X596858Y644960D01*
X566717Y661071D01*
X534012Y670992D01*
X500000Y674342D01*
D02*
G37*
%LPD*%
D10*
X4710172Y4270002D02*
X4729999D01*
X4465826Y4704840D02*
X4767072Y5006086D01*
X4464844Y4704840D02*
X4468144Y4701540D01*
X4464844Y4704840D02*
X4465826D01*
X4546854Y4608322D02*
X4766564Y4828032D01*
Y4830064D01*
X4469638Y4703034D02*
Y4706112D01*
X4468144Y4701540D02*
X4469638Y4703034D01*
X4766090Y5006086D02*
X4767072D01*
D11*
X3429001Y1505456D02*
X3446019D01*
D12*
X4715000Y4270000D02*
D03*
Y3950000D02*
D03*
Y3630000D02*
D03*
Y3310000D02*
D03*
X4215000Y3310000D02*
D03*
Y3630000D02*
D03*
Y3950000D02*
D03*
Y4270000D02*
D03*
X285000D02*
D03*
Y3950000D02*
D03*
Y3630000D02*
D03*
Y3310000D02*
D03*
X785000Y3310000D02*
D03*
Y3630000D02*
D03*
Y3950000D02*
D03*
Y4270000D02*
D03*
D13*
X2997802Y5995572D02*
D03*
Y7005572D02*
D03*
X1987802D02*
D03*
Y5995572D02*
D03*
D14*
X2492802Y6500572D02*
D03*
D15*
X1539998Y1487001D02*
D03*
X1199999Y6500000D02*
D03*
X3439999Y1487001D02*
D03*
X3786999Y6500000D02*
D03*
D16*
X4766564Y4830064D02*
D03*
X4469638Y4706112D02*
D03*
X4546854Y4608322D02*
D03*
X4767072Y5006086D02*
D03*
%TF.MD5,91adfbf787cb5ffbc970d5f3fbcc9ae1*%
M02*
