%TF.GenerationSoftware,Altium Limited,Altium Designer,19.0.12 (326)*%
G04 Layer_Color=16711935*
%FSLAX45Y45*%
%MOMM*%
%TF.FileFunction,Other,Mechanical_13*%
%TF.Part,Single*%
G01*
G75*
%TA.AperFunction,NonConductor*%
%ADD48C,0.20000*%
%ADD96C,0.10000*%
D48*
X1310024Y5399124D02*
Y5804124D01*
X2376024D01*
Y5399124D02*
Y5804124D01*
X1310024Y5399124D02*
X2376024D01*
X2644082Y3925282D02*
Y4465282D01*
X3369082D01*
Y3925282D02*
Y4465282D01*
X2644082Y3925282D02*
X3369082D01*
D96*
X3082797Y6500564D02*
G03*
X3082797Y6500564I-589995J0D01*
G01*
X2698815D02*
G03*
X2698815Y6500564I-206012J0D01*
G01*
X2973802D02*
G03*
X2973802Y6500564I-481000J0D01*
G01*
X2047810Y7005564D02*
G03*
X2047810Y7005564I-60000J0D01*
G01*
X3057802Y7005556D02*
G03*
X3057802Y7005556I-60000J0D01*
G01*
X3057794Y5995564D02*
G03*
X3057794Y5995564I-60000J0D01*
G01*
X2047802Y5995572D02*
G03*
X2047802Y5995572I-60000J0D01*
G01*
X2537802Y6500564D02*
G03*
X2537802Y6500564I-45000J0D01*
G01*
X2478130Y6569025D02*
G03*
X2424412Y6515562I14673J-68461D01*
G01*
X2424341Y6485900D02*
G03*
X2477804Y6432182I68461J14673D01*
G01*
X2507475Y6432111D02*
G03*
X2561193Y6485574I-14673J68461D01*
G01*
X2561263Y6515245D02*
G03*
X2507800Y6568963I-68461J-14673D01*
G01*
X2393908Y6485734D02*
G03*
X2477979Y6401669I98894J14830D01*
G01*
X2507633Y6401670D02*
G03*
X2591697Y6485740I-14830J98894D01*
G01*
X2591696Y6515394D02*
G03*
X2507626Y6599459I-98894J-14830D01*
G01*
X2017810Y7005557D02*
G03*
X2017810Y7005557I-30000J0D01*
G01*
X2017809Y5995571D02*
G03*
X2017809Y5995571I-30000J0D01*
G01*
X3027795Y5995571D02*
G03*
X3027795Y5995571I-30000J0D01*
G01*
X3027795Y7005557D02*
G03*
X3027795Y7005557I-30000J0D01*
G01*
X2477972Y6599458D02*
G03*
X2393907Y6515388I14830J-98894D01*
G01*
X2587802Y5955556D02*
Y6030672D01*
X2397579Y5955556D02*
Y6030672D01*
X2587802Y6970472D02*
Y7045572D01*
X2397579Y6970472D02*
Y7045572D01*
Y5955556D02*
X2587802D01*
X2397579Y7045572D02*
X2587802D01*
X1963398Y7100581D02*
X3022207D01*
X1892785Y5971160D02*
Y7029969D01*
X3092787Y5971125D02*
Y7030001D01*
X1963365Y5900580D02*
X3022241D01*
X2507807Y6391584D02*
Y6432183D01*
X2477814Y6391584D02*
X2507807D01*
X2477814D02*
Y6432183D01*
X2561183Y6485576D02*
X2601782D01*
Y6515568D01*
X2561183D02*
X2601782D01*
X2507790Y6568953D02*
Y6609552D01*
X2477798D02*
X2507790D01*
X2477798Y6568953D02*
Y6609552D01*
X2383822Y6515560D02*
X2424421D01*
X2383822Y6485568D02*
Y6515560D01*
Y6485568D02*
X2424421D01*
X1892785Y5971160D02*
X1963365Y5900580D01*
X3022241D02*
X3092787Y5971125D01*
X3022207Y7100581D02*
X3092787Y7030001D01*
X1892785Y7029969D02*
X1963398Y7100581D01*
X3832501Y2515000D02*
X3927502D01*
X3832501Y2345002D02*
X3927502D01*
X3832501D02*
Y2515000D01*
X3927502Y2345002D02*
Y2515000D01*
X4233836Y5534999D02*
X4328837D01*
X4233836Y5365001D02*
X4328837D01*
X4233836D02*
Y5534999D01*
X4328837Y5365001D02*
Y5534999D01*
X747498Y5554999D02*
X842499D01*
X747498Y5725002D02*
X842499D01*
Y5554999D02*
Y5725002D01*
X747498Y5554999D02*
Y5725002D01*
X4017204Y5359413D02*
X4112205D01*
X4017204Y5529411D02*
X4112205D01*
Y5359413D02*
Y5529411D01*
X4017204Y5359413D02*
Y5529411D01*
X2410985Y5313084D02*
X2505981D01*
X2410985Y5143082D02*
X2505981D01*
X2410985D02*
Y5313084D01*
X2505981Y5143082D02*
Y5313084D01*
X2410982Y5443084D02*
Y5613084D01*
X2505982Y5443084D02*
Y5613084D01*
X2410982D02*
X2505982D01*
X2410982Y5443084D02*
X2505982D01*
X3676066Y4865365D02*
Y4960366D01*
X3846068Y4865365D02*
Y4960366D01*
X3676066Y4865365D02*
X3846068D01*
X3676066Y4960366D02*
X3846068D01*
X4452499Y2779998D02*
Y2919997D01*
X4667500Y2779998D02*
Y2919997D01*
X4452499Y2779998D02*
X4667500D01*
X4452499Y2919997D02*
X4667500D01*
X3051812Y5408676D02*
Y5578676D01*
X2956812Y5408676D02*
Y5578676D01*
Y5408676D02*
X3051812D01*
X2956812Y5578676D02*
X3051812D01*
X4233836Y5154999D02*
X4328837D01*
X4233836Y4985002D02*
X4328837D01*
X4233836D02*
Y5154999D01*
X4328837Y4985002D02*
Y5154999D01*
X4632047Y4890758D02*
Y4985759D01*
X4462045Y4890758D02*
Y4985759D01*
X4632047D01*
X4462045Y4890758D02*
X4632047D01*
X3538574Y5282968D02*
Y5452968D01*
X3443574Y5282968D02*
Y5452968D01*
Y5282968D02*
X3538574D01*
X3443574Y5452968D02*
X3538574D01*
X3443576Y5082970D02*
X3538572D01*
X3443576Y4912968D02*
X3538572D01*
X3443576D02*
Y5082970D01*
X3538572Y4912968D02*
Y5082970D01*
X3683598Y5610608D02*
X3853598D01*
X3683598Y5515608D02*
X3853598D01*
Y5610608D01*
X3683598Y5515608D02*
Y5610608D01*
X460000Y5159999D02*
Y5319999D01*
X780000D01*
Y5159999D02*
Y5319999D01*
X460000Y5159999D02*
X780000D01*
X3602224Y5137966D02*
X3912226D01*
X3602224Y5317966D02*
X3912226D01*
Y5137966D02*
Y5317966D01*
X3602224Y5137966D02*
Y5317966D01*
X4405001Y5159998D02*
X4714998D01*
X4405001Y5339998D02*
X4714998D01*
Y5159998D02*
Y5339998D01*
X4405001Y5159998D02*
Y5339998D01*
%TF.MD5,301076866517d15db05a8917c55546fd*%
M02*
