%TF.GenerationSoftware,Altium Limited,Altium Designer,19.0.12 (326)*%
G04 Layer_Color=16711935*
%FSLAX45Y45*%
%MOMM*%
%TF.FileFunction,Soldermask,Bot*%
%TF.Part,Single*%
G01*
G75*
%TA.AperFunction,ComponentPad*%
%ADD43C,11.00000*%
%ADD55C,2.00160*%
%ADD56C,1.70160*%
%TA.AperFunction,WasherPad*%
%ADD57C,0.10160*%
%ADD59C,2.10000*%
%TA.AperFunction,ComponentPad*%
%ADD60C,1.62560*%
%TA.AperFunction,SMDPad,CuDef*%
%ADD79R,1.10160X2.01160*%
%ADD80R,2.10160X1.75160*%
%ADD81R,1.25160X1.50160*%
%ADD82R,1.10160X1.00160*%
%ADD83R,1.00160X1.10160*%
%ADD84R,1.30160X1.50160*%
%ADD85R,1.00160X1.05160*%
%ADD86R,1.00160X1.05161*%
%ADD87R,0.91160X1.70160*%
%ADD88R,2.20160X3.10160*%
%ADD89R,1.20160X1.70160*%
%ADD90R,0.90160X0.90160*%
%ADD91R,3.70160X2.70160*%
%ADD92R,0.75160X1.20160*%
G04:AMPARAMS|DCode=93|XSize=1.1016mm|YSize=1.1016mm|CornerRadius=0.5508mm|HoleSize=0mm|Usage=FLASHONLY|Rotation=90.000|XOffset=0mm|YOffset=0mm|HoleType=Round|Shape=RoundedRectangle|*
%AMROUNDEDRECTD93*
21,1,1.10160,0.00000,0,0,90.0*
21,1,0.00000,1.10160,0,0,90.0*
1,1,1.10160,0.00000,0.00000*
1,1,1.10160,0.00000,0.00000*
1,1,1.10160,0.00000,0.00000*
1,1,1.10160,0.00000,0.00000*
%
%ADD93ROUNDEDRECTD93*%
%ADD94R,0.90160X0.90160*%
%TA.AperFunction,ComponentPad*%
%ADD95C,11.10160*%
G36*
X2591972Y5179892D02*
Y5309892D01*
X2671972D01*
Y5179892D01*
X2591972D01*
D02*
G37*
G36*
X2781972D02*
Y5309892D01*
X2861972D01*
Y5179892D01*
X2781972D01*
D02*
G37*
G36*
X2671972Y5579892D02*
Y5449892D01*
X2591972D01*
Y5579892D01*
X2671972D01*
D02*
G37*
G36*
X2766972D02*
Y5449892D01*
X2686972D01*
Y5579892D01*
X2766972D01*
D02*
G37*
G36*
X2861972D02*
Y5449892D01*
X2781972D01*
Y5579892D01*
X2861972D01*
D02*
G37*
D43*
X1539998Y1487001D02*
D03*
X1199999Y6500000D02*
D03*
X3786999D02*
D03*
D55*
X2997802Y5995572D02*
D03*
Y7005572D02*
D03*
X1987802D02*
D03*
Y5995572D02*
D03*
D56*
X2492802Y6500572D02*
D03*
D57*
X500000Y500002D02*
D03*
X4500002D02*
D03*
X500000Y7499998D02*
D03*
X4500002D02*
D03*
D59*
X620000Y5239999D02*
D03*
D60*
X4230000Y4270000D02*
D03*
Y3950000D02*
D03*
Y3630000D02*
D03*
Y3310000D02*
D03*
X4730000Y3310000D02*
D03*
Y3630000D02*
D03*
Y3950000D02*
D03*
Y4270000D02*
D03*
X270000D02*
D03*
Y3950000D02*
D03*
Y3630000D02*
D03*
Y3310000D02*
D03*
X770000Y3310000D02*
D03*
Y3630000D02*
D03*
Y3950000D02*
D03*
Y4270000D02*
D03*
D79*
X2224024Y5437124D02*
D03*
X1970024Y5766124D02*
D03*
X1716024Y5437124D02*
D03*
X1462024Y5766124D02*
D03*
D80*
X4450000Y2579998D02*
D03*
X4620002Y2010002D02*
D03*
D81*
X4660002Y2590001D02*
D03*
X4410000Y1999999D02*
D03*
D82*
X3879999Y2515000D02*
D03*
Y2345002D02*
D03*
X4281334Y5534999D02*
D03*
Y5365001D02*
D03*
X795001Y5554999D02*
D03*
Y5725002D02*
D03*
X4064702Y5359413D02*
D03*
Y5529411D02*
D03*
X2458483Y5313084D02*
D03*
Y5143082D02*
D03*
X2458482Y5613084D02*
D03*
Y5443084D02*
D03*
X3004312Y5408676D02*
D03*
Y5578676D02*
D03*
X4281334Y5154999D02*
D03*
Y4985002D02*
D03*
X3491074Y5282968D02*
D03*
Y5452968D02*
D03*
X3491074Y5082970D02*
D03*
Y4912968D02*
D03*
D83*
X3676066Y4912868D02*
D03*
X3846068D02*
D03*
X4632047Y4938261D02*
D03*
X4462045D02*
D03*
X3853598Y5563108D02*
D03*
X3683598D02*
D03*
D84*
X4470000Y2850000D02*
D03*
X4650000D02*
D03*
D85*
X590003Y5522503D02*
D03*
X495002Y5757498D02*
D03*
D86*
X400000Y5522497D02*
D03*
D87*
X2944082Y4415282D02*
D03*
X3069082D02*
D03*
D88*
X2689082Y4125282D02*
D03*
X3324082D02*
D03*
D89*
X795001Y5239999D02*
D03*
X444999D02*
D03*
D90*
X4064702Y4999318D02*
D03*
Y5149320D02*
D03*
X3301072Y5292967D02*
D03*
Y5442969D02*
D03*
X2730246Y5666670D02*
D03*
Y5816670D02*
D03*
D91*
X1731518Y2231898D02*
D03*
Y5161895D02*
D03*
D92*
X3852226Y5107969D02*
D03*
X3757225D02*
D03*
X3662224D02*
D03*
Y5347968D02*
D03*
X3757225D02*
D03*
X3852226D02*
D03*
X4654998Y5130001D02*
D03*
X4560002D02*
D03*
X4465001D02*
D03*
Y5370000D02*
D03*
X4560002D02*
D03*
X4654998D02*
D03*
D93*
X4807002Y7646998D02*
D03*
X4807000Y340003D02*
D03*
X180001Y7646998D02*
D03*
D94*
X2928224Y5732526D02*
D03*
X3078226D02*
D03*
X4560587Y5551204D02*
D03*
X4710589D02*
D03*
X3206680Y5889244D02*
D03*
X3356680D02*
D03*
D95*
X3439999Y1487001D02*
D03*
%TF.MD5,94c0d8f11ff15e3c5ed776cab8b1c769*%
M02*
