%TF.GenerationSoftware,Altium Limited,Altium Designer,19.1.5 (86)*%
G04 Layer_Color=32768*
%FSLAX45Y45*%
%MOMM*%
%TF.FileFunction,Other,Mechanical_15*%
%TF.Part,Single*%
G01*
G75*
%TA.AperFunction,NonConductor*%
%ADD99C,0.10000*%
%ADD100C,0.05000*%
D99*
X2442802Y6500572D02*
X2542802D01*
X2492802Y6450572D02*
Y6550572D01*
X3805003Y2585002D02*
X3955000D01*
X3805003Y2275000D02*
X3955000D01*
X3805003D02*
Y2585002D01*
X3955000Y2275000D02*
Y2585002D01*
X3879999Y2382498D02*
Y2477499D01*
X3832501Y2430001D02*
X3927502D01*
X4206338Y5605001D02*
X4356335D01*
X4206338Y5294999D02*
X4356335D01*
X4206338D02*
Y5605001D01*
X4356335Y5294999D02*
Y5605001D01*
X4281334Y5402502D02*
Y5497498D01*
X4233836Y5450000D02*
X4328837D01*
X720000Y5485002D02*
X870002D01*
X720000Y5794999D02*
X870002D01*
Y5485002D02*
Y5794999D01*
X720000Y5485002D02*
Y5794999D01*
X795001Y5592500D02*
Y5687501D01*
X747498Y5639998D02*
X842499D01*
X3989706Y5289411D02*
X4139703D01*
X3989706Y5599413D02*
X4139703D01*
Y5289411D02*
Y5599413D01*
X3989706Y5289411D02*
Y5599413D01*
X4064702Y5396914D02*
Y5491910D01*
X4017204Y5444412D02*
X4112205D01*
X2383481Y5383086D02*
X2533484D01*
X2383481Y5073084D02*
X2533484D01*
X2383481D02*
Y5383086D01*
X2533484Y5073084D02*
Y5383086D01*
X2458483Y5180582D02*
Y5275583D01*
X2410985Y5228085D02*
X2505981D01*
X2410982Y5528084D02*
X2505982D01*
X2458482Y5480584D02*
Y5575584D01*
X2383482Y5373084D02*
Y5683084D01*
X2533482Y5373084D02*
Y5683084D01*
X2383482D02*
X2533482D01*
X2383482Y5373084D02*
X2533482D01*
X3606068Y4837867D02*
Y4987869D01*
X3916070Y4837867D02*
Y4987869D01*
X3606068Y4837867D02*
X3916070D01*
X3606068Y4987869D02*
X3916070D01*
X3713566Y4912868D02*
X3808567D01*
X3761069Y4865365D02*
Y4960366D01*
X4385001Y2754999D02*
Y2945001D01*
X4734998Y2754999D02*
Y2945001D01*
X4385001Y2754999D02*
X4734998D01*
X4385001Y2945001D02*
X4734998D01*
X4510000Y2850000D02*
X4610000D01*
X4560002Y2799998D02*
Y2899998D01*
X2956812Y5493676D02*
X3051812D01*
X3004312Y5446176D02*
Y5541176D01*
X3079312Y5338676D02*
Y5648676D01*
X2929312Y5338676D02*
Y5648676D01*
Y5338676D02*
X3079312D01*
X2929312Y5648676D02*
X3079312D01*
X4206338Y5225002D02*
X4356335D01*
X4206338Y4915000D02*
X4356335D01*
X4206338D02*
Y5225002D01*
X4356335Y4915000D02*
Y5225002D01*
X4281334Y5022498D02*
Y5117499D01*
X4233836Y5070001D02*
X4328837D01*
X4702044Y4863260D02*
Y5013262D01*
X4392047Y4863260D02*
Y5013262D01*
X4702044D01*
X4392047Y4863260D02*
X4702044D01*
X4499545Y4938261D02*
X4594546D01*
X4547048Y4890758D02*
Y4985759D01*
X3443574Y5367968D02*
X3538574D01*
X3491074Y5320468D02*
Y5415468D01*
X3566074Y5212968D02*
Y5522968D01*
X3416074Y5212968D02*
Y5522968D01*
Y5212968D02*
X3566074D01*
X3416074Y5522968D02*
X3566074D01*
X3416073Y5152967D02*
X3566075D01*
X3416073Y4842965D02*
X3566075D01*
X3416073D02*
Y5152967D01*
X3566075Y4842965D02*
Y5152967D01*
X3491074Y4950468D02*
Y5045469D01*
X3443576Y4997966D02*
X3538572D01*
X3768598Y5515608D02*
Y5610608D01*
X3721098Y5563108D02*
X3816098D01*
X3613598Y5638108D02*
X3923598D01*
X3613598Y5488108D02*
X3923598D01*
Y5638108D01*
X3613598Y5488108D02*
Y5638108D01*
X3577226Y5027969D02*
X3937225D01*
X3577226Y5427968D02*
X3937225D01*
Y5027969D02*
Y5427968D01*
X3577226Y5027969D02*
Y5427968D01*
X3757225Y5177966D02*
Y5277966D01*
X3707228Y5227968D02*
X3807228D01*
X4380003Y5050001D02*
X4740002D01*
X4380003Y5450000D02*
X4740002D01*
Y5050001D02*
Y5450000D01*
X4380003Y5050001D02*
Y5450000D01*
X4560002Y5199998D02*
Y5299998D01*
X4510000Y5250000D02*
X4610000D01*
D100*
X1882802Y5890572D02*
Y7110572D01*
Y5890572D02*
X3102802D01*
X1882802Y7110572D02*
X3102802D01*
Y5890572D02*
Y7110572D01*
%TF.MD5,ba6866b64a3369185aad81524051f531*%
M02*
